<svg xmlns="http://www.w3.org/2000/svg" width="155.068" height="118.174" viewBox="0 0 155.068 118.174">
  <g id="home_icon01" data-name="home icon01" transform="translate(-43.58 -120.307)">
    <g id="freepik--background-complete--inject-83" transform="translate(59.371 122.529)">
      <rect id="Rectangle_490" data-name="Rectangle 490" width="8.364" height="3.534" transform="translate(112.32 82.705)" fill="#ebebeb"/>
      <rect id="Rectangle_491" data-name="Rectangle 491" width="8.364" height="3.534" transform="translate(107.655 87.162)" fill="#ebebeb"/>
      <rect id="Rectangle_492" data-name="Rectangle 492" width="8.364" height="3.534" transform="translate(116.985 87.162)" fill="#ebebeb"/>
      <rect id="Rectangle_493" data-name="Rectangle 493" width="8.364" height="3.534" transform="translate(4.668 82.705)" fill="#ebebeb"/>
      <rect id="Rectangle_494" data-name="Rectangle 494" width="8.364" height="3.534" transform="translate(0 87.162)" fill="#dbdbdb"/>
      <rect id="Rectangle_495" data-name="Rectangle 495" width="8.364" height="3.534" transform="translate(57.702 54.511)" fill="#ebebeb"/>
      <rect id="Rectangle_496" data-name="Rectangle 496" width="8.364" height="3.534" transform="translate(53.033 58.968)" fill="#dbdbdb"/>
      <rect id="Rectangle_497" data-name="Rectangle 497" width="8.364" height="3.534" transform="translate(93.441 18.873)" fill="#dbdbdb"/>
      <rect id="Rectangle_498" data-name="Rectangle 498" width="8.364" height="3.534" transform="translate(62.367 58.968)" fill="#ebebeb"/>
      <rect id="Rectangle_499" data-name="Rectangle 499" width="8.364" height="3.534" transform="translate(111.837)" fill="#ebebeb"/>
      <rect id="Rectangle_500" data-name="Rectangle 500" width="8.364" height="3.534" transform="translate(116.502 4.457)" fill="#dbdbdb"/>
      <rect id="Rectangle_501" data-name="Rectangle 501" width="8.364" height="3.534" transform="translate(0 0.003)" fill="#ebebeb"/>
    </g>
    <g id="freepik--Shadow--inject-83" transform="translate(77.375 227.609)">
      <ellipse id="Ellipse_83" data-name="Ellipse 83" cx="43.88" cy="5.436" rx="43.88" ry="5.436" fill="#ebebeb"/>
    </g>
    <g id="freepik--Plants--inject-83" transform="translate(45.037 204.237)">
      <path id="Path_1" data-name="Path 1" d="M56.948,368.7c-1.647.056-3.481.15-4.842-.917a4.912,4.912,0,0,1-2.214-4.135c.049-.481.158-.778.673-.575a6.209,6.209,0,0,1,1.932,1.786,16.575,16.575,0,0,0,2.282,2.165c.586.451,1.214.838,1.812,1.271l.226.169.083.064h.049a.087.087,0,0,1,.068.034v.03a.087.087,0,0,1-.059.107Z" transform="translate(-48.966 -355.697)" fill="#37474f"/>
      <path id="Path_2" data-name="Path 2" d="M58.914,371.093c-1.444-.026-3.008.041-4.162-.94a6.708,6.708,0,0,1-1.346-1.639c-.165-.271-.665-1.083-.459-1.406.376-.583,2.1,1.8,2.338,2.026a7.031,7.031,0,0,0,3.192,1.658l.226.169a8.012,8.012,0,0,1-2.383-.917,11.454,11.454,0,0,1-2.4-2.365c-.173-.184-.7-.8-.895-.414-.128.252.376,1.045.459,1.214a6.672,6.672,0,0,0,1.256,1.538c1.154,1.008,2.707.97,4.165,1.03C58.907,371.074,58.914,371.082,58.914,371.093Z" transform="translate(-50.853 -358.199)" fill="#fff"/>
      <path id="Path_3" data-name="Path 3" d="M67.921,364.185a.891.891,0,0,1-.041.188h0a.041.041,0,0,1-.03.034.071.071,0,0,1-.086-.034.041.041,0,0,1,0-.041.057.057,0,0,1,0-.023v-.056h0a.027.027,0,0,1,0-.019c-.293-1.086-.406-2.218-.714-3.308s-.658-2.06-.868-3.12c-.132-.669-.6-4.026.88-3.605.658.184,1.105,1.128,1.353,1.7a6.854,6.854,0,0,1,.545,2.414C69.087,360.357,68.335,362.222,67.921,364.185Z" transform="translate(-59.033 -350.178)" fill="#37474f"/>
      <path id="Path_4" data-name="Path 4" d="M70.029,363.489a8,8,0,0,0-.237-2.278c-.068-.256-.376-1.5-.8-1.462-.271.019-.32.553-.342.729a7.194,7.194,0,0,0,.293,2.237,30.494,30.494,0,0,1,.545,4.481c0,.094-.03.192-.038.286s-.023.158-.034.237a.166.166,0,0,0,0,.083.363.363,0,0,0,0,.064.071.071,0,0,0,.086.034.439.439,0,0,1,.026-.184v.15h0a.29.29,0,0,1,.03-.158.1.1,0,0,1,0-.034v-.252A33.062,33.062,0,0,0,70.029,363.489Zm-.5,3.383c-.041-.88-.128-1.756-.252-2.632-.1-.7-.233-1.4-.376-2.094a6.683,6.683,0,0,1-.188-1.188c0-.3.03-1.44.613-.752a4.619,4.619,0,0,1,.575,2.218,11.68,11.68,0,0,1-.041,2.083c-.083.808-.214,1.59-.342,2.368Z" transform="translate(-60.666 -353.663)" fill="#fff"/>
      <path id="Path_5" data-name="Path 5" d="M62.814,384.7h0a.231.231,0,0,1-.06,0c-1.5-.075-3.508.068-4.759-.929a3.829,3.829,0,0,1-1.538-3.421c.331-1.387,2.207.278,2.7.68a45.868,45.868,0,0,1,3.688,3.586.062.062,0,0,0,0,.026h0C62.878,384.681,62.848,384.692,62.814,384.7Z" transform="translate(-53.038 -366.182)" fill="#37474f"/>
      <path id="Path_6" data-name="Path 6" d="M64.715,387.046l-.259-.165q-1.466-.929-2.88-1.981c-.233-.18-1.925-1.688-2.18-1.15-.154.327.406.989.583,1.214a4.7,4.7,0,0,0,1.128,1.023,12.163,12.163,0,0,0,3.353,1.06.963.963,0,0,1,.162.041h.026C64.7,387.079,64.731,387.068,64.715,387.046Zm-2.974-.857a4.669,4.669,0,0,1-1.3-.88c-.252-.237-1.128-1.128-.9-1.5.124-.2.229-.094.466.026a2.456,2.456,0,0,1,.32.184c.252.165.485.357.722.545.41.331.831.65,1.259.959q1.049.752,2.15,1.447A24.3,24.3,0,0,1,61.742,386.189Z" transform="translate(-54.891 -368.569)" fill="#fff"/>
      <path id="Path_7" data-name="Path 7" d="M76.284,376.407a8.9,8.9,0,0,1-2.579,4.511h-.03a.064.064,0,0,1-.075-.026.06.06,0,0,1,0-.085l0,0,.075-.079c.248-2.045.523-4.079.752-6.128.049-.485.429-3.56,1.376-3.06.583.312.62,1.571.669,2.139A8.951,8.951,0,0,1,76.284,376.407Z" transform="translate(-63.76 -360.987)" fill="#37474f"/>
      <path id="Path_8" data-name="Path 8" d="M75.765,376.849c-.049-.173-.139-.346-.331-.226-.376.229-.511,1.673-.575,2.075-.252,1.65-.643,3.237-1.038,4.85l-.1.41-.09.124a.068.068,0,0,0,.075.026v-.041c0-.015.083-.109.12-.165h0a10.564,10.564,0,0,0,1.5-2.9,9.824,9.824,0,0,0,.44-2A5.884,5.884,0,0,0,75.765,376.849Zm-1.929,6.94-.068.094a.689.689,0,0,1,.049-.165,29.286,29.286,0,0,0,.921-3.759c.109-.643.18-1.293.312-1.932.056-.271.188-1.045.414-1.169s.218.177.241.35a3.245,3.245,0,0,1,0,.47A10.365,10.365,0,0,1,73.837,383.789Z" transform="translate(-63.79 -364.169)" fill="#fff"/>
      <path id="Path_9" data-name="Path 9" d="M60.786,373.5h-.3v-.793c-.034-1.068-.079-2.135-.143-3.207-.034-.609-.079-1.214-.143-1.812v-.211a.466.466,0,0,0-.019-.158,13.016,13.016,0,0,0-1.034-3.925c-.192-.417-.4-.823-.62-1.226,0-.038-.041-.075-.064-.113a.074.074,0,0,0,0-.034l-.064-.12-.053-.086c-.7-1.226-1.5-2.395-2.256-3.575-.218-.335-.436-.673-.647-1.015a.321.321,0,0,1-.038-.06.515.515,0,0,1-.049-.075c-.947-1.5-1.88-3.008-2.865-4.474-.041-.053.049-.1.086-.049.665.974,1.353,1.932,2.038,2.9l.271.376c.18.256.376.508.538.752.376.511.711,1.019,1.053,1.538a42.5,42.5,0,0,1,2.771,4.481c.06.117.117.233.173.353s.071.147.1.222.079.173.117.259a13.787,13.787,0,0,1,1.011,4.737l.023.342v.158a.609.609,0,0,0,0,.083v.113h0v.376c.045,1.068.071,2.135.094,3.2C60.759,372.821,60.774,373.163,60.786,373.5Z" transform="translate(-50.592 -349.171)" fill="#37474f"/>
      <path id="Path_10" data-name="Path 10" d="M48.672,348.539c-.823-1.109-1.88-3.383-.665-4.579a1.286,1.286,0,0,1,1.718-.128,3.674,3.674,0,0,1,1.128,2.064c.556,1.94.925,3.914,1.617,5.812a2.139,2.139,0,0,1,.079.2c0,.041-.049.056-.064.019s-.045-.124-.071-.184A16.891,16.891,0,0,1,48.672,348.539Z" transform="translate(-47.456 -343.562)" fill="#37474f"/>
      <path id="Path_11" data-name="Path 11" d="M54.786,354.5l-.019-.034a13.179,13.179,0,0,1-.752-1.432,28.217,28.217,0,0,1-1.184-3.173c-.132-.414-.722-2.451-1.451-1.639a1.848,1.848,0,0,0-.214,1.365A5.125,5.125,0,0,0,51.8,351.5a9.264,9.264,0,0,0,2.733,2.857l.147.109a.383.383,0,0,0,.03.053.169.169,0,0,0,0,.034.039.039,0,0,0,.019,0,.049.049,0,0,0,.063-.028v0A.026.026,0,0,0,54.786,354.5Zm-.32-.226a10.874,10.874,0,0,1-2.32-2.323,5.749,5.749,0,0,1-.752-1.541,4.511,4.511,0,0,1-.165-.752,3.229,3.229,0,0,1-.034-.571c0-.417.188-.872.436-.917s.406.124.609.474a3.673,3.673,0,0,1,.18.376,9.789,9.789,0,0,1,.342.962c.169.541.342,1.075.538,1.605.132.376.271.718.425,1.068a13.788,13.788,0,0,0,.9,1.752,1.743,1.743,0,0,1-.162-.132Z" transform="translate(-49.751 -346.354)" fill="#fff"/>
      <path id="Path_12" data-name="Path 12" d="M427.439,358.074c-.135,1.1-.346,2.188-.568,3.271-.128.613-.259,1.226-.376,1.842a4.485,4.485,0,0,0-.154,2.053h0a.436.436,0,0,1,0,.094h0a.083.083,0,0,1-.143-.023v-.049h0a2.537,2.537,0,0,1-.237-.571,14.6,14.6,0,0,1-.545-1.586,13.771,13.771,0,0,1-.534-3.383,11.562,11.562,0,0,1,.32-3.049,6.043,6.043,0,0,1,1.068-2.594c.538-.553.985.331,1.128.778A7.675,7.675,0,0,1,427.439,358.074Z" transform="translate(-282.99 -350.014)" fill="#37474f"/>
      <path id="Path_13" data-name="Path 13" d="M427.123,358.84c-.4,0-.692,1.293-.835,1.85a11.214,11.214,0,0,0-.338,2.7,14.412,14.412,0,0,0,.827,4.782c.019.06.041.124.064.188h0v.041a.083.083,0,0,0,.1.053.086.086,0,0,0,.038-.027c-.026-.135-.045-.267-.06-.4s-.03-.244-.038-.376a19.16,19.16,0,0,1,.244-3.962C427.349,362.182,427.653,358.84,427.123,358.84Zm-.286,9.083c.019.18.049.353.079.53-.041-.128-.079-.256-.12-.376a16.124,16.124,0,0,1-.752-4.222,10.862,10.862,0,0,1,.485-3.673c.056-.177.346-1.256.594-1.2.173.038.214,1.011.218,1.034v.586c0,.4-.034.8-.068,1.207-.075.868-.2,1.737-.3,2.6A15.15,15.15,0,0,0,426.837,367.923Z" transform="translate(-283.659 -353.096)" fill="#fff"/>
      <path id="Path_14" data-name="Path 14" d="M435.7,371.037a10.643,10.643,0,0,1-3.252,3.474c-.688.5-1.395.974-2.09,1.462a11.211,11.211,0,0,0-1.8,1.387l-.071.075a2.889,2.889,0,0,0-.376.515.046.046,0,0,1-.034.023.451.451,0,0,1-.026.064m-.026,0a.45.45,0,0,1,0-.071h0a.048.048,0,0,1,0-.056v-.094a10.522,10.522,0,0,1,2.372-4.658,8.9,8.9,0,0,1,3.759-3.008c.376-.147,1.259-.553,1.65-.241s.053.823-.1,1.128Z" transform="translate(-284.942 -359.932)" fill="#37474f"/>
      <path id="Path_15" data-name="Path 15" d="M434.6,372.983c-.346-.35-1.376.511-1.632.714a16.732,16.732,0,0,0-2.128,2.068,15.336,15.336,0,0,0-2.718,3.94h0l-.034.045v.094a.045.045,0,0,0,0,.056l.053-.06c.128-.158.263-.308.4-.459a.7.7,0,0,1,.071-.075,32.831,32.831,0,0,1,3.18-2.808,16.085,16.085,0,0,0,2.117-2.056C434.067,374.239,434.9,373.276,434.6,372.983Zm-.32.752a15.435,15.435,0,0,1-3.643,3.538,17.275,17.275,0,0,0-2.421,2.3,16.243,16.243,0,0,1,2.511-3.534,21.948,21.948,0,0,1,1.726-1.778,9.412,9.412,0,0,1,1.049-.838,3.382,3.382,0,0,1,.711-.376c.485-.135.226.459.068.707Z" transform="translate(-284.991 -361.871)" fill="#fff"/>
      <path id="Path_16" data-name="Path 16" d="M421.139,384.922a.087.087,0,0,1-.075.041l.019.026a.026.026,0,0,1,0,.037h0a.03.03,0,0,1-.038,0,14.577,14.577,0,0,1-3.342-4.887,7.552,7.552,0,0,1-.485-2.41c0-.564-.045-1.7.436-2.109.97-.827,1.857,2.677,1.989,3.207.241.962.4,1.944.62,2.91.244,1.06.564,2.1.88,3.135A.071.071,0,0,1,421.139,384.922Z" transform="translate(-278.209 -363.49)" fill="#37474f"/>
      <path id="Path_17" data-name="Path 17" d="M422.222,387.129c-.053-.09-.105-.18-.154-.271a16.363,16.363,0,0,1-1.748-4.707,14.883,14.883,0,0,0-.647-2.451c-.079-.2-.32-.94-.643-.564a5.786,5.786,0,0,0,.038,1.977,10.372,10.372,0,0,0,.789,2.406,17.038,17.038,0,0,0,2.226,3.617l.079.1a.026.026,0,0,0,0-.037h0l-.019-.026A.086.086,0,0,0,422.222,387.129Zm-1.974-3.008a12.316,12.316,0,0,1-.932-2.338,8.54,8.54,0,0,1-.2-.981,5.438,5.438,0,0,1-.068-.782c0-.639.056-.8.165-.827s.158.056.346.436a4.462,4.462,0,0,1,.274.778c.1.376.184.752.267,1.128.165.752.32,1.53.541,2.278a12.741,12.741,0,0,0,1.35,3.064,19.645,19.645,0,0,1-1.741-2.759Z" transform="translate(-279.292 -365.697)" fill="#fff"/>
      <path id="Path_18" data-name="Path 18" d="M432.438,389.187a4.822,4.822,0,0,1-.891,1.853c-.808,1.128-1.838,2.041-2.718,3.094-.132.154-.259.316-.376.481a1.627,1.627,0,0,1-.113.229l.041-.241h0a19.376,19.376,0,0,1,1.18-4.1,10.022,10.022,0,0,1,1.289-2.015c.248-.282.835-.891,1.274-.752S432.505,388.834,432.438,389.187Z" transform="translate(-285.151 -371.117)" fill="#37474f"/>
      <path id="Path_19" data-name="Path 19" d="M431.7,390.395c-.474-.293-1.688,1.88-1.853,2.158a13.986,13.986,0,0,0-1.387,3.312c-.038.132-.071.259-.1.395l-.049.241s.1-.211.117-.233l.064-.083a4.07,4.07,0,0,1,.32-.376c.526-.789,1.068-1.575,1.583-2.376a12.907,12.907,0,0,0,.981-1.808C431.434,391.463,431.908,390.519,431.7,390.395Zm-.135.609c-.673,1.88-2.041,3.383-3.086,5.056l-.049.083a.538.538,0,0,1,.041-.147,15.781,15.781,0,0,1,1.109-2.759,14.84,14.84,0,0,1,.932-1.556,7.777,7.777,0,0,1,.583-.808c.1-.105.376-.376.47-.342s.041.35.011.474Z" transform="translate(-285.132 -372.772)" fill="#fff"/>
      <path id="Path_20" data-name="Path 20" d="M440.339,347.351c-1.4,3.218-5.083,4.718-6.677,7.823h0c-.049.094-.094.192-.139.289a.064.064,0,0,1-.084.034.067.067,0,0,1-.021-.015.06.06,0,0,1,0-.056l.034-.068a16.78,16.78,0,0,1,1.97-5.639,8.492,8.492,0,0,1,3.436-3.654c.376-.2,1.109-.6,1.53-.282S440.512,346.952,440.339,347.351Z" transform="translate(-288.315 -344.874)" fill="#37474f"/>
      <path id="Path_21" data-name="Path 21" d="M439.075,350.427c-.177-.132-.447.03-.6.109a5.43,5.43,0,0,0-1.064.726,8.818,8.818,0,0,0-1.7,2.019,18.219,18.219,0,0,0-2,4.053c-.105.323-.2.65-.278.981a.62.62,0,0,1-.026.12.064.064,0,0,0,.089.017.069.069,0,0,0,.017-.017c.041-.094.086-.184.135-.278v-.026a10.616,10.616,0,0,1,1-1.835,24.591,24.591,0,0,1,2.1-2.489C437.045,353.472,439.692,350.882,439.075,350.427Zm-.226.752a12.144,12.144,0,0,1-1.662,2.015c-.583.65-1.169,1.293-1.741,1.951a12.305,12.305,0,0,0-1.229,1.677,9.576,9.576,0,0,0-.752,1.549,13.557,13.557,0,0,1,.549-1.613h0a24.317,24.317,0,0,1,1.357-2.711.1.1,0,0,0,.019-.034,11.133,11.133,0,0,1,1.553-2.162,6.118,6.118,0,0,1,1.1-.94c.462-.3.865-.492.981-.346s-.049.387-.177.609Z" transform="translate(-288.315 -347.815)" fill="#fff"/>
      <path id="Path_22" data-name="Path 22" d="M431.54,360.11c-.421.906-.823,1.827-1.222,2.752-.188.432-.376.865-.556,1.3v.026l-.2.47a28.7,28.7,0,0,0-1.647,4.353,13.279,13.279,0,0,0-.335,2.421v.252h0v.135a.55.55,0,0,0,0,.079c-.026.707,0,1.414,0,2.1.019.962.1,1.917.192,2.868a.613.613,0,0,0,0,.083v.32c.03.3.056.613.083.921h-.293a19.277,19.277,0,0,1-.353-2.835.32.32,0,0,1,0-.06v-.62c0-.274-.019-.549-.023-.82a20.111,20.111,0,0,1,.338-4.748.207.207,0,0,1,.03-.128.309.309,0,0,1,0-.053.74.74,0,0,1,.019-.09l.041-.147c.023-.086.049-.173.071-.256l.023-.079a31.47,31.47,0,0,1,1.62-3.91l.323-.688c.064-.128.124-.256.184-.376l.286-.579h0c.447-.906.914-1.8,1.357-2.711C431.491,360.039,431.562,360.065,431.54,360.11Z" transform="translate(-284.414 -353.859)" fill="#37474f"/>
    </g>
    <g id="freepik--Fence--inject-83" transform="translate(85.442 174.891)">
      <rect id="Rectangle_502" data-name="Rectangle 502" width="66.767" height="8.842" transform="translate(12.282 33.951)" fill="#407bff"/>
      <path id="Path_23" data-name="Path 23" d="M201.749,355.81l-4.846,8.842h-8.62l4.846-8.842Z" transform="translate(-175.745 -321.859)" fill="#ebebeb"/>
      <path id="Path_24" data-name="Path 24" d="M248.763,355.81l-4.846,8.842h-8.624l4.842-8.842Z" transform="translate(-205.082 -321.859)" fill="#ebebeb"/>
      <path id="Path_25" data-name="Path 25" d="M295.773,355.81l-4.846,8.842H282.3l4.846-8.842Z" transform="translate(-234.42 -321.859)" fill="#ebebeb"/>
      <path id="Path_26" data-name="Path 26" d="M342.783,355.81l-4.846,8.842h-8.624l4.846-8.842Z" transform="translate(-263.757 -321.859)" fill="#ebebeb"/>
      <path id="Path_27" data-name="Path 27" d="M319.744,339.928h9.184l-6.8-41.718h-9.18Z" transform="translate(-253.541 -285.913)" fill="#ebebeb"/>
      <path id="Path_28" data-name="Path 28" d="M189.474,339.928h9.184l-6.8-41.718h-9.184Z" transform="translate(-172.244 -285.913)" fill="#ebebeb"/>
      <path id="Path_29" data-name="Path 29" d="M329.744,339.928h9.184l-6.8-41.718h-9.18Z" transform="translate(-259.781 -285.913)" fill="#c7c7c7"/>
      <path id="Path_30" data-name="Path 30" d="M189.474,339.928h9.184l-6.8-41.718h-9.184Z" transform="translate(-172.244 -285.913)" fill="#c7c7c7"/>
      <path id="Path_31" data-name="Path 31" d="M170.914,298.22l-.571,3.511-.613,3.774-5.617,34.429h-9.18l5.613-34.429.617-3.774.571-3.511Z" transform="translate(-154.933 -285.919)" fill="#ebebeb"/>
      <path id="Path_32" data-name="Path 32" d="M182.9,298.22c-.485,3.485-1,6.966-1.53,10.447l-1.62,10.436-1.7,10.421-.876,5.207-.914,5.2.752-5.226.782-5.226,1.617-10.432,1.7-10.425C181.688,305.156,182.274,301.682,182.9,298.22Z" transform="translate(-168.244 -285.919)" fill="#c7c7c7"/>
      <path id="Path_33" data-name="Path 33" d="M179.66,307.56l-.613,3.774h-9.184l.617-3.774Z" transform="translate(-164.25 -291.748)" fill="#c7c7c7"/>
      <path id="Path_34" data-name="Path 34" d="M311.178,298.22l-.571,3.511-.617,3.774-5.613,34.429h-9.184l5.617-34.429.617-3.774L302,298.22Z" transform="translate(-242.464 -285.919)" fill="#ebebeb"/>
      <path id="Path_35" data-name="Path 35" d="M323.088,298.22c-.485,3.485-1,6.966-1.53,10.447l-1.62,10.436-1.7,10.421-.876,5.207-.914,5.2.752-5.226.782-5.226,1.62-10.432,1.7-10.425C321.878,305.156,322.464,301.682,323.088,298.22Z" transform="translate(-255.731 -285.919)" fill="#c7c7c7"/>
      <path id="Path_36" data-name="Path 36" d="M319.93,307.56h-9.18l-.617,3.774h9.18Z" transform="translate(-251.787 -291.748)" fill="#c7c7c7"/>
      <rect id="Rectangle_503" data-name="Rectangle 503" width="66.767" height="8.842" transform="translate(0.906 35.538)" fill="#407bff"/>
      <path id="Path_37" data-name="Path 37" d="M171.489,360.03l-4.846,8.842h-8.62l4.846-8.842Z" transform="translate(-156.861 -324.492)" fill="#ebebeb"/>
      <path id="Path_38" data-name="Path 38" d="M218.5,360.03l-4.846,8.842h-8.624l4.846-8.842Z" transform="translate(-186.198 -324.492)" fill="#ebebeb"/>
      <path id="Path_39" data-name="Path 39" d="M265.513,360.03l-4.846,8.842h-8.624l4.846-8.842Z" transform="translate(-215.535 -324.492)" fill="#ebebeb"/>
      <path id="Path_40" data-name="Path 40" d="M312.523,360.03l-4.846,8.842h-8.624l4.846-8.842Z" transform="translate(-244.873 -324.492)" fill="#ebebeb"/>
      <rect id="Rectangle_504" data-name="Rectangle 504" width="78.759" height="15.816" transform="translate(0.906 0)" fill="#407bff"/>
      <path id="Path_41" data-name="Path 41" d="M174.03,265.5l-5.714,15.812H158.143l5.718-15.812Z" transform="translate(-156.936 -265.5)" fill="#ebebeb"/>
      <path id="Path_42" data-name="Path 42" d="M229.484,265.5l-5.714,15.812H213.593l5.718-15.812Z" transform="translate(-191.54 -265.5)" fill="#ebebeb"/>
      <path id="Path_43" data-name="Path 43" d="M284.94,265.5l-5.714,15.812H269.053l5.718-15.812Z" transform="translate(-226.151 -265.5)" fill="#ebebeb"/>
      <path id="Path_44" data-name="Path 44" d="M340.394,265.5l-5.714,15.812H324.5l5.718-15.812Z" transform="translate(-260.755 -265.5)" fill="#ebebeb"/>
    </g>
    <g id="freepik--Floor--inject-83" transform="translate(43.715 228.639)">
      <path id="Path_45" data-name="Path 45" d="M43.94,408.658l19.365-.09,19.368-.034,38.733-.064,38.733.064,19.368.034,19.365.09-19.365.094-19.368.034-38.733.06-38.733-.064-19.368-.03Z" transform="translate(-43.94 -408.47)" fill="#263238"/>
    </g>
    <g id="freepik--Cones--inject-83" transform="translate(43.58 208.226)">
      <path id="Path_46" data-name="Path 46" d="M64.7,373.566H50.67l5.214-18.135a1.91,1.91,0,0,1,3.59,0Z" transform="translate(-48.005 -354.172)" fill="#407bff"/>
      <path id="Path_47" data-name="Path 47" d="M67,366.923H60.01l1.1-3.823h4.8Z" transform="translate(-53.833 -359.744)" fill="#ebebeb"/>
      <path id="Path_48" data-name="Path 48" d="M65.8,383.8H55.16l1.1-3.827H64.7Z" transform="translate(-50.807 -370.272)" fill="#ebebeb"/>
      <path id="Path_49" data-name="Path 49" d="M64.7,377.1H50.67l4.962-17.267c-.425,11.173,6.545,14.68,8.53,15.451Z" transform="translate(-48.005 -357.703)" opacity="0.1" style="isolation: isolate"/>
      <rect id="Rectangle_505" data-name="Rectangle 505" width="19.346" height="1.207" transform="translate(0 19.394)" fill="#407bff"/>
      <path id="Path_50" data-name="Path 50" d="M415.259,373.566H401.24l5.214-18.135a1.91,1.91,0,0,1,3.59,0Z" transform="translate(-266.782 -354.172)" fill="#407bff"/>
      <path id="Path_51" data-name="Path 51" d="M417.576,366.923h-7l1.1-3.823h4.8Z" transform="translate(-272.61 -359.744)" fill="#ebebeb"/>
      <path id="Path_52" data-name="Path 52" d="M416.373,383.8H405.73l1.1-3.827h8.444Z" transform="translate(-269.584 -370.272)" fill="#ebebeb"/>
      <path id="Path_53" data-name="Path 53" d="M415.255,377.1H401.24L406.2,359.83c-.425,11.173,6.545,14.68,8.53,15.451Z" transform="translate(-266.782 -357.703)" opacity="0.1" style="isolation: isolate"/>
      <rect id="Rectangle_506" data-name="Rectangle 506" width="19.346" height="1.207" transform="translate(131.793 19.394)" fill="#407bff"/>
    </g>
    <g id="freepik--Character--inject-83" transform="translate(101.323 120.307)">
      <path id="Path_54" data-name="Path 54" d="M198.244,383.347c.693.223,21.116-.032,21.861-.52.289-.179-1.155-19.4-1.155-19.4l-13.2.13,1.4,12.858s-7.507,3.465-8.27,4.1S197.554,383.127,198.244,383.347Z" transform="translate(-197.649 -272.032)" fill="#eb9481"/>
      <path id="Path_55" data-name="Path 55" d="M198.246,401.22c.69.223,21.116-.032,21.858-.52.133-.081-.1-4.207-.39-8.628H206.92l.242,2.218s-7.508,3.465-8.273,4.1S197.55,401,198.246,401.22Z" transform="translate(-197.648 -289.906)" fill="#fff"/>
      <path id="Path_56" data-name="Path 56" d="M197.548,404.707c.727.24,21.35.044,22.138-.465.289-.191-.136-6.991-.136-7.031H206.794v.228s-7.929,3.635-8.735,4.288S196.818,404.473,197.548,404.707Z" transform="translate(-197.176 -293.112)" fill="#263238"/>
      <path id="Path_57" data-name="Path 57" d="M198.219,414.7c3.505-.118,17.651-.266,21.125-.118.029,0,.029.02,0,.023-3.465.194-17.614.228-21.125.153C198.144,414.756,198.144,414.7,198.219,414.7Z" transform="translate(-197.792 -303.914)" fill="#37474f"/>
      <path id="Path_58" data-name="Path 58" d="M218.671,397.168a4.891,4.891,0,0,1,4.129.9c.04.038,0,.1-.058.081a19.456,19.456,0,0,0-4.065-.806.089.089,0,0,1-.006-.176Z" transform="translate(-210.546 -293.016)" fill="#37474f"/>
      <path id="Path_59" data-name="Path 59" d="M216.039,398.788a4.89,4.89,0,0,1,4.129.9c.041.037,0,.1-.058.081a19.458,19.458,0,0,0-4.063-.806.09.09,0,0,1-.009-.176Z" transform="translate(-208.904 -294.028)" fill="#37474f"/>
      <path id="Path_60" data-name="Path 60" d="M213.4,400.409a4.89,4.89,0,0,1,4.129.9c.043.038,0,.1-.058.081a19.45,19.45,0,0,0-4.062-.806.089.089,0,0,1-.009-.176Z" transform="translate(-207.26 -295.039)" fill="#37474f"/>
      <path id="Path_61" data-name="Path 61" d="M216.749,281.521h14.218s-2.382-32.949-2.31-33.391c.145-.742.982-4.1,2.1-8.492.35-1.371.728-2.844,1.12-4.372,1.06-4.129,2.226-8.642,3.243-12.569,1.527-5.882,2.72-10.453,2.72-10.453H225.8s-1.406,4.45-3.176,10.239c-2.888,9.408-6.733,22.355-7.115,25.5C215.06,251.8,216.749,281.521,216.749,281.521Z" transform="translate(-208.569 -177.682)" fill="#37474f"/>
      <path id="Path_62" data-name="Path 62" d="M220.642,389.447c2.166-.043,1.542-.06,3.711-.081,1.06,0,8.027-.072,9.018.092a.023.023,0,0,1,.014.03.023.023,0,0,1-.014.014c-.991.165-7.958.1-9.018.092-2.168-.02-1.545-.038-3.711-.084a.032.032,0,0,1-.032-.032A.032.032,0,0,1,220.642,389.447Z" transform="translate(-211.8 -288.206)" fill="#263238"/>
      <path id="Path_63" data-name="Path 63" d="M254.255,216.593l-2.209,7.779-2.154,7.8c-.719,2.6-1.409,5.2-2.1,7.8s-1.372,5.215-2.021,7.836c-.153.659-.309,1.314-.439,1.978-.035.167-.058.338-.089.508,0,.092-.015.194-.015.289l.02.251,1.888,28.7v.086l.159-.1L245.561,250.8l-.017-.251v-.222c.032-.162.052-.324.087-.488.13-.656.289-1.311.444-1.967,1.262-5.235,2.671-10.441,4.042-15.653Z" transform="translate(-227.162 -180.395)" fill="#263238"/>
      <path id="Path_64" data-name="Path 64" d="M243.8,212.245c.835,6.468,3.861,17.215,5.021,26.014,2.717-10.661,6.731-26.014,6.731-26.014Z" transform="translate(-226.275 -177.682)" fill="#263238"/>
      <path id="Path_65" data-name="Path 65" d="M286.7,383.386c-.7.22-17.853.289-18.6-.2-.289-.185-.387-3.075-.407-6.575v-.11c0-.722-1.666-12.838-1.666-12.838l12.962.266,1.5,12.725v.217s4.839,3.035,5.6,3.667S287.393,383.172,286.7,383.386Z" transform="translate(-240.142 -272.175)" fill="#eb9481"/>
      <path id="Path_66" data-name="Path 66" d="M269.812,392.073c.147,1.155.24,1.984.24,2.157v.11c.023,3.5.124,6.39.41,6.575.742.5,17.9.422,18.6.2s.133-2.223-.624-2.853-5.6-3.656-5.6-3.656v-.217l-.274-2.31Z" transform="translate(-242.505 -289.906)" fill="#fff"/>
      <path id="Path_67" data-name="Path 67" d="M289.944,404.707c-.728.24-19.179.044-19.964-.465-.3-.191.133-6.991.133-7.031h12.757v.228s5.755,3.635,6.561,4.288S290.671,404.473,289.944,404.707Z" transform="translate(-242.543 -293.112)" fill="#263238"/>
      <path id="Path_68" data-name="Path 68" d="M291.621,414.7c-3.505-.118-15.48-.266-18.953-.118-.026,0-.026.02,0,.023,3.465.194,15.448.228,18.953.153C291.693,414.756,291.7,414.7,291.621,414.7Z" transform="translate(-244.275 -303.914)" fill="#37474f"/>
      <path id="Path_69" data-name="Path 69" d="M292.79,397.831a6.817,6.817,0,0,0-5.342.479c-.055.038,0,.11.07.1a27.136,27.136,0,0,1,5.252-.384.1.1,0,0,0,.02-.2Z" transform="translate(-253.497 -293.302)" fill="#37474f"/>
      <path id="Path_70" data-name="Path 70" d="M296.07,400a6.8,6.8,0,0,0-5.342.482c-.055.035,0,.107.069.1a27.651,27.651,0,0,1,5.252-.384.1.1,0,1,0,.02-.2Z" transform="translate(-255.544 -294.654)" fill="#37474f"/>
      <path id="Path_71" data-name="Path 71" d="M299.316,402.141a6.8,6.8,0,0,0-5.339.482c-.055.038,0,.11.069.1a27.619,27.619,0,0,1,5.27-.375.1.1,0,0,0,0-.2Z" transform="translate(-257.572 -295.991)" fill="#37474f"/>
      <path id="Path_72" data-name="Path 72" d="M243.8,212.245s1.825,11.131,1.949,11.489c0,0,.679.32,1.9.886l4.992,56.848,14.279.058-7.542-69.282Z" transform="translate(-226.275 -177.682)" fill="#37474f"/>
      <path id="Path_73" data-name="Path 73" d="M268.585,389.487c2.18-.035,1.553-.057,3.736-.069,1.068,0,8.085-.035,9.078.133a.023.023,0,0,1,.023.023.023.023,0,0,1-.023.023c-1,.159-8.013.07-9.081.055-2.18-.032-1.553-.046-3.733-.1a.032.032,0,0,1,0-.064Z" transform="translate(-241.719 -288.247)" fill="#263238"/>
      <path id="Path_74" data-name="Path 74" d="M247.228,241.881a26.645,26.645,0,0,1,4.089,2.139.047.047,0,1,1-.043.084h0c-1.377-.67-2.783-1.314-4.12-2.059a.092.092,0,0,1,.075-.165Z" transform="translate(-228.341 -196.175)" fill="#263238"/>
      <path id="Path_75" data-name="Path 75" d="M248.7,224.888c.225,1.331.349,2.685.5,4.028.038.32.075.644.11.964a1.872,1.872,0,0,0,.231.846,2.663,2.663,0,0,0,1.279.867c.055.023.032.11-.026.089a3.1,3.1,0,0,1-1.36-.716,2.873,2.873,0,0,1-.479-1.732,37.145,37.145,0,0,1-.315-4.349C248.644,224.862,248.7,224.853,248.7,224.888Z" transform="translate(-229.295 -185.557)" fill="#263238"/>
      <path id="Path_76" data-name="Path 76" d="M253.037,225.974c.049.959.156,1.917.234,2.888q.06.706.1,1.418c.029.474.084.973.069,1.444a.029.029,0,0,1-.058,0c-.081-.453-.089-.93-.127-1.389s-.075-.97-.1-1.444c-.055-.97-.081-1.946-.168-2.914A.023.023,0,0,1,253.037,225.974Z" transform="translate(-232.008 -186.236)" fill="#263238"/>
      <path id="Path_77" data-name="Path 77" d="M254.827,248.959l.765,6.531.8,6.529,1.643,13.048,2.916,25.476-2.613-25.514-1.712-13.043-.884-6.517Z" transform="translate(-233.154 -200.594)" fill="#263238"/>
      <path id="Path_78" data-name="Path 78" d="M224.509,163.2c-6.869,5.639-14.657,16-13.037,19.923,1.091,2.636,8.729-4.94,8.752-5.379.017-.332,4.12-8.18,6.6-12.959S225.944,162.025,224.509,163.2Z" transform="translate(-205.962 -146.176)" fill="#eb9481"/>
      <path id="Path_79" data-name="Path 79" d="M224.509,163.2c-6.869,5.639-14.657,16-13.037,19.923,1.091,2.636,8.729-4.94,8.752-5.379.017-.332,4.12-8.18,6.6-12.959S225.944,162.025,224.509,163.2Z" transform="translate(-205.962 -146.176)" fill="#407bff"/>
      <path id="Path_80" data-name="Path 80" d="M234.354,164.928c-2.48,4.776-6.583,12.627-6.6,12.959a23.212,23.212,0,0,1-4.429,4.192l11.746-20.074C235.4,162.269,235.313,163.1,234.354,164.928Z" transform="translate(-213.492 -146.33)" fill="#000102" opacity="0.1" style="isolation: isolate"/>
      <path id="Path_81" data-name="Path 81" d="M237.856,184.85h17.871a5.152,5.152,0,0,0,.577-2.082c-.323-2.209-5.6-18.671-8.059-21.457-1.392-1.582-4.585-1.037-5.356,0-3.3,4.476-5.775,18.364-5.827,21.566A5.362,5.362,0,0,0,237.856,184.85Z" transform="translate(-222.067 -145.277)" fill="#407bff"/>
      <path id="Path_82" data-name="Path 82" d="M254.514,171.9l-1-1.7-1.089,1.337.358,1.247,1.155.081Z" transform="translate(-231.653 -151.444)" fill="#263238"/>
      <path id="Path_83" data-name="Path 83" d="M251.238,177.156l.592,12.76-2.235,3.794-1.5-3.939,1.984-12.7Z" transform="translate(-228.955 -155.734)" fill="#263238"/>
      <path id="Path_84" data-name="Path 84" d="M252.877,170.2c-.124.867-.231,1.733-.335,2.619s-.208,1.732-.289,2.619c-.185,1.747-.358,3.5-.471,5.25s-.2,3.505-.191,5.261c0,.866.038,1.756.124,2.627a11.928,11.928,0,0,0,.479,2.6,17.12,17.12,0,0,1-.771-5.2c-.058-1.733.029-3.523.142-5.281s.3-3.506.523-5.252c.112-.867.231-1.733.361-2.6S252.718,171.068,252.877,170.2Z" transform="translate(-231.019 -151.444)" fill="#263238"/>
      <path id="Path_85" data-name="Path 85" d="M262.415,187.783h-.035l-2.094-.73-.306-3.09,3.548-.159.3,3.023Zm-2-.849,1.972.69,1.291-.866-.289-2.8-3.26.147Z" transform="translate(-236.37 -159.933)" fill="#000102" opacity="0.1" style="isolation: isolate"/>
      <path id="Path_86" data-name="Path 86" d="M244.593,187.767l-.987-.982.208-3.02,2.474.165-.208,3.078Zm-.84-1.039.867.866,1.32-.673.193-2.853-2.186-.144Z" transform="translate(-226.151 -159.909)" fill="#000102" opacity="0.1" style="isolation: isolate"/>
      <path id="Path_87" data-name="Path 87" d="M246.88,182.332l-2.345-.219.1-.482,2.241.234Z" transform="translate(-226.731 -158.576)" fill="#fff"/>
      <path id="Path_88" data-name="Path 88" d="M262.638,178.816a6.079,6.079,0,0,0,.121,1.033c.084.214.693.3.693.3s.532-.162.578-.326a6.5,6.5,0,0,0-.081-1.094.892.892,0,0,1-.742-.289A.622.622,0,0,1,262.638,178.816Z" transform="translate(-238.028 -156.587)" fill="#fff"/>
      <rect id="Rectangle_507" data-name="Rectangle 507" width="18.462" height="1.421" transform="translate(15.379 39.573)" fill="#263238"/>
      <path id="Path_89" data-name="Path 89" d="M251.6,226.725h-4.06v-2.252H251.6Zm-3.479-.577h2.9v-1.1h-2.9Z" transform="translate(-228.605 -185.313)" fill="#ebebeb"/>
      <path id="Path_90" data-name="Path 90" d="M268.02,163.594c7.218,5.2,15.63,15.05,14.258,19.057-.924,2.7-9.021-4.383-9.073-4.819-.038-.332-4.62-7.909-7.4-12.52S266.51,162.5,268.02,163.594Z" transform="translate(-239.353 -146.523)" fill="#eb9481"/>
      <path id="Path_91" data-name="Path 91" d="M268.02,163.594c7.218,5.2,15.63,15.05,14.258,19.057-.924,2.7-9.021-4.383-9.073-4.819-.038-.332-4.62-7.909-7.4-12.52S266.51,162.5,268.02,163.594Z" transform="translate(-239.353 -146.523)" fill="#407bff"/>
      <path id="Path_92" data-name="Path 92" d="M270.626,175.4c.577.852,1.115,1.733,1.655,2.6s1.066,1.75,1.588,2.63,1.033,1.767,1.533,2.662l.745,1.346c.24.453.488.9.719,1.363-.289-.424-.557-.866-.837-1.288l-.8-1.311c-.543-.866-1.068-1.75-1.591-2.63s-1.033-1.77-1.53-2.665S271.1,176.313,270.626,175.4Z" transform="translate(-243.013 -154.689)" fill="#263238"/>
      <path id="Path_93" data-name="Path 93" d="M270.941,177.944a7.354,7.354,0,0,1,.577.6l.289.309c.1.1.191.2.289.315a2.462,2.462,0,0,1-.67-.526A2.85,2.85,0,0,1,270.941,177.944Z" transform="translate(-243.21 -156.276)" fill="#263238"/>
      <rect id="Rectangle_508" data-name="Rectangle 508" width="37.561" height="2.09" transform="translate(7.801 39.189) rotate(-34.007)" fill="#263238"/>
      <rect id="Rectangle_509" data-name="Rectangle 509" width="2.088" height="7.144" transform="matrix(0.832, -0.555, 0.555, 0.832, 13.379, 38.373)" fill="#263238"/>
      <path id="Path_94" data-name="Path 94" d="M212.21,202.957c1.857.687,3.032.162,10.219-3,.993-.439.577-7.842-.577-7.874-1.833-.052-7.262,2.821-7.623,3.038C211.182,196.954,210.949,202.492,212.21,202.957Z" transform="translate(-206.109 -165.099)" fill="#eb9481"/>
      <path id="Path_95" data-name="Path 95" d="M242.422,196.683a.91.91,0,0,1-1.109.719,1.733,1.733,0,0,1,.228,1.155c-.142.7-1.3.783-1.3.783a2.158,2.158,0,0,1,.046,1.259c-.2.655-1.357.906-1.357.906a1.873,1.873,0,0,1-.655,1.132c-.956.728-2.674.087-3.754-.329-1.62-.615-3.82-2.573-4.383-2.934l1.92-7.017a4.933,4.933,0,0,1,2-.266,21.729,21.729,0,0,1,5.229,1.3C240.58,193.986,242.59,195.787,242.422,196.683Z" transform="translate(-217.749 -165.096)" fill="#eb9481"/>
      <path id="Path_96" data-name="Path 96" d="M254.429,202.634a15.267,15.267,0,0,0-3.22-1.963c-.026,0-.046.029-.02.04,1.117.577,2.111,1.357,3.2,1.972a.03.03,0,0,0,.042-.007A.03.03,0,0,0,254.429,202.634Z" transform="translate(-230.876 -170.459)" fill="#263238"/>
      <path id="Path_97" data-name="Path 97" d="M251.44,208.695a3.149,3.149,0,0,0-.762-.418c-.289-.13-.56-.254-.846-.376q-.849-.364-1.732-.679c-.026,0-.046.026-.02.038.577.242,1.129.491,1.683.756.289.13.554.266.832.4a4.087,4.087,0,0,0,.8.352C251.443,208.778,251.475,208.721,251.44,208.695Z" transform="translate(-228.935 -174.547)" fill="#263238"/>
      <path id="Path_98" data-name="Path 98" d="M248.367,214.948a2.289,2.289,0,0,0-.708-.341l-.783-.318c-.52-.214-1.039-.43-1.55-.661-.026,0-.046.026-.02.038.52.239,1.034.485,1.556.719l.771.341a2.168,2.168,0,0,0,.722.248.015.015,0,0,0,.018-.011A.015.015,0,0,0,248.367,214.948Z" transform="translate(-227.204 -178.545)" fill="#263238"/>
      <path id="Path_99" data-name="Path 99" d="M219.183,193.159l-1.732,10.106s-4.874,1.421-5.654.231-.511-4.842,1.38-7C214.7,194.747,219.183,193.159,219.183,193.159Z" transform="translate(-206.045 -165.771)" fill="#407bff"/>
      <path id="Path_100" data-name="Path 100" d="M225.289,192.259l3.136-1.12-1.637,10.649-3.006.7Z" transform="translate(-213.78 -164.51)" fill="#407bff"/>
      <path id="Path_101" data-name="Path 101" d="M225.316,195.8c-.052.777-.138,1.551-.228,2.324s-.2,1.542-.306,2.31-.234,1.536-.373,2.31L224.2,203.9c-.081.381-.15.765-.239,1.155.023-.39.066-.777.1-1.155l.13-1.155c.086-.774.2-1.542.306-2.31s.234-1.536.373-2.31S225.134,196.56,225.316,195.8Z" transform="translate(-213.89 -167.42)" fill="#263238"/>
      <path id="Path_102" data-name="Path 102" d="M225.178,191.546c0-.185.026-.367.043-.551l.055.046c-.511.226-1.028.422-1.545.633s-1.037.4-1.559.577l.1-.116-.046.312v.075l-.072.035-1.733.814c-.577.289-1.155.563-1.7.866a8.06,8.06,0,0,1,.779-.577c.269-.173.546-.335.826-.5.555-.323,1.129-.609,1.712-.883l-.081.11.043-.312v-.086l.081-.029q.786-.289,1.577-.537c.531-.162,1.057-.338,1.594-.485l.07-.02v.064C225.264,191.187,225.218,191.366,225.178,191.546Z" transform="translate(-210.616 -164.371)" fill="#263238"/>
      <path id="Path_103" data-name="Path 103" d="M220.126,197.264A1.5,1.5,0,0,1,220.7,197a1.544,1.544,0,0,1,.629-.026c-.1.038-.2.064-.289.092l-.289.075-.289.067C220.325,197.227,220.233,197.25,220.126,197.264Z" transform="translate(-211.498 -168.138)" fill="#263238"/>
      <path id="Path_104" data-name="Path 104" d="M291.735,199.543c-1.62,1.028-4.747,1.155-11.065-3.517-.866-.647,1.155-7.779,2.31-7.554,1.8.352,6.465,4.331,6.768,4.635C292.289,195.558,292.866,198.827,291.735,199.543Z" transform="translate(-249.15 -162.843)" fill="#eb9481"/>
      <path id="Path_105" data-name="Path 105" d="M264.963,176.909a.907.907,0,0,0,0,1.32,1.748,1.748,0,0,0-1.094.436c-.511.5.049,1.516.049,1.516a2.146,2.146,0,0,0-1.083.647c-.439.526-.023,1.632-.023,1.632a1.888,1.888,0,0,0-.595,1.155c-.089,1.2,1.383,2.293,2.324,2.983,1.4,1.022,4.242,1.8,4.848,2.079l4.839-5.437a4.908,4.908,0,0,0-.866-1.828,21.7,21.7,0,0,0-3.93-3.682C268.229,176.984,265.622,176.28,264.963,176.909Z" transform="translate(-237.763 -155.478)" fill="#eb9481"/>
      <path id="Path_106" data-name="Path 106" d="M269.754,180.683a15.049,15.049,0,0,1,3.4,1.634.023.023,0,0,1-.023.038c-1.089-.626-2.287-1.031-3.4-1.617C269.705,180.709,269.725,180.66,269.754,180.683Z" transform="translate(-242.447 -157.982)" fill="#263238"/>
      <path id="Path_107" data-name="Path 107" d="M266.858,185.846a3.389,3.389,0,0,1,.765.413c.263.165.52.332.774.505.511.347,1.017.7,1.507,1.077.023,0,0,.052-.02.038-.511-.344-1.025-.682-1.551-1-.263-.162-.526-.321-.791-.476a4.085,4.085,0,0,1-.728-.479.046.046,0,0,1,.043-.075Z" transform="translate(-240.628 -161.207)" fill="#263238"/>
      <path id="Path_108" data-name="Path 108" d="M263.829,192.114a2.3,2.3,0,0,1,.67.407l.7.5c.462.321.927.641,1.4.944.023.014,0,.052-.023.038-.482-.306-.97-.6-1.444-.915l-.7-.459a2.191,2.191,0,0,1-.6-.474.019.019,0,1,1,0-.037Z" transform="translate(-238.76 -165.119)" fill="#263238"/>
      <path id="Path_109" data-name="Path 109" d="M284.152,201.8l5.807-5.746a14.719,14.719,0,0,1,3.427,3.277c.93,1.545,1.79,3.52,1.008,4.666S290.12,205.97,284.152,201.8Z" transform="translate(-251.454 -167.578)" fill="#407bff"/>
      <path id="Path_110" data-name="Path 110" d="M280.4,199.408l-2.405-1.617,6.829-6.491,2.154,1.914Z" transform="translate(-247.61 -164.611)" fill="#407bff"/>
      <path id="Path_111" data-name="Path 111" d="M284.789,202.876c.471-.526.965-1.028,1.461-1.527s.993-.985,1.513-1.476,1.028-.959,1.556-1.423l.8-.693c.271-.225.537-.453.817-.673-.234.265-.482.517-.722.777l-.739.751c-.494.5-1,.988-1.513,1.47s-1.028.959-1.559,1.424S285.341,202.437,284.789,202.876Z" transform="translate(-251.852 -168.221)" fill="#263238"/>
      <path id="Path_112" data-name="Path 112" d="M294.859,191.667c.15-.165.306-.323.459-.482l.023-.023.029.023c.378.289.742.612,1.115.918l1.089.944.086.075-.086.084-.289.265v-.162a15.36,15.36,0,0,1,1.288,1.155,13.384,13.384,0,0,1,1.138,1.3c-.41-.4-.823-.8-1.247-1.184s-.866-.762-1.308-1.106l-.1-.072.092-.086c.092-.092.185-.182.289-.269v.156l-1.068-.967c-.347-.332-.7-.655-1.045-1h.055C295.2,191.384,295.032,191.529,294.859,191.667Z" transform="translate(-258.136 -164.525)" fill="#263238"/>
      <path id="Path_113" data-name="Path 113" d="M304.567,200.1a1.106,1.106,0,0,1,.462.141.945.945,0,0,1,.352.332,3.363,3.363,0,0,1-.424-.2A2.252,2.252,0,0,1,304.567,200.1Z" transform="translate(-264.194 -170.1)" fill="#263238"/>
      <path id="Path_114" data-name="Path 114" d="M278.241,207.752c-.092.115-.194.225-.289.338v-.067a20.737,20.737,0,0,1,2.42,1.591h-.084c.121-.089.242-.179.37-.263l.026-.017.018.015c.086.075.176.15.26.231l-.289-.17h.046c-.107.11-.217.214-.324.318l-.037.035-.049-.032a20.677,20.677,0,0,1-2.388-1.64l-.043-.035.038-.032C278.021,207.934,278.122,207.841,278.241,207.752Z" transform="translate(-247.538 -174.878)" fill="#263238"/>
      <path id="Path_115" data-name="Path 115" d="M252.814,157.558c1.06.367,3.092-1.1,3.965-2.374a22.519,22.519,0,0,0,.023-2.272c0-.731.029-1.542.1-2.281.017-.15-4.747.655-4.747.655a11.854,11.854,0,0,1,.159,2.888,1.812,1.812,0,0,1-.064.289v.049C252.089,155.083,251.789,157.2,252.814,157.558Z" transform="translate(-231.441 -139.219)" fill="#eb9481"/>
      <path id="Path_116" data-name="Path 116" d="M256.727,150.639c-.344,1.227-1.427,4.167-3.9,3.97a3.142,3.142,0,0,1-.473-.072.4.4,0,0,1,0-.052,1.612,1.612,0,0,0,.064-.289,11.871,11.871,0,0,0-.159-2.887S255.7,150.72,256.727,150.639Z" transform="translate(-231.548 -139.236)" fill="#263238"/>
      <path id="Path_117" data-name="Path 117" d="M253.51,130.686c.577,1.632-.133,6.43-1.271,7.536-1.646,1.6-4.424,1.851-5.809-.147-1.34-1.938-.318-8.174.959-9.188A4.125,4.125,0,0,1,253.51,130.686Z" transform="translate(-227.52 -125.208)" fill="#eb9481"/>
      <path id="Path_118" data-name="Path 118" d="M256.092,142.743s.023.02.02.035c-.055.321-.067.7.211.849v.017C255.968,143.543,255.988,143.04,256.092,142.743Z" transform="translate(-233.902 -134.308)" fill="#263238"/>
      <path id="Path_119" data-name="Path 119" d="M256.455,141.959c.526.032.421,1.083-.067,1.051S256.017,141.93,256.455,141.959Z" transform="translate(-233.93 -133.819)" fill="#263238"/>
      <path id="Path_120" data-name="Path 120" d="M250.509,142.244a.026.026,0,0,0-.026.026c-.023.323-.1.693-.41.774v.017C250.437,143.047,250.541,142.55,250.509,142.244Z" transform="translate(-230.187 -133.997)" fill="#263238"/>
      <path id="Path_121" data-name="Path 121" d="M249.762,141.251c-.52-.092-.667.95-.188,1.036S250.195,141.329,249.762,141.251Z" transform="translate(-229.694 -133.374)" fill="#263238"/>
      <path id="Path_122" data-name="Path 122" d="M257.221,139.389c-.145.041-.289.052-.427.078a.71.71,0,0,1-.45,0,.222.222,0,0,1-.1-.251.56.56,0,0,1,.456-.326.827.827,0,0,1,.577.075.237.237,0,0,1,.071.327A.234.234,0,0,1,257.221,139.389Z" transform="translate(-234.032 -131.89)" fill="#263238"/>
      <path id="Path_123" data-name="Path 123" d="M249.057,138.89a3.823,3.823,0,0,0,.416.124.721.721,0,0,0,.448.043.225.225,0,0,0,.127-.242.549.549,0,0,0-.419-.37.8.8,0,0,0-.577,0,.237.237,0,0,0,.006.445Z" transform="translate(-229.454 -131.593)" fill="#263238"/>
      <path id="Path_124" data-name="Path 124" d="M254.766,150.838c-.086.067-.173.165-.289.162a.832.832,0,0,1-.341-.115h-.017a.451.451,0,0,0,.4.22.35.35,0,0,0,.289-.263S254.778,150.826,254.766,150.838Z" transform="translate(-232.711 -139.357)" fill="#263238"/>
      <path id="Path_125" data-name="Path 125" d="M252.039,142.66c-.635-.159-1.392-.225-1.394-.263l.136-.745c-.1.035-.578.2-.578.07a16.8,16.8,0,0,1,.78-3.309.032.032,0,0,1,.04-.021.031.031,0,0,1,.021.021c-.127,1.039-.436,2.05-.577,3.1A1.823,1.823,0,0,1,251,141.4a7.088,7.088,0,0,1-.133.866,4.739,4.739,0,0,1,1.184.306C252.089,142.608,252.071,142.669,252.039,142.66Z" transform="translate(-230.268 -131.592)" fill="#263238"/>
      <path id="Path_126" data-name="Path 126" d="M254.208,134.951c-.711-.176-1.074-1.207-1.074-2.579,0-1.025-.289-2.544-1.334-2.746-1.155-.225-1.666.577-2.388.531-.661-.041-.707-.759-1.207-.759s-.826.577-1.112,1.513a5.669,5.669,0,0,1,1.06-2.506c1.88-1.493,5.457-.7,6.289,1.7A12.335,12.335,0,0,1,254.208,134.951Z" transform="translate(-228.327 -124.888)" fill="#263238"/>
      <path id="Path_127" data-name="Path 127" d="M263.558,143.243s1.054-1.559,1.761-1.186-.069,2.622-.886,2.942a.834.834,0,0,1-1.111-.4l-.015-.033Z" transform="translate(-238.446 -133.844)" fill="#eb9481"/>
      <path id="Path_128" data-name="Path 128" d="M265.819,143.846a2.1,2.1,0,0,0-1.071,1.34.462.462,0,0,1,.628-.18.456.456,0,0,1,.062.041c.014,0,0,.035-.017.032a.515.515,0,0,0-.563.191,2.515,2.515,0,0,0-.263.462c-.026.052-.118.026-.1-.035h0a1.914,1.914,0,0,1,1.326-1.871Z" transform="translate(-239.185 -134.984)" fill="#263238"/>
      <path id="Path_129" data-name="Path 129" d="M251.458,159.871l1.216,2.833,3.465-3.67,1.025,1.135s-3.338,5.775-3.367,5.53l-1.221-2.429L250.918,165l.049-4.285Z" transform="translate(-230.714 -144.475)" fill="#407bff"/>
      <path id="Path_130" data-name="Path 130" d="M250.6,165.248c.032-.708.046-1.421.11-2.125a.024.024,0,0,1,.049,0,39.963,39.963,0,0,1,.035,4.028h0c.07-.075,1.539-1.533,1.554-1.51.263.384,1.155,2.151,1.221,2.31.528-.918,2.555-4.262,3.176-5.134a.026.026,0,0,1,.037,0,.026.026,0,0,1,.007.021c-.465.97-3.145,5.472-3.176,5.458a27.245,27.245,0,0,1-1.279-2.564,20.024,20.024,0,0,1-1.732,1.851A22.208,22.208,0,0,1,250.6,165.248Z" transform="translate(-230.495 -146.831)" fill="#263238"/>
      <path id="Path_131" data-name="Path 131" d="M253.127,126.781c-.112.176-.843.046-.947.078l-.534.422a28.01,28.01,0,0,0-3.635-2.738,23.133,23.133,0,0,0-3.956-.081l-.358-1.55s-1.377-.982-1.444-1.692c-.043-.424,3.465-1.5,6.214-.5C251.941,122,253.74,125.823,253.127,126.781Z" transform="translate(-225.307 -120.307)" fill="#37474f"/>
      <path id="Path_132" data-name="Path 132" d="M254.58,131.01l-.537.419a28.033,28.033,0,0,0-3.635-2.735,23.133,23.133,0,0,0-3.956-.081s-.344-1.423-.358-1.55c0,0,3.771-.424,4.958.439A11.986,11.986,0,0,1,254.58,131.01Z" transform="translate(-227.704 -124.458)" fill="#263238"/>
      <path id="Path_133" data-name="Path 133" d="M249.12,126.019a8.135,8.135,0,0,0,.194,1c.084.214.621.341.621.341s.532-.162.578-.329a6.542,6.542,0,0,0-.078-1.094.9.9,0,0,1-.745-.289A.616.616,0,0,1,249.12,126.019Z" transform="translate(-229.592 -123.639)" fill="#407bff"/>
      <path id="Path_134" data-name="Path 134" d="M251.031,133.594a10.723,10.723,0,0,0-2.786-.918c-.979-.1-3.716-.265-4.478-.228-1.112.052-2.859-1.291-2.434-1.68.7-.653,5.163-.225,6.089.061C248.839,131.264,251.031,133.594,251.031,133.594Z" transform="translate(-224.691 -126.621)" fill="#37474f"/>
      <path id="Path_135" data-name="Path 135" d="M265.623,136.713a.289.289,0,1,0,0-.017C265.621,136.7,265.622,136.708,265.623,136.713Z" transform="translate(-239.889 -130.344)" fill="#ebebeb"/>
    </g>
  </g>
</svg>
