<svg xmlns="http://www.w3.org/2000/svg" width="107.704" height="112" viewBox="0 0 107.704 112">
  <g id="icon_02" data-name="icon 02" transform="translate(-52.16 -50.16)">
    <g id="freepik--background-complete--inject-5" transform="translate(52.859 50.16)">
      <rect id="Rectangle_518" data-name="Rectangle 518" width="8.765" height="3.046" transform="translate(4.891 98.738)" fill="#ebebeb"/>
      <rect id="Rectangle_519" data-name="Rectangle 519" width="8.765" height="3.046" transform="translate(0 102.578)" fill="#ebebeb"/>
      <rect id="Rectangle_520" data-name="Rectangle 520" width="8.765" height="3.046" transform="translate(50.615 74.789)" fill="#ebebeb"/>
      <rect id="Rectangle_521" data-name="Rectangle 521" width="8.765" height="3.046" transform="translate(45.727 78.63)" fill="#ebebeb"/>
      <rect id="Rectangle_522" data-name="Rectangle 522" width="8.765" height="3.046" transform="translate(40.857 74.789)" fill="#ebebeb"/>
      <rect id="Rectangle_523" data-name="Rectangle 523" width="8.765" height="3.046" transform="translate(97.537 102.578)" fill="#ebebeb"/>
      <rect id="Rectangle_524" data-name="Rectangle 524" width="8.765" height="3.046" transform="translate(92.648)" fill="#ebebeb"/>
      <rect id="Rectangle_525" data-name="Rectangle 525" width="8.765" height="3.046" transform="translate(97.537 3.841)" fill="#ebebeb"/>
      <rect id="Rectangle_526" data-name="Rectangle 526" width="8.765" height="3.046" transform="translate(0)" fill="#ebebeb"/>
      <path id="Path_136" data-name="Path 136" d="M154,379.875h50.727l1.056-20.815H152.94Z" transform="translate(-126.207 -274.978)" fill="#ebebeb"/>
      <path id="Path_137" data-name="Path 137" d="M276.6,374.747H255.392L255,367.52h22.073Zm-20.959-.256h20.725l.43-6.715H255.272Z" transform="translate(-200.487 -281.135)" fill="#dbdbdb"/>
      <path id="Path_138" data-name="Path 138" d="M278.6,407.143H258.617l-.327-6.533h20.72Zm-19.743-.256h19.495l.376-6.01h-20.17Z" transform="translate(-202.881 -305.218)" fill="#dbdbdb"/>
      <path id="Path_139" data-name="Path 139" d="M292.769,379.012H289.2l-.223-1.742h4.012Zm-3.34-.256h3.114l.158-1.23h-3.43Z" transform="translate(-225.217 -288.231)" fill="#dbdbdb"/>
      <path id="Path_140" data-name="Path 140" d="M292.769,411.165H289.2l-.223-1.745h4.012Zm-3.34-.256h3.114l.158-1.23h-3.43Z" transform="translate(-225.217 -311.63)" fill="#dbdbdb"/>
      <path id="Path_141" data-name="Path 141" d="M184.934,374.747H163.727l-.4-7.227H185.4Zm-20.959-.256H184.7l.43-6.715H163.6Z" transform="translate(-133.769 -281.135)" fill="#dbdbdb"/>
      <path id="Path_142" data-name="Path 142" d="M186.962,407.143H166.974l-.324-6.533h20.717Zm-19.743-.256h19.5l.376-6.01H166.919Z" transform="translate(-136.185 -305.218)" fill="#dbdbdb"/>
      <path id="Path_143" data-name="Path 143" d="M201.119,379.012h-3.563l-.226-1.742h4.012Zm-3.334-.256H200.9l.158-1.23h-3.435Z" transform="translate(-158.514 -288.231)" fill="#dbdbdb"/>
      <path id="Path_144" data-name="Path 144" d="M201.119,411.165h-3.563l-.226-1.745h4.012Zm-3.334-.256H200.9l.158-1.23h-3.435Z" transform="translate(-158.514 -311.63)" fill="#dbdbdb"/>
      <path id="Path_145" data-name="Path 145" d="M167.613,435.53l-.318,2.267-.64,4.557H165.4V435.53Z" transform="translate(-135.276 -330.633)" fill="#ebebeb"/>
      <path id="Path_146" data-name="Path 146" d="M167.613,435.53l-.318,2.267H165.4V435.53Z" transform="translate(-135.276 -330.633)" fill="#dbdbdb"/>
      <path id="Path_147" data-name="Path 147" d="M326.47,435.53l.318,2.267.64,4.557h1.255V435.53Z" transform="translate(-252.503 -330.633)" fill="#ebebeb"/>
      <path id="Path_148" data-name="Path 148" d="M326.47,435.53l.318,2.267h1.895V435.53Z" transform="translate(-252.503 -330.633)" fill="#dbdbdb"/>
    </g>
    <g id="freepik--Form--inject-5" transform="translate(59.689 52.479)">
      <rect id="Rectangle_527" data-name="Rectangle 527" width="97.973" height="69.005" transform="translate(0.076 0.071)" fill="#fff"/>
      <path id="Path_149" data-name="Path 149" d="M177.861,127.756c-.016.022-97.992.027-98.013.044s0-69.035-.027-69.049V58.68h.068s97.992.049,97.992.041S177.861,127.734,177.861,127.756Zm0,0s-.065-69.139,0-68.975L79.9,58.819l.071-.068s.019,69.182-.071,68.962l97.973.044Z" transform="translate(-79.82 -58.68)" fill="#263238"/>
      <rect id="Rectangle_528" data-name="Rectangle 528" width="97.973" height="2.493" transform="translate(0.076 0.071)" fill="#263238"/>
      <path id="Path_150" data-name="Path 150" d="M95.757,62.171a.5.5,0,1,1-.5-.5.5.5,0,0,1,.5.5Z" transform="translate(-90.686 -60.856)" fill="#407bff"/>
      <path id="Path_151" data-name="Path 151" d="M103.307,62.171a.5.5,0,1,1-.5-.5.5.5,0,0,1,.5.5Z" transform="translate(-96.181 -60.856)" fill="#fff"/>
      <path id="Path_152" data-name="Path 152" d="M110.827,62.171a.5.5,0,1,1-.5-.5A.5.5,0,0,1,110.827,62.171Z" transform="translate(-101.654 -60.856)" fill="#455a64"/>
      <rect id="Rectangle_529" data-name="Rectangle 529" width="97.945" height="8.163" transform="translate(0.076 2.561)" fill="#407bff"/>
      <path id="Path_153" data-name="Path 153" d="M103.735,86.5a.161.161,0,1,1-.318,0V84.809h0a.158.158,0,0,1,.286-.1l.942,1.3v-1.2a.161.161,0,0,1,.158-.158.163.163,0,0,1,.161.158V86.5a.163.163,0,0,1-.161.161.161.161,0,0,1-.12-.06v-.016l-.947-1.3Z" transform="translate(-96.992 -77.576)" fill="#fff"/>
      <path id="Path_154" data-name="Path 154" d="M111,86.441v-1.72a.158.158,0,0,1,.161-.161h.953a.163.163,0,0,1,.161.161.166.166,0,0,1-.161.163h-.789v.544H112a.163.163,0,0,1,0,.324h-.678V86.3h.789a.163.163,0,0,1,0,.324h-.945a.161.161,0,0,1-.169-.18Z" transform="translate(-102.51 -77.515)" fill="#fff"/>
      <path id="Path_155" data-name="Path 155" d="M119.743,84.861l-.713,1.7a.09.09,0,0,1-.016.027h0V86.6h-.022l-.024.016h-.112a.052.052,0,0,1-.027-.016h-.022v-.016h0v-.027l-.381-.9-.381.9v.027h0l-.019.016h-.016l-.024.016h0a.033.033,0,0,0-.024,0h-.193l-.027-.016h-.019a.092.092,0,0,1-.016-.016h0a.034.034,0,0,0-.014-.027l-.721-1.7a.161.161,0,0,1,.3-.122l.569,1.361.378-.9a.161.161,0,0,1,.15-.1.169.169,0,0,1,.152.1l.359.9.569-1.361a.161.161,0,0,1,.212-.084.158.158,0,0,1,.087.207Z" transform="translate(-106.849 -77.574)" fill="#fff"/>
      <path id="Path_156" data-name="Path 156" d="M132.328,86.441v-1.72a.158.158,0,0,1,.161-.161h.953a.163.163,0,0,1,0,.324h-.789v.544h.675a.163.163,0,0,1,0,.324h-.678v.7a.163.163,0,0,1-.163.161.158.158,0,0,1-.158-.171Z" transform="translate(-118.035 -77.515)" fill="#fff"/>
      <path id="Path_157" data-name="Path 157" d="M139.96,84.66a1.072,1.072,0,0,1,0,1.475.95.95,0,0,1-.7.313.977.977,0,0,1-.713-.313,1.089,1.089,0,0,1,0-1.475.974.974,0,0,1,.713-.31A.947.947,0,0,1,139.96,84.66Zm-.038.738a.751.751,0,0,0-.2-.509.626.626,0,0,0-.931,0,.738.738,0,0,0-.2.509.727.727,0,0,0,.2.506.615.615,0,0,0,.931,0A.738.738,0,0,0,139.922,85.4Z" transform="translate(-122.354 -77.363)" fill="#fff"/>
      <path id="Path_158" data-name="Path 158" d="M148.938,86.359a.163.163,0,0,1-.1.2.272.272,0,0,1-.063,0h0a.2.2,0,0,1-.114-.033.256.256,0,0,1-.093-.1.748.748,0,0,1-.063-.351.234.234,0,0,0-.035-.125.272.272,0,0,0-.087-.084.6.6,0,0,0-.163-.071h-.343v.634a.163.163,0,0,1-.163.161.161.161,0,0,1-.161-.161V84.721a.158.158,0,0,1,.161-.161h.506a.623.623,0,0,1,.4,1.105.494.494,0,0,1,.1.109.544.544,0,0,1,.1.313.769.769,0,0,0,0,.171A.171.171,0,0,1,148.938,86.359Zm-.408-1.173a.3.3,0,0,0-.313-.3h-.357V85.5h.357a.3.3,0,0,0,.313-.31Z" transform="translate(-129.114 -77.515)" fill="#fff"/>
      <path id="Path_159" data-name="Path 159" d="M156.136,84.72v1.72a.166.166,0,0,1-.163.161.158.158,0,0,1-.161-.161V85.223l-.419.572a.163.163,0,0,1-.133.068h0a.166.166,0,0,1-.133-.068l-.422-.572v1.228a.163.163,0,0,1-.324,0V84.72a.163.163,0,0,1,.161-.161h0a.161.161,0,0,1,.128.068l.58.817.58-.817a.161.161,0,0,1,.131-.068h0a.166.166,0,0,1,.177.161Z" transform="translate(-134.085 -77.515)" fill="#fff"/>
      <path id="Path_160" data-name="Path 160" d="M112.69,113.527V112.5a.1.1,0,0,1,.1-.1h.572a.1.1,0,0,1,0,.193h-.474v.318h.408a.1.1,0,0,1,0,.2h-.408v.419a.1.1,0,0,1-.1.1A.1.1,0,0,1,112.69,113.527Z" transform="translate(-103.743 -97.777)" fill="#263238"/>
      <path id="Path_161" data-name="Path 161" d="M116.694,112.566a.1.1,0,1,1-.188,0v-.038a.1.1,0,0,1,.188,0Zm0,.316v.68a.1.1,0,1,1-.188,0v-.691a.1.1,0,1,1,.188,0Z" transform="translate(-106.519 -97.813)" fill="#263238"/>
      <path id="Path_162" data-name="Path 162" d="M118.846,113.73a.093.093,0,0,1-.093.093.174.174,0,0,0-.1.033.3.3,0,0,0-.082.084.561.561,0,0,0-.071.147v.332a.1.1,0,0,1-.1.093.093.093,0,0,1-.093-.093v-.689a.09.09,0,0,1,.093-.09.093.093,0,0,1,.1.09h0a.221.221,0,0,1,.038-.033.37.37,0,0,1,.218-.068.087.087,0,0,1,.093.1Z" transform="translate(-107.833 -98.672)" fill="#263238"/>
      <path id="Path_163" data-name="Path 163" d="M120.949,114.369a.093.093,0,0,1,.131,0,.321.321,0,0,0,.193.076.229.229,0,0,0,.12-.033.068.068,0,0,0,.03-.052.022.022,0,0,0,0-.019l-.022-.019a.348.348,0,0,0-.139-.049h0a.664.664,0,0,1-.152-.046.272.272,0,0,1-.12-.1.221.221,0,0,1-.03-.112.245.245,0,0,1,.1-.191.359.359,0,0,1,.215-.065.446.446,0,0,1,.272.1.1.1,0,0,1,.027.131.093.093,0,0,1-.128.024.3.3,0,0,0-.161-.065.177.177,0,0,0-.106.033.049.049,0,0,0-.027.038.03.03,0,0,0,0,.016l.019.016a.367.367,0,0,0,.128.041h0a.6.6,0,0,1,.163.052.256.256,0,0,1,.125.1.207.207,0,0,1,.033.114.248.248,0,0,1-.109.2.405.405,0,0,1-.229.071.514.514,0,0,1-.31-.12.1.1,0,0,1-.027-.142Z" transform="translate(-109.74 -98.767)" fill="#263238"/>
      <path id="Path_164" data-name="Path 164" d="M124.542,112.814a.1.1,0,0,1-.1.1H124.4v.487a.1.1,0,0,1,.1.1.093.093,0,0,1-.1.1.2.2,0,0,1-.2-.193v-.487h-.049a.1.1,0,0,1-.1-.1.093.093,0,0,1,.1-.1h.049v-.253a.1.1,0,0,1,.1-.1.1.1,0,0,1,.1.1v.253h.044A.1.1,0,0,1,124.542,112.814Z" transform="translate(-112.018 -97.756)" fill="#263238"/>
      <path id="Path_165" data-name="Path 165" d="M129.15,113.564a.1.1,0,0,1-.191,0v-1.015h0a.1.1,0,0,1,.038-.082.1.1,0,0,1,.133.022l.563.781v-.719a.1.1,0,0,1,.191,0v1.015a.1.1,0,0,1-.169.06h0l-.558-.776Z" transform="translate(-115.584 -97.814)" fill="#263238"/>
      <path id="Path_166" data-name="Path 166" d="M134.323,114.118v.343a.093.093,0,0,1-.093.093.1.1,0,0,1-.093-.076.381.381,0,0,1-.231.076.4.4,0,0,1-.3-.128.455.455,0,0,1,0-.615.4.4,0,0,1,.528-.054.093.093,0,0,1,.185.019Zm-.185,0a.272.272,0,0,0-.068-.18.226.226,0,0,0-.163-.071.215.215,0,0,0-.163.071.272.272,0,0,0,0,.359.223.223,0,0,0,.163.068.234.234,0,0,0,.163-.068A.272.272,0,0,0,134.138,114.118Z" transform="translate(-118.881 -98.709)" fill="#263238"/>
      <path id="Path_167" data-name="Path 167" d="M138.554,114.017v.419a.093.093,0,0,1-.093.093.1.1,0,0,1-.1-.093v-.419a.18.18,0,0,0-.357,0v.427h0a.106.106,0,0,1-.087.054H137.9a.09.09,0,0,1-.074-.09v-.392h0v-.272a.093.093,0,0,1,.177-.044.689.689,0,0,0,.732-.052.365.365,0,0,1,.362.367v.414a.1.1,0,0,1-.188,0v-.414a.18.18,0,1,0-.359,0Z" transform="translate(-122.04 -98.687)" fill="#263238"/>
      <path id="Path_168" data-name="Path 168" d="M143.69,114.118a.433.433,0,0,1,.427-.438.419.419,0,0,1,.422.406h0v.016a.084.084,0,0,1-.09.071h-.558a.247.247,0,0,0,.229.193.289.289,0,0,0,.182-.044.1.1,0,0,1,.131,0,.082.082,0,0,1,0,.114.446.446,0,0,1-.313.114A.436.436,0,0,1,143.69,114.118Zm.191-.087h.5a.289.289,0,0,0-.272-.185.245.245,0,0,0-.223.193Z" transform="translate(-126.305 -98.709)" fill="#263238"/>
      <path id="Path_169" data-name="Path 169" d="M147.85,112.7l-.12.1a.068.068,0,0,1-.044.016.06.06,0,0,1-.057-.06.071.071,0,0,1,.041-.054l.152-.065-.152-.068a.058.058,0,1,1,.06-.1l.131.1-.016-.158a.055.055,0,1,1,.109,0l-.019.158.133-.1a.068.068,0,0,1,.044-.016.057.057,0,0,1,.016.112l-.152.068.152.065a.065.065,0,0,1,.041.057.057.057,0,0,1-.06.057.065.065,0,0,1-.041-.016l-.133-.1.019.158a.055.055,0,1,1-.109,0Z" transform="translate(-129.172 -97.734)" fill="#407bff"/>
      <rect id="Rectangle_530" data-name="Rectangle 530" width="37.544" height="3.726" transform="translate(8.765 17.075)" fill="#ebebeb"/>
      <path id="Path_170" data-name="Path 170" d="M112.69,145.367v-1.032a.093.093,0,0,1,.1-.1h.572a.1.1,0,0,1,.1.1.1.1,0,0,1-.1.1h-.474v.321h.408a.1.1,0,0,1,0,.193h-.408v.316h.474a.1.1,0,0,1,0,.193h-.583A.1.1,0,0,1,112.69,145.367Z" transform="translate(-103.743 -120.951)" fill="#263238"/>
      <path id="Path_171" data-name="Path 171" d="M117.174,145.816v.419a.093.093,0,0,1-.093.093.1.1,0,0,1-.1-.093v-.419a.18.18,0,0,0-.357,0v.433h0a.106.106,0,0,1-.087.054h-.019a.1.1,0,0,1-.073-.093V145.8h0v-.272a.093.093,0,0,1,.093-.1.087.087,0,0,1,.082.052.381.381,0,0,1,.188-.052.362.362,0,0,1,.272.122.357.357,0,0,1,.272-.122.365.365,0,0,1,.362.367v.414a.093.093,0,0,1-.185,0V145.8a.18.18,0,1,0-.359.019Z" transform="translate(-106.479 -121.817)" fill="#263238"/>
      <path id="Path_172" data-name="Path 172" d="M123.023,145.958v.343a.093.093,0,0,1-.182.019.411.411,0,0,1-.234.073.406.406,0,0,1-.3-.128.455.455,0,0,1,0-.615.406.406,0,0,1,.3-.131.414.414,0,0,1,.234.076.09.09,0,0,1,.09-.076.1.1,0,0,1,.093.1Zm-.185,0a.272.272,0,0,0-.068-.18.22.22,0,0,0-.163-.071.215.215,0,0,0-.163.071.283.283,0,0,0,0,.362.223.223,0,0,0,.163.068.229.229,0,0,0,.163-.068A.272.272,0,0,0,122.838,145.958Z" transform="translate(-110.657 -121.882)" fill="#263238"/>
      <path id="Path_173" data-name="Path 173" d="M126.7,144.406a.1.1,0,1,1-.188,0v-.038a.1.1,0,0,1,.188,0Zm0,.316v.683a.1.1,0,0,1-.188,0v-.683a.1.1,0,1,1,.188,0Z" transform="translate(-113.805 -120.986)" fill="#263238"/>
      <path id="Path_174" data-name="Path 174" d="M128.318,144.24a.1.1,0,0,1,.1.1v1.032a.1.1,0,0,1-.2,0v-1.032A.1.1,0,0,1,128.318,144.24Z" transform="translate(-115.046 -120.951)" fill="#263238"/>
      <path id="Path_175" data-name="Path 175" d="M129.9,144.547l-.131.1a.074.074,0,0,1-.044.016.06.06,0,0,1-.057-.057.063.063,0,0,1,.041-.054l.152-.068-.152-.068a.057.057,0,0,1,.019-.112.057.057,0,0,1,.041.019l.131.1-.016-.155a.057.057,0,0,1,.054-.068.054.054,0,0,1,.054.065l-.019.158.133-.1a.057.057,0,0,1,.044-.019.06.06,0,0,1,.057.057.057.057,0,0,1-.041.054l-.155.068.155.068a.057.057,0,0,1-.019.112.065.065,0,0,1-.041-.016l-.133-.1.019.155a.055.055,0,1,1-.109,0Z" transform="translate(-116.101 -120.914)" fill="#407bff"/>
      <rect id="Rectangle_531" data-name="Rectangle 531" width="80.56" height="3.726" transform="translate(8.765 25.742)" fill="#ebebeb"/>
      <path id="Path_176" data-name="Path 176" d="M112.49,176.051a.64.64,0,0,1,.64-.632.667.667,0,0,1,.406.136.106.106,0,0,1,.016.142.1.1,0,0,1-.139.019.438.438,0,0,0-.272-.1.463.463,0,0,0-.313.125.427.427,0,0,0-.128.3.422.422,0,0,0,.128.3.449.449,0,0,0,.313.125.443.443,0,0,0,.272-.1.1.1,0,1,1,.122.161.667.667,0,0,1-.406.136.64.64,0,0,1-.64-.629Z" transform="translate(-103.597 -143.643)" fill="#263238"/>
      <path id="Path_177" data-name="Path 177" d="M117.479,177.586a.43.43,0,0,1-.12-.308.449.449,0,0,1,.12-.308.408.408,0,0,1,.3-.131.392.392,0,0,1,.294.131.438.438,0,0,1,.122.308.419.419,0,0,1-.122.308.4.4,0,0,1-.294.133.411.411,0,0,1-.3-.133Zm.071-.308a.272.272,0,0,0,.063.185.239.239,0,0,0,.166.065.231.231,0,0,0,.161-.065.272.272,0,0,0,.071-.185.25.25,0,0,0-.071-.182.245.245,0,0,0-.161-.065.253.253,0,0,0-.166.065.272.272,0,0,0-.063.182Z" transform="translate(-107.141 -144.677)" fill="#263238"/>
      <path id="Path_178" data-name="Path 178" d="M122.256,177.2v.419a.093.093,0,0,1-.093.093.1.1,0,0,1-.093-.093V177.2a.18.18,0,0,0-.182-.177.174.174,0,0,0-.174.177v.419a.035.035,0,0,1,0,.016.093.093,0,0,1-.185-.016v-.689a.093.093,0,0,1,.093-.093.09.09,0,0,1,.084.054.335.335,0,0,1,.185-.054.367.367,0,0,1,.365.362Z" transform="translate(-110.176 -144.677)" fill="#263238"/>
      <path id="Path_179" data-name="Path 179" d="M125.612,176a.1.1,0,0,1-.1.1h-.044v.487a.1.1,0,0,1,0,.2.193.193,0,0,1-.193-.2v-.487h-.052a.1.1,0,0,1-.1-.1.093.093,0,0,1,.1-.1h.052v-.256a.1.1,0,0,1,.1-.1.1.1,0,0,1,.1.1v.256h.044A.1.1,0,0,1,125.612,176Z" transform="translate(-112.797 -143.738)" fill="#263238"/>
      <path id="Path_180" data-name="Path 180" d="M128.323,177.278v.343a.093.093,0,0,1-.093.093.1.1,0,0,1-.093-.076.4.4,0,0,1-.231.076.406.406,0,0,1-.3-.128.449.449,0,0,1-.12-.308.438.438,0,0,1,.12-.308.4.4,0,0,1,.528-.054.1.1,0,0,1,.093-.076.093.093,0,0,1,.093.093Zm-.185,0a.272.272,0,0,0-.068-.18.212.212,0,0,0-.163-.073.209.209,0,0,0-.163.073.28.28,0,0,0,0,.359.223.223,0,0,0,.163.068.229.229,0,0,0,.163-.068A.272.272,0,0,0,128.138,177.278Z" transform="translate(-114.514 -144.677)" fill="#263238"/>
      <path id="Path_181" data-name="Path 181" d="M131.58,177.278a.444.444,0,0,1,.446-.438.468.468,0,0,1,.272.1.1.1,0,0,1,.019.128.093.093,0,0,1-.131.019.291.291,0,0,0-.166-.057.253.253,0,1,0,0,.5.291.291,0,0,0,.166-.057.1.1,0,0,1,.131.019.1.1,0,0,1-.019.131.484.484,0,0,1-.272.093A.444.444,0,0,1,131.58,177.278Z" transform="translate(-117.491 -144.677)" fill="#263238"/>
      <path id="Path_182" data-name="Path 182" d="M135.632,176a.1.1,0,0,1-.1.1h-.044v.487a.1.1,0,0,1,0,.2.193.193,0,0,1-.193-.2v-.487h-.052a.1.1,0,0,1-.1-.1.093.093,0,0,1,.1-.1h.052v-.256a.1.1,0,0,1,.1-.1.1.1,0,0,1,.1.1v.256h.044A.1.1,0,0,1,135.632,176Z" transform="translate(-120.089 -143.738)" fill="#263238"/>
      <path id="Path_183" data-name="Path 183" d="M140.24,176.738a.1.1,0,0,1-.1.1.1.1,0,0,1-.1-.1v-1h0a.093.093,0,0,1,.038-.082.1.1,0,0,1,.133.022l.563.781v-.721a.1.1,0,0,1,.191,0v1.015a.1.1,0,0,1-.1.1.09.09,0,0,1-.071-.035h0l-.569-.806Z" transform="translate(-123.655 -143.799)" fill="#263238"/>
      <path id="Path_184" data-name="Path 184" d="M145.225,177.714a.367.367,0,0,1-.365-.365v-.416a.093.093,0,0,1,.185,0v.416a.177.177,0,0,0,.18.18.182.182,0,0,0,.182-.18v-.416a.093.093,0,0,1,.09-.093.1.1,0,0,1,.1.093v.416a.37.37,0,0,1-.367.365Z" transform="translate(-127.156 -144.677)" fill="#263238"/>
      <path id="Path_185" data-name="Path 185" d="M149.614,177.151h0v.416a.1.1,0,0,1-.093.093.1.1,0,0,1-.1-.093v-.416h0a.18.18,0,0,0-.357,0v.433h0a.1.1,0,0,1-.087.057h-.016a.1.1,0,0,1-.076-.09v-.416h0v-.272a.093.093,0,0,1,.093-.093.087.087,0,0,1,.084.052.376.376,0,0,1,.188-.052.365.365,0,0,1,.272.12.351.351,0,0,1,.272-.12.365.365,0,0,1,.365.365v.416a.093.093,0,0,1-.093.093.1.1,0,0,1-.1-.093v-.416a.18.18,0,0,0-.357,0Z" transform="translate(-130.089 -144.626)" fill="#263238"/>
      <path id="Path_186" data-name="Path 186" d="M155,176.339h0v-.694a.1.1,0,0,1,.191,0v.329a.411.411,0,0,1,.234-.073.438.438,0,0,1,0,.874.416.416,0,0,1-.237-.076.093.093,0,0,1-.093.076.1.1,0,0,1-.1-.1Zm.191,0a.245.245,0,0,0,.071.171.218.218,0,0,0,.163.074.223.223,0,0,0,.163-.074.234.234,0,0,0,.071-.171.237.237,0,0,0-.071-.177.22.22,0,0,0-.163-.071.215.215,0,0,0-.163.071.248.248,0,0,0-.079.177Z" transform="translate(-134.536 -143.738)" fill="#263238"/>
      <path id="Path_187" data-name="Path 187" d="M159,177.275a.43.43,0,0,1,.425-.436.416.416,0,0,1,.422.406h0a.041.041,0,0,1,0,.016.082.082,0,0,1-.09.068h-.544a.22.22,0,0,0,.06.117.272.272,0,0,0,.166.079.291.291,0,0,0,.182-.046.1.1,0,0,1,.131,0,.079.079,0,0,1,0,.112.438.438,0,0,1-.313.117.433.433,0,0,1-.438-.433Zm.191-.084h.493a.272.272,0,0,0-.259-.185.24.24,0,0,0-.237.185Z" transform="translate(-137.447 -144.677)" fill="#263238"/>
      <path id="Path_188" data-name="Path 188" d="M163.559,176.9a.1.1,0,0,1-.1.093.174.174,0,0,0-.1.033.3.3,0,0,0-.082.084.523.523,0,0,0-.071.147v.332a.1.1,0,0,1-.1.093.093.093,0,0,1-.093-.093V176.9a.093.093,0,0,1,.093-.093.1.1,0,0,1,.1.093h0a.233.233,0,0,1,.038-.035.389.389,0,0,1,.218-.068.093.093,0,0,1,.1.1Z" transform="translate(-140.373 -144.648)" fill="#263238"/>
      <path id="Path_189" data-name="Path 189" d="M166.061,175.864l-.131.1a.076.076,0,0,1-.044.019.06.06,0,0,1-.019-.114l.155-.065-.155-.068a.068.068,0,0,1-.038-.054.06.06,0,0,1,.057-.06.063.063,0,0,1,.044.019l.131.1-.016-.155a.054.054,0,0,1,.054-.065.052.052,0,0,1,.052.063l-.016.158.131-.1a.063.063,0,0,1,.044-.019.057.057,0,0,1,.057.06.063.063,0,0,1-.038.054l-.155.068.155.065a.059.059,0,0,1-.019.114.076.076,0,0,1-.044-.019l-.131-.1.016.155a.054.054,0,1,1-.106,0Z" transform="translate(-142.418 -143.709)" fill="#407bff"/>
      <rect id="Rectangle_532" data-name="Rectangle 532" width="80.56" height="3.726" transform="translate(8.765 34.264)" fill="#ebebeb"/>
      <path id="Path_190" data-name="Path 190" d="M113.133,206.968h-.425l-.087.229a.1.1,0,0,1-.09.06H112.5a.1.1,0,0,1-.057-.125l.387-1.029a.1.1,0,0,1,.093-.063.1.1,0,0,1,.093.063l.392,1.015a.1.1,0,0,1-.06.125h-.033a.1.1,0,0,1-.09-.06Zm-.071-.191-.142-.378-.142.378Z" transform="translate(-103.557 -165.929)" fill="#263238"/>
      <path id="Path_191" data-name="Path 191" d="M117.235,207.147a.1.1,0,0,1-.093.1.093.093,0,0,1-.093-.076.433.433,0,1,1-.24-.8.4.4,0,0,1,.234.074v-.329a.1.1,0,0,1,.1-.093.093.093,0,0,1,.093.093v.694h0Zm-.411-.588a.231.231,0,0,0-.163.071.253.253,0,0,0-.071.177.248.248,0,0,0,.071.174.226.226,0,0,0,.329,0,.245.245,0,0,0,.068-.174.25.25,0,0,0-.068-.177A.231.231,0,0,0,116.824,206.559Z" transform="translate(-106.432 -165.914)" fill="#263238"/>
      <path id="Path_192" data-name="Path 192" d="M121.379,207.4a.093.093,0,0,1-.093.093.169.169,0,0,0-.1.033.272.272,0,0,0-.082.084.561.561,0,0,0-.071.147v.332a.1.1,0,0,1-.1.093.093.093,0,0,1-.093-.093V207.4a.1.1,0,0,1,.191,0v.014a.218.218,0,0,1,.035-.035.378.378,0,0,1,.22-.068.09.09,0,0,1,.093.09Z" transform="translate(-109.674 -166.853)" fill="#263238"/>
      <path id="Path_193" data-name="Path 193" d="M123.12,207.738a.433.433,0,0,1,.425-.438.416.416,0,0,1,.422.406v.025a.087.087,0,0,1-.093.071h-.544a.223.223,0,0,0,.06.114.279.279,0,0,0,.348.035.1.1,0,0,1,.131,0,.079.079,0,0,1,0,.114.441.441,0,0,1-.738-.321Zm.191-.087h.5a.291.291,0,0,0-.272-.185A.245.245,0,0,0,123.31,207.651Z" transform="translate(-111.334 -166.846)" fill="#263238"/>
      <path id="Path_194" data-name="Path 194" d="M127.058,207.923a.093.093,0,0,1,.131-.014.321.321,0,0,0,.193.076.229.229,0,0,0,.12-.033.068.068,0,0,0,.03-.052.022.022,0,0,0,0-.016l-.022-.022a.348.348,0,0,0-.142-.049h0a.664.664,0,0,1-.152-.046.272.272,0,0,1-.12-.1.221.221,0,0,1-.03-.112.24.24,0,0,1,.1-.191.359.359,0,0,1,.215-.065.455.455,0,0,1,.272.1.1.1,0,0,1,.027.131.093.093,0,0,1-.128.025.3.3,0,0,0-.161-.065.169.169,0,0,0-.106.033.049.049,0,0,0-.027.038.03.03,0,0,0,0,.016l.019.016a.3.3,0,0,0,.128.041h0a.673.673,0,0,1,.163.052.272.272,0,0,1,.125.1.234.234,0,0,1,.033.114.25.25,0,0,1-.112.2.4.4,0,0,1-.226.071.514.514,0,0,1-.31-.12A.093.093,0,0,1,127.058,207.923Z" transform="translate(-114.188 -166.846)" fill="#263238"/>
      <path id="Path_195" data-name="Path 195" d="M130.156,207.923a.093.093,0,0,1,.131-.014.313.313,0,0,0,.191.076.215.215,0,0,0,.12-.033c.024-.022.033-.038.033-.052a.022.022,0,0,0,0-.016.049.049,0,0,0-.025-.022.348.348,0,0,0-.139-.049h0a.6.6,0,0,1-.15-.046.291.291,0,0,1-.122-.1.221.221,0,0,1-.03-.112.245.245,0,0,1,.1-.191.37.37,0,0,1,.215-.065.463.463,0,0,1,.272.1.1.1,0,0,1,.027.131.1.1,0,0,1-.131.024.272.272,0,0,0-.161-.065.161.161,0,0,0-.1.033c-.025.014-.03.03-.03.038v.016c0,.016,0,0,.019.016a.3.3,0,0,0,.128.041h0a.672.672,0,0,1,.163.052.272.272,0,0,1,.122.1.207.207,0,0,1,.033.114.248.248,0,0,1-.109.2.4.4,0,0,1-.229.071.523.523,0,0,1-.31-.12A.1.1,0,0,1,130.156,207.923Z" transform="translate(-116.442 -166.846)" fill="#263238"/>
      <path id="Path_196" data-name="Path 196" d="M133.634,206.324l-.133.1a.068.068,0,0,1-.044.016.06.06,0,0,1-.057-.06.071.071,0,0,1,.041-.054l.152-.065-.152-.068a.058.058,0,1,1,.06-.1l.133.1-.019-.158a.055.055,0,1,1,.109,0l-.016.158.131-.1a.068.068,0,0,1,.044-.016.057.057,0,0,1,.016.112l-.152.068.152.065a.065.065,0,0,1,.041.057.057.057,0,0,1-.06.057.065.065,0,0,1-.041-.016l-.131-.1.016.158a.055.055,0,1,1-.109,0Z" transform="translate(-118.816 -165.878)" fill="#407bff"/>
      <rect id="Rectangle_533" data-name="Rectangle 533" width="80.56" height="3.726" transform="translate(8.765 42.558)" fill="#ebebeb"/>
      <path id="Path_197" data-name="Path 197" d="M270.72,113.527V112.5a.1.1,0,0,1,.1-.1.1.1,0,0,1,.1.1v.934h.474a.1.1,0,0,1,0,.193h-.572A.1.1,0,0,1,270.72,113.527Z" transform="translate(-218.757 -97.777)" fill="#263238"/>
      <path id="Path_198" data-name="Path 198" d="M274.773,114.118v.343a.092.092,0,0,1-.182.016.4.4,0,0,1-.234.076.408.408,0,0,1-.3-.128.455.455,0,0,1,0-.615.4.4,0,0,1,.531-.054.093.093,0,0,1,.182.019Zm-.185,0a.272.272,0,0,0-.068-.18.215.215,0,0,0-.163-.071.207.207,0,0,0-.161.071.272.272,0,0,0,0,.359.212.212,0,0,0,.161.068.223.223,0,0,0,.163-.068.272.272,0,0,0,.063-.18Z" transform="translate(-221.1 -98.709)" fill="#263238"/>
      <path id="Path_199" data-name="Path 199" d="M278.03,114.37a.093.093,0,0,1,.131,0,.307.307,0,0,0,.191.076.215.215,0,0,0,.12-.033c.024-.022.033-.038.033-.052a.039.039,0,0,0,0-.019.071.071,0,0,0-.024-.019.349.349,0,0,0-.139-.049h0a.664.664,0,0,1-.152-.046.3.3,0,0,1-.12-.1.221.221,0,0,1-.03-.112.245.245,0,0,1,.1-.191.37.37,0,0,1,.215-.065.446.446,0,0,1,.272.1.1.1,0,0,1,.03.131.1.1,0,0,1-.131.024.272.272,0,0,0-.161-.065.161.161,0,0,0-.1.033c-.024,0-.03.03-.03.038v.016c0,.016,0,0,.019.016a.348.348,0,0,0,.128.041h0a.672.672,0,0,1,.163.052.272.272,0,0,1,.122.1.207.207,0,0,1,.033.114.248.248,0,0,1-.109.2.4.4,0,0,1-.229.071.523.523,0,0,1-.31-.12.1.1,0,0,1-.022-.142Z" transform="translate(-224.062 -98.767)" fill="#263238"/>
      <path id="Path_200" data-name="Path 200" d="M281.652,112.814a.1.1,0,0,1-.1.1h-.044v.487a.1.1,0,0,1,.1.1.1.1,0,0,1-.1.1.193.193,0,0,1-.193-.193v-.487h-.052a.1.1,0,0,1-.1-.1.093.093,0,0,1,.1-.1h.052v-.253a.1.1,0,0,1,.1-.1.093.093,0,0,1,.1.1v.253h.044a.1.1,0,0,1,.1.1Z" transform="translate(-226.363 -97.756)" fill="#263238"/>
      <path id="Path_201" data-name="Path 201" d="M286.26,113.564a.1.1,0,1,1-.191,0v-1.015h0a.1.1,0,0,1,.038-.082.1.1,0,0,1,.133.022l.563.781v-.719a.1.1,0,0,1,.191,0v1.015a.1.1,0,0,1-.1.1.09.09,0,0,1-.071-.035h0l-.561-.776Z" transform="translate(-229.928 -97.814)" fill="#263238"/>
      <path id="Path_202" data-name="Path 202" d="M291.44,114.132v.343a.093.093,0,0,1-.093.093.1.1,0,0,1-.09-.076.4.4,0,0,1-.234.076.408.408,0,0,1-.3-.128.463.463,0,0,1,0-.615.4.4,0,0,1,.534-.044.1.1,0,0,1,.09-.076.093.093,0,0,1,.093.1Zm-.185,0a.248.248,0,0,0-.068-.18.215.215,0,0,0-.163-.071.207.207,0,0,0-.161.071.272.272,0,0,0,0,.359.212.212,0,0,0,.161.068.223.223,0,0,0,.163-.068.248.248,0,0,0,.073-.18Z" transform="translate(-233.233 -98.723)" fill="#263238"/>
      <path id="Path_203" data-name="Path 203" d="M295.674,114.017v.419a.093.093,0,0,1-.093.093.1.1,0,0,1-.1-.093v-.419a.18.18,0,0,0-.18-.174.177.177,0,0,0-.177.18v.414h0a.1.1,0,0,1-.087.054h-.016a.09.09,0,0,1-.076-.09v-.384h0v-.272a.1.1,0,0,1,.093-.1.087.087,0,0,1,.084.052.373.373,0,0,1,.463.068.359.359,0,0,1,.272-.12.365.365,0,0,1,.365.367v.414a.093.093,0,0,1-.093.093.1.1,0,0,1-.1-.093v-.414a.177.177,0,0,0-.177-.18.18.18,0,0,0-.188.18Z" transform="translate(-236.392 -98.687)" fill="#263238"/>
      <path id="Path_204" data-name="Path 204" d="M300.81,114.118a.43.43,0,0,1,.425-.438.416.416,0,0,1,.422.406h0v.016a.084.084,0,0,1-.09.071h-.544a.223.223,0,0,0,.06.114.272.272,0,0,0,.166.079.289.289,0,0,0,.182-.044.1.1,0,0,1,.131,0,.079.079,0,0,1,0,.114.436.436,0,0,1-.313.114.43.43,0,0,1-.438-.433Zm.188-.087h.5a.272.272,0,0,0-.259-.185.25.25,0,0,0-.237.193Z" transform="translate(-240.657 -98.709)" fill="#263238"/>
      <path id="Path_205" data-name="Path 205" d="M304.934,112.7l-.131.1a.079.079,0,0,1-.044.016.06.06,0,0,1-.06-.06.071.071,0,0,1,.041-.054l.155-.065-.155-.068a.06.06,0,0,1-.041-.054.063.063,0,0,1,.06-.057.073.073,0,0,1,.044.016l.131.1-.019-.158a.057.057,0,0,1,.054-.065.054.054,0,0,1,.054.065l-.016.158.131-.1a.074.074,0,0,1,.044-.016.057.057,0,0,1,.057.057.06.06,0,0,1-.041.054l-.152.068.152.065a.065.065,0,0,1,.041.057.057.057,0,0,1-.06.057.071.071,0,0,1-.041-.016l-.131-.1.016.158a.054.054,0,1,1-.109,0Z" transform="translate(-243.488 -97.741)" fill="#407bff"/>
      <rect id="Rectangle_534" data-name="Rectangle 534" width="37.544" height="3.726" transform="translate(51.78 17.075)" fill="#ebebeb"/>
      <path id="Path_206" data-name="Path 206" d="M112.49,237.689a.64.64,0,0,1,.64-.629.651.651,0,0,1,.406.136.1.1,0,0,1-.122.158.438.438,0,0,0-.272-.1.463.463,0,0,0-.313.125.427.427,0,0,0,0,.61.463.463,0,0,0,.313.125.433.433,0,0,0,.272-.1.106.106,0,0,1,.139.022.1.1,0,0,1-.016.139.667.667,0,0,1-.406.136.637.637,0,0,1-.64-.629Z" transform="translate(-103.597 -188.505)" fill="#263238"/>
      <path id="Path_207" data-name="Path 207" d="M117.76,237.313a.1.1,0,1,1-.191,0v-.038a.1.1,0,0,1,.191,0Zm0,.316v.681a.093.093,0,0,1-.1.1.1.1,0,0,1-.1-.1v-.681a.1.1,0,1,1,.191,0Z" transform="translate(-107.294 -188.592)" fill="#263238"/>
      <path id="Path_208" data-name="Path 208" d="M119.532,237.6a.1.1,0,0,1-.1.1h-.044v.5a.1.1,0,0,1,.1.1.093.093,0,0,1-.1.1.193.193,0,0,1-.193-.193v-.487h-.052a.1.1,0,0,1-.1-.1.093.093,0,0,1,.1-.1h.052v-.253a.1.1,0,1,1,.193,0v.253h.044A.1.1,0,0,1,119.532,237.6Z" transform="translate(-108.372 -188.571)" fill="#263238"/>
      <path id="Path_209" data-name="Path 209" d="M122.41,238.562v.661a.414.414,0,0,1-.416.416.4.4,0,0,1-.18-.044.093.093,0,0,1-.046-.125.1.1,0,0,1,.125-.038.22.22,0,0,0,.1.025.226.226,0,0,0,.218-.158.349.349,0,0,1-.166.041.367.367,0,0,1-.365-.367v-.411a.093.093,0,0,1,.09-.093.09.09,0,0,1,.093.093v.411a.18.18,0,0,0,.182.18.177.177,0,0,0,.18-.18v-.411a.09.09,0,0,1,.093-.093A.093.093,0,0,1,122.41,238.562Z" transform="translate(-110.286 -189.531)" fill="#263238"/>
      <path id="Path_210" data-name="Path 210" d="M125.841,237.494l-.131.1a.084.084,0,0,1-.044.016.06.06,0,0,1-.057-.06.071.071,0,0,1,.041-.054l.152-.065-.152-.068a.06.06,0,0,1-.041-.054.057.057,0,0,1,.06-.057.06.06,0,0,1,.041.016l.131.1-.016-.158a.055.055,0,1,1,.109,0l-.019.158.133-.1a.068.068,0,0,1,.044-.016.057.057,0,0,1,.057.057.06.06,0,0,1-.041.054l-.152.068.152.065a.065.065,0,0,1,.041.057.06.06,0,0,1-.06.057.087.087,0,0,1-.041-.016l-.133-.1.019.155a.057.057,0,0,1-.054.068.054.054,0,0,1-.054-.065Z" transform="translate(-113.146 -188.563)" fill="#407bff"/>
      <rect id="Rectangle_535" data-name="Rectangle 535" width="37.544" height="3.726" transform="translate(8.765 51.043)" fill="#ebebeb"/>
      <path id="Path_211" data-name="Path 211" d="M271.5,237.663l-.642.885h.563a.1.1,0,0,1,.1.1.1.1,0,0,1-.1.1h-.808v-.016h0V238.7h0l.64-.876h-.563a.1.1,0,0,1-.1-.1.1.1,0,0,1,.1-.1h.792v.019h0Z" transform="translate(-218.662 -188.92)" fill="#263238"/>
      <path id="Path_212" data-name="Path 212" d="M275.05,237.278a.1.1,0,0,1,.1-.1.1.1,0,0,1,.1.1v1.032a.1.1,0,0,1-.1.1.093.093,0,0,1-.1-.1Z" transform="translate(-221.908 -188.592)" fill="#263238"/>
      <path id="Path_213" data-name="Path 213" d="M277.371,237.925h-.215v.381a.1.1,0,0,1-.2,0v-1.032a.1.1,0,0,1,.1-.1h.313a.376.376,0,1,1,0,.749Zm-.215-.193h.215a.18.18,0,1,0,0-.359h-.215Z" transform="translate(-223.299 -188.589)" fill="#263238"/>
      <path id="Path_214" data-name="Path 214" d="M282.43,237.688a.648.648,0,0,1,1.045-.493.1.1,0,0,1,.019.139.1.1,0,0,1-.139.019.444.444,0,0,0-.272-.1.463.463,0,0,0-.313.125.427.427,0,0,0,0,.61.463.463,0,0,0,.313.125.433.433,0,0,0,.272-.1.106.106,0,0,1,.139.022.1.1,0,0,1-.019.139.653.653,0,0,1-.4.136A.64.64,0,0,1,282.43,237.688Z" transform="translate(-227.28 -188.504)" fill="#263238"/>
      <path id="Path_215" data-name="Path 215" d="M287.422,239.216a.433.433,0,0,1-.122-.308.444.444,0,0,1,.122-.3.4.4,0,0,1,.3-.133.376.376,0,0,1,.291.133.433.433,0,0,1,.122.3.419.419,0,0,1-.122.308.384.384,0,0,1-.291.133A.411.411,0,0,1,287.422,239.216Zm.068-.308a.272.272,0,0,0,.065.185.229.229,0,0,0,.166.065.22.22,0,0,0,.161-.065.282.282,0,0,0,0-.367.245.245,0,0,0-.161-.065.253.253,0,0,0-.166.065A.272.272,0,0,0,287.49,238.908Z" transform="translate(-230.824 -189.531)" fill="#263238"/>
      <path id="Path_216" data-name="Path 216" d="M292.158,238.346a.1.1,0,0,1-.1.1.093.093,0,0,1-.093-.076.425.425,0,0,1-.24.076.438.438,0,0,1,0-.874.4.4,0,0,1,.234.074v-.329a.1.1,0,0,1,.193,0V238h0Zm-.427-.588a.231.231,0,0,0-.163.071.248.248,0,0,0-.071.177.253.253,0,0,0,.071.174.226.226,0,0,0,.329,0,.25.25,0,0,0,.068-.174.248.248,0,0,0-.068-.177A.231.231,0,0,0,291.731,237.758Z" transform="translate(-233.755 -188.629)" fill="#263238"/>
      <path id="Path_217" data-name="Path 217" d="M295.38,238.905a.433.433,0,0,1,.427-.436.416.416,0,0,1,.422.416h0v.016a.084.084,0,0,1-.09.071h-.544a.24.24,0,0,0,.057.114.272.272,0,0,0,.351.035.1.1,0,0,1,.131,0,.082.082,0,0,1,0,.114.449.449,0,0,1-.313.114.436.436,0,0,1-.441-.446Zm.191-.084h.5a.272.272,0,0,0-.259-.185.248.248,0,0,0-.237.185Z" transform="translate(-236.704 -189.531)" fill="#263238"/>
      <path id="Path_218" data-name="Path 218" d="M299.514,237.494l-.131.1a.109.109,0,0,1-.044.016.06.06,0,0,1-.06-.06.071.071,0,0,1,.041-.054l.155-.065-.155-.068a.057.057,0,0,1,.019-.112.073.073,0,0,1,.044.016l.131.1-.019-.158a.055.055,0,1,1,.109,0l-.016.158.131-.1a.073.073,0,0,1,.044-.016.057.057,0,0,1,.057.057.06.06,0,0,1-.041.054l-.152.068.152.065a.065.065,0,0,1,.041.057.06.06,0,0,1-.06.057.1.1,0,0,1-.041-.016l-.131-.1.016.155a.057.057,0,0,1-.054.068.054.054,0,0,1-.054-.065Z" transform="translate(-239.543 -188.563)" fill="#407bff"/>
      <rect id="Rectangle_536" data-name="Rectangle 536" width="37.544" height="3.726" transform="translate(51.78 51.043)" fill="#ebebeb"/>
      <path id="Path_219" data-name="Path 219" d="M113.095,268.995h-.215v.378a.1.1,0,1,1-.193,0v-1.032a.1.1,0,0,1,.1-.1h.313a.376.376,0,1,1,0,.749Zm-.215-.193h.215a.182.182,0,1,0,0-.362h-.215Z" transform="translate(-103.739 -211.202)" fill="#263238"/>
      <path id="Path_220" data-name="Path 220" d="M116.853,269.928v.343a.1.1,0,0,1-.093.093.1.1,0,0,1-.093-.076.4.4,0,0,1-.528-.052.449.449,0,0,1-.12-.308.436.436,0,0,1,.12-.308.392.392,0,0,1,.3-.131.381.381,0,0,1,.231.076.1.1,0,0,1,.093-.076.093.093,0,0,1,.093.093Zm-.185,0a.272.272,0,0,0-.068-.18.218.218,0,0,0-.163-.074.21.21,0,0,0-.163.073.28.28,0,0,0,0,.359.223.223,0,0,0,.163.068.234.234,0,0,0,.163-.068A.272.272,0,0,0,116.668,269.928Z" transform="translate(-106.166 -212.108)" fill="#263238"/>
      <path id="Path_221" data-name="Path 221" d="M120.121,270.15a.087.087,0,0,1,.131,0,.321.321,0,0,0,.193.076.272.272,0,0,0,.12-.033.068.068,0,0,0,.03-.054v-.016c0-.016,0-.014-.022-.022a.464.464,0,0,0-.139-.049h0a.827.827,0,0,1-.152-.044.291.291,0,0,1-.12-.1.2.2,0,0,1-.03-.109.248.248,0,0,1,.1-.193.378.378,0,0,1,.215-.063.446.446,0,0,1,.272.1.093.093,0,0,1,.027.128.09.09,0,0,1-.128.024.313.313,0,0,0-.161-.063.2.2,0,0,0-.106.03.057.057,0,0,0-.027.041.024.024,0,0,0,0,.014.063.063,0,0,0,.019.016.358.358,0,0,0,.128.044h0a.6.6,0,0,1,.163.052.272.272,0,0,1,.125.1.221.221,0,0,1,.033.114.253.253,0,0,1-.109.2.406.406,0,0,1-.229.071.5.5,0,0,1-.31-.122.093.093,0,0,1-.027-.142Z" transform="translate(-109.135 -212.144)" fill="#263238"/>
      <path id="Path_222" data-name="Path 222" d="M123.21,270.15a.087.087,0,0,1,.131,0,.321.321,0,0,0,.193.076.239.239,0,0,0,.117-.033c.024-.022.033-.038.033-.054a.03.03,0,0,0,0-.016.052.052,0,0,0-.022-.022.485.485,0,0,0-.142-.049h0a.774.774,0,0,1-.152-.044.3.3,0,0,1-.122-.1.2.2,0,0,1-.027-.109.245.245,0,0,1,.1-.193.389.389,0,0,1,.215-.063.457.457,0,0,1,.272.1.1.1,0,0,1,.027.128.09.09,0,0,1-.128.025.313.313,0,0,0-.163-.063.18.18,0,0,0-.1.03.049.049,0,0,0-.027.041.024.024,0,0,0,0,.014l.019.016a.341.341,0,0,0,.128.044h0a.673.673,0,0,1,.163.052.272.272,0,0,1,.122.1.226.226,0,0,1,.035.114.256.256,0,0,1-.112.2.4.4,0,0,1-.226.071.514.514,0,0,1-.313-.122.09.09,0,0,1-.019-.142Z" transform="translate(-111.38 -212.144)" fill="#263238"/>
      <path id="Path_223" data-name="Path 223" d="M127.495,269.661l-.289.678v.014h-.087a.027.027,0,0,1-.014,0h0v-.014l-.128-.3-.125.3a.025.025,0,0,1,0,.014h-.106v-.014l-.416-.678a.09.09,0,0,1,.049-.12.087.087,0,0,1,.117.052l.207.471.122-.294a.09.09,0,0,1,.084-.054.092.092,0,0,1,.087.054l.122.294.207-.471a.087.087,0,0,1,.117-.052A.093.093,0,0,1,127.495,269.661Z" transform="translate(-113.664 -212.139)" fill="#263238"/>
      <path id="Path_224" data-name="Path 224" d="M131.84,270.236a.447.447,0,0,1-.12-.308.463.463,0,0,1,.12-.308.408.408,0,0,1,.3-.131.384.384,0,0,1,.291.131.438.438,0,0,1,.122.308.425.425,0,0,1-.122.308.387.387,0,0,1-.291.133.411.411,0,0,1-.3-.133Zm.071-.308a.272.272,0,0,0,.063.185.242.242,0,0,0,.169.065.237.237,0,0,0,.161-.065.282.282,0,0,0,0-.367.251.251,0,0,0-.161-.065.253.253,0,0,0-.169.065A.272.272,0,0,0,131.911,269.928Z" transform="translate(-117.593 -212.108)" fill="#263238"/>
      <path id="Path_225" data-name="Path 225" d="M136.289,269.553a.1.1,0,0,1-.093.093.147.147,0,0,0-.1.033.221.221,0,0,0-.082.084.522.522,0,0,0-.071.147v.332a.1.1,0,0,1-.191,0v-.689a.093.093,0,0,1,.093-.093.1.1,0,0,1,.1.093h0a.218.218,0,0,1,.035-.035.4.4,0,0,1,.22-.068.093.093,0,0,1,.093.1Z" transform="translate(-120.526 -212.079)" fill="#263238"/>
      <path id="Path_226" data-name="Path 226" d="M139.105,269.33a.1.1,0,0,1-.1.1.1.1,0,0,1-.093-.076.417.417,0,0,1-.237.076.438.438,0,0,1,0-.874.424.424,0,0,1,.234.071V268.3a.1.1,0,1,1,.191,0v.691h0Zm-.425-.588a.22.22,0,0,0-.163.071.248.248,0,0,0-.071.177.245.245,0,0,0,.071.172.223.223,0,0,0,.163.073.218.218,0,0,0,.163-.073.245.245,0,0,0,.071-.172.248.248,0,0,0-.071-.177A.215.215,0,0,0,138.681,268.742Z" transform="translate(-122.365 -211.169)" fill="#263238"/>
      <path id="Path_227" data-name="Path 227" d="M142.774,268.513l-.133.1a.071.071,0,0,1-.044.019.059.059,0,0,1-.016-.114l.152-.065-.152-.071a.057.057,0,0,1-.041-.052.06.06,0,0,1,.06-.06.052.052,0,0,1,.041.019l.133.1-.019-.155a.054.054,0,0,1,.054-.065.052.052,0,0,1,.054.063l-.016.158.131-.1a.057.057,0,0,1,.044-.019.06.06,0,0,1,.057.06.054.054,0,0,1-.041.052l-.152.071.152.065a.059.059,0,0,1-.019.114.071.071,0,0,1-.041-.019l-.131-.1.016.155a.054.054,0,0,1-.054.065.052.052,0,0,1-.054-.063Z" transform="translate(-125.468 -211.139)" fill="#407bff"/>
      <rect id="Rectangle_537" data-name="Rectangle 537" width="37.544" height="3.726" transform="translate(8.765 59.484)" fill="#ebebeb"/>
      <path id="Path_228" data-name="Path 228" d="M362.723,280.709H345.61v-4h17.113Zm-16.841-.272h16.569v-3.454H345.882Z" transform="translate(-273.262 -217.362)" fill="#407bff"/>
      <rect id="Rectangle_538" data-name="Rectangle 538" width="16.841" height="3.726" transform="translate(51.854 59.484)" fill="#407bff"/>
      <path id="Path_229" data-name="Path 229" d="M290.25,282.182a.087.087,0,0,1,.125,0,.577.577,0,0,0,.335.133.375.375,0,0,0,.218-.063.161.161,0,0,0,.076-.128.092.092,0,0,0-.016-.054.133.133,0,0,0-.052-.052.656.656,0,0,0-.24-.084h0a.817.817,0,0,1-.226-.068.362.362,0,0,1-.163-.136.273.273,0,0,1-.041-.142.321.321,0,0,1,.142-.256.509.509,0,0,1,.3-.093.689.689,0,0,1,.381.139.093.093,0,0,1,.024.125.087.087,0,0,1-.125.025.525.525,0,0,0-.272-.112.33.33,0,0,0-.2.06.142.142,0,0,0-.065.112.1.1,0,0,0,0,.049.143.143,0,0,0,.046.044.618.618,0,0,0,.22.079h0a.9.9,0,0,1,.242.073.4.4,0,0,1,.174.144.289.289,0,0,1,.041.147.34.34,0,0,1-.15.272.544.544,0,0,1-.324.1.754.754,0,0,1-.446-.177.093.093,0,0,1-.011-.139Z" transform="translate(-232.952 -220.659)" fill="#fff"/>
      <path id="Path_230" data-name="Path 230" d="M294.972,283.52a.365.365,0,0,1-.362-.362v-.406a.093.093,0,1,1,.185,0v.419a.177.177,0,0,0,.177.177.182.182,0,0,0,.185-.177v-.419a.093.093,0,0,1,.09-.093.1.1,0,0,1,.1.093v.419A.37.37,0,0,1,294.972,283.52Z" transform="translate(-236.144 -221.693)" fill="#fff"/>
      <path id="Path_231" data-name="Path 231" d="M298.61,282.117h0v-.694a.1.1,0,0,1,.191,0v.329a.405.405,0,0,1,.234-.073.438.438,0,1,1-.237.8.1.1,0,0,1-.188-.022Zm.191,0a.248.248,0,0,0,.071.174.215.215,0,0,0,.163.071.22.22,0,0,0,.163-.071.248.248,0,0,0,.071-.174.253.253,0,0,0-.071-.177.231.231,0,0,0-.163-.071.226.226,0,0,0-.163.071A.253.253,0,0,0,298.8,282.117Z" transform="translate(-239.056 -220.725)" fill="#fff"/>
      <path id="Path_232" data-name="Path 232" d="M303.6,283v.419a.093.093,0,0,1-.185,0V283a.182.182,0,0,0-.182-.174.177.177,0,0,0-.174.18v.414h0a.106.106,0,0,1-.087.054h-.019a.1.1,0,0,1-.074-.093v-.365h0v-.272a.093.093,0,0,1,.093-.1.09.09,0,0,1,.084.052.689.689,0,0,0,.732-.052.365.365,0,0,1,.365.367v.414a.1.1,0,0,1-.188,0v-.414a.18.18,0,0,0-.177-.18A.182.182,0,0,0,303.6,283Z" transform="translate(-242.163 -221.685)" fill="#fff"/>
      <path id="Path_233" data-name="Path 233" d="M309.151,281.461a.1.1,0,0,1-.191,0v-.038a.1.1,0,0,1,.1-.093.093.093,0,0,1,.1.093Zm0,.316v.68a.093.093,0,0,1-.1.1.1.1,0,0,1-.1-.1v-.672a.1.1,0,0,1,.1-.1.093.093,0,0,1,.1.1Z" transform="translate(-246.588 -220.725)" fill="#fff"/>
      <path id="Path_234" data-name="Path 234" d="M310.871,281.806a.1.1,0,0,1-.1.1h-.044v.487a.1.1,0,0,1,.1.1.093.093,0,0,1-.1.1.2.2,0,0,1-.2-.193V281.9h-.049a.1.1,0,1,1,0-.193h.057v-.253a.1.1,0,1,1,.2,0v.253h.044A.1.1,0,0,1,310.871,281.806Z" transform="translate(-247.615 -220.747)" fill="#fff"/>
      <path id="Path_235" data-name="Path 235" d="M366.57,281.828a.648.648,0,0,1,1.045-.493.1.1,0,1,1-.122.158.433.433,0,0,0-.272-.1.474.474,0,0,0-.316.125.433.433,0,0,0-.128.3.422.422,0,0,0,.128.3.474.474,0,0,0,.316.125.435.435,0,0,0,.272-.1.106.106,0,0,1,.142.019.1.1,0,0,1-.019.139.648.648,0,0,1-1.045-.493Z" transform="translate(-288.517 -220.629)" fill="#407bff"/>
      <path id="Path_236" data-name="Path 236" d="M372.143,283.048v.343a.093.093,0,0,1-.093.093.1.1,0,0,1-.093-.074.4.4,0,0,1-.231.074.406.406,0,0,1-.3-.128.455.455,0,0,1,0-.615.406.406,0,0,1,.3-.131.4.4,0,0,1,.231.076.093.093,0,0,1,.185.019Zm-.185,0a.272.272,0,0,0-.068-.18.221.221,0,0,0-.163-.071.215.215,0,0,0-.163.071.272.272,0,0,0,0,.359.223.223,0,0,0,.163.068.229.229,0,0,0,.163-.068A.272.272,0,0,0,371.958,283.048Z" transform="translate(-291.966 -221.656)" fill="#407bff"/>
      <path id="Path_237" data-name="Path 237" d="M376.3,283.025v.416a.091.091,0,1,1-.182,0v-.416a.18.18,0,0,0-.182-.177.174.174,0,0,0-.174.177v.416a.055.055,0,0,1,0,.019.1.1,0,0,1-.093.073.093.093,0,0,1-.1-.093v-.689a.094.094,0,0,1,.18-.038.351.351,0,0,1,.185-.054A.365.365,0,0,1,376.3,283.025Z" transform="translate(-295.067 -221.693)" fill="#407bff"/>
      <path id="Path_238" data-name="Path 238" d="M379.28,283.048a.444.444,0,0,1,.444-.438.468.468,0,0,1,.272.1.1.1,0,0,1,.019.131.093.093,0,0,1-.131.016.272.272,0,0,0-.166-.054.25.25,0,1,0,0,.5.288.288,0,0,0,.166-.054.093.093,0,0,1,.131.019.1.1,0,0,1-.019.128.485.485,0,0,1-.272.093A.441.441,0,0,1,379.28,283.048Z" transform="translate(-297.767 -221.656)" fill="#407bff"/>
      <path id="Path_239" data-name="Path 239" d="M382.85,283.048a.433.433,0,0,1,.427-.438.417.417,0,0,1,.43.406v.025a.084.084,0,0,1-.093.071h-.544a.212.212,0,0,0,.06.114.28.28,0,0,0,.348.035.1.1,0,0,1,.133,0,.084.084,0,0,1,0,.114.446.446,0,0,1-.313.114.433.433,0,0,1-.449-.441Zm.191-.087h.5a.291.291,0,0,0-.259-.185.245.245,0,0,0-.237.185Z" transform="translate(-300.365 -221.656)" fill="#407bff"/>
      <path id="Path_240" data-name="Path 240" d="M387.125,281.33a.1.1,0,0,1,.1.1v1.032a.1.1,0,0,1-.193,0v-1.032A.1.1,0,0,1,387.125,281.33Z" transform="translate(-303.408 -220.725)" fill="#407bff"/>
    </g>
    <g id="freepik--Floor--inject-5" transform="translate(52.16 161.756)">
      <path id="Path_241" data-name="Path 241" d="M52.16,460.264c34.5-.166,73.2-.169,107.7,0-34.5.169-73.2.166-107.7,0Z" transform="translate(-52.16 -460.139)" fill="#263238"/>
    </g>
    <g id="freepik--Character--inject-5" transform="translate(122.218 60.212)">
      <path id="Path_242" data-name="Path 242" d="M309.845,409.375c.664.218,19.647-.025,20.363-.5.272-.171.4-2.94.457-6.288v-.106c.014-.689.024-1.4.024-2.12v-.3l-.917-9.848-12.7.122,1.252,9.756.014.387.076,2.02v.207s-7.227,3.343-7.959,3.941S309.178,409.165,309.845,409.375Z" transform="translate(-309.543 -307.708)" fill="#ad6359"/>
      <path id="Path_243" data-name="Path 243" d="M309.845,435.706c.664.218,19.647-.025,20.363-.5.272-.172.4-2.94.457-6.288v-.106c.014-.689.024-1.4.024-2.12v-.3l-12.363.03.014.387.076,2.02v.207s-7.227,3.343-7.959,3.941S309.178,435.5,309.845,435.706Z" transform="translate(-309.543 -334.04)" fill="#ebebeb"/>
      <path id="Path_244" data-name="Path 244" d="M309.838,442.162c.343.112,5.5.1,10.542,0,1.013-.022,2.02-.044,2.981-.071a47.529,47.529,0,0,0,6.843-.425c.278-.18.4-2.864.452-6.149v-.248h-.016l-12.233.022v.207s-7.224,3.343-7.956,3.939S309.174,441.95,309.838,442.162Z" transform="translate(-309.539 -340.495)" fill="#407bff"/>
      <path id="Path_245" data-name="Path 245" d="M311.266,457.3c3.2-.12,16.111-.3,19.283-.174.027,0,.027.019,0,.022-3.166.188-16.082.272-19.283.2C311.2,457.352,311.2,457.3,311.266,457.3Z" transform="translate(-310.76 -356.371)" fill="#263238"/>
      <path id="Path_246" data-name="Path 246" d="M336.925,435.261a4.439,4.439,0,0,1,3.773.817c.038.035,0,.087-.052.076a17.746,17.746,0,0,0-3.713-.724.084.084,0,1,1-.008-.169Z" transform="translate(-329.412 -340.413)" fill="#263238"/>
      <path id="Path_247" data-name="Path 247" d="M333.612,437.32a4.433,4.433,0,0,1,3.773.817c.038.035-.014.09-.054.076a17.708,17.708,0,0,0-3.713-.724.084.084,0,1,1-.005-.169Z" transform="translate(-326.999 -341.911)" fill="#263238"/>
      <path id="Path_248" data-name="Path 248" d="M330.3,439.371a4.434,4.434,0,0,1,3.77.817c.038.035,0,.087-.052.076a17.569,17.569,0,0,0-3.713-.724.084.084,0,1,1-.005-.169Z" transform="translate(-324.59 -343.405)" fill="#263238"/>
      <path id="Path_249" data-name="Path 249" d="M349.37,442.162c1.013-.022,2.02-.044,2.981-.071a47.528,47.528,0,0,0,6.843-.425c.278-.18.4-2.864.452-6.149v-.248h-.016C357.963,436.446,352.054,440.368,349.37,442.162Z" transform="translate(-338.528 -340.495)" opacity="0.1"/>
      <path id="Path_250" data-name="Path 250" d="M335.042,260.307h13.673s-2.747-31.929-2.638-32.487c.139-.713.947-3.944,2.022-8.166.335-1.323.7-2.738,1.089-4.208,1.018-3.971,2.145-8.313,3.122-12.091a83.464,83.464,0,0,1,2.619-8.574h-11.6s-9.527,27.269-9.9,32.9C333.1,232.6,335.042,260.307,335.042,260.307Z" transform="translate(-326.898 -165.467)" fill="#263238"/>
      <path id="Path_251" data-name="Path 251" d="M341.61,426.686c2.088-.044,1.489-.06,3.577-.082,1.021,0,7.736-.065,8.691.093.022,0,.022.038,0,.044-.955.158-7.671.1-8.691.087-2.088-.022-1.489-.038-3.577-.082a.03.03,0,0,1,0-.06Z" transform="translate(-332.858 -334.179)" fill="#37474f"/>
      <path id="Path_252" data-name="Path 252" d="M369.655,233.633c.449-1.976,1.119-3.911,1.7-5.852q1.78-5.912,3.579-11.816c.6-1.968,3.378-9.334,3.653-10.314.112-.4.172-.18.03.327C378.33,207,373.58,221.6,372.379,225.6l-1.813,6.016a24.35,24.35,0,0,0-.738,2.91,13.39,13.39,0,0,0-.122,3.114c.131,2.09.373,4.181.566,6.261s.384,4.184.577,6.261q.58,6.244,1.143,12.486c.046.528.093,1.053.133,1.581.014.177-.253.163-.272,0-.449-4.116-.792-8.245-1.179-12.366s-.768-8.2-1.149-12.3c-.1-1.029-.207-2.061-.207-3.095A12.834,12.834,0,0,1,369.655,233.633Z" transform="translate(-353.048 -173.229)" fill="#37474f"/>
      <path id="Path_253" data-name="Path 253" d="M374.74,194.77c.8,6.222,2.335,16.411,3.451,24.876,2.613-10.256,6.819-24.874,6.819-24.874Z" transform="translate(-356.992 -165.459)" fill="#37474f"/>
      <path id="Path_254" data-name="Path 254" d="M361.786,410.261c.664.218,19.647.044,20.366-.422.272-.171.411-2.94.479-6.288v-.106c.014-.689.027-1.4.03-2.12v-.3c.044-4.834-.3-9.848-.3-9.848l-12.41.079.346,9.756.014.387.068,2.02v.207s-7.235,3.318-7.973,3.911S361.119,410.046,361.786,410.261Z" transform="translate(-347.345 -308.407)" fill="#ad6359"/>
      <path id="Path_255" data-name="Path 255" d="M361.786,436.557c.664.218,19.647.044,20.366-.422.272-.172.411-2.94.479-6.288v-.106c.014-.689.027-1.4.03-2.12v-.3l-12.366-.014.014.387.068,2.02v.207s-7.235,3.318-7.973,3.911S361.119,436.342,361.786,436.557Z" transform="translate(-347.345 -334.702)" fill="#ebebeb"/>
      <path id="Path_256" data-name="Path 256" d="M361.789,442.99c.664.218,19.647.044,20.366-.422.272-.172.411-2.94.479-6.288v-.106l-12.249-.025v.207s-7.235,3.318-7.973,3.911S361.122,442.775,361.789,442.99Z" transform="translate(-347.349 -341.136)" fill="#407bff"/>
      <path id="Path_257" data-name="Path 257" d="M363.214,458.138c3.2-.109,16.114-.24,19.283-.1.027,0,.027.019,0,.019-3.168.177-16.082.2-19.283.136C363.146,458.187,363.146,458.14,363.214,458.138Z" transform="translate(-348.566 -357.021)" fill="#263238"/>
      <path id="Path_258" data-name="Path 258" d="M389.03,436.052a4.486,4.486,0,0,1,3.77.817c.038.035,0,.087-.054.076a17.511,17.511,0,0,0-3.707-.738.082.082,0,0,1-.008-.155Z" transform="translate(-367.354 -340.992)" fill="#263238"/>
      <path id="Path_259" data-name="Path 259" d="M385.628,438.1a4.468,4.468,0,0,1,3.77.817c.038.035-.014.087-.054.076a17.676,17.676,0,0,0-3.71-.721.086.086,0,1,1-.005-.172Z" transform="translate(-364.856 -342.48)" fill="#263238"/>
      <path id="Path_260" data-name="Path 260" d="M382.322,440.138a4.468,4.468,0,0,1,3.77.817c.038.033-.014.087-.054.073a17.673,17.673,0,0,0-3.71-.729.08.08,0,0,1-.005-.161Z" transform="translate(-362.454 -343.964)" fill="#263238"/>
      <path id="Path_261" data-name="Path 261" d="M370.2,194.748a44.961,44.961,0,0,0,1.532,8.454c.1.362.212.719.332,1.062a34.678,34.678,0,0,1,3.043,1.707s.133,4.461.272,9.434c.147,5.561.3,11.764.272,13.079-.117,4.921.61,31.983.61,31.983l13.667.06s-2.463-30.214-2.45-32.027c.027-2.9-.721-12.965-1.252-22.307-.044-.784.427-2.493.384-3.174-.272-4.306-.909-8.28-.909-8.28Z" transform="translate(-353.688 -165.437)" fill="#263238"/>
      <path id="Path_262" data-name="Path 262" d="M394.064,427.144c2.088-.033,1.489-.054,3.577-.063,1.023,0,7.739-.035,8.691.128a.022.022,0,0,1,0,.041c-.955.155-7.671.065-8.691.052-2.088-.03-1.489-.044-3.577-.1C394.025,427.2,394.025,427.144,394.064,427.144Z" transform="translate(-371.035 -334.533)" fill="#37474f"/>
      <path id="Path_263" data-name="Path 263" d="M405.471,208.293c-.338-.087-.7-.114-1.04-.169-.272-.044-.544-.093-.817-.152a3.615,3.615,0,0,1-1.459-.615c-.68-.544-1.464-3.231-1.56-3.4-.163-.3-.114-.022-.114,0a15.044,15.044,0,0,0,.9,3.1A3.017,3.017,0,0,0,403.7,208.3c.272.033.52.052.781.065a5.479,5.479,0,0,0,.991,0,.046.046,0,0,0,0-.076Z" transform="translate(-375.722 -172.044)" fill="#37474f"/>
      <path id="Path_264" data-name="Path 264" d="M363.208,206.353a2.516,2.516,0,0,1,.465-.169,3.54,3.54,0,0,0,.37-.152,1.448,1.448,0,0,0,.653-.615,22.1,22.1,0,0,0,.7-3.4c.073-.3.049-.022.049,0a30.149,30.149,0,0,1-.4,3.109,1.556,1.556,0,0,1-1.04,1.247,2.58,2.58,0,0,1-.351.068,1.145,1.145,0,0,1-.441,0C363.189,206.437,363.183,206.367,363.208,206.353Z" transform="translate(-348.587 -170.632)" fill="#37474f"/>
      <path id="Path_265" data-name="Path 265" d="M376.892,229.981a24.365,24.365,0,0,1,3.849,1.794.044.044,0,0,1-.035.079c-1.3-.544-2.619-1.089-3.882-1.718a.085.085,0,1,1,.068-.155Z" transform="translate(-358.472 -191.081)" fill="#37474f"/>
      <path id="Path_266" data-name="Path 266" d="M375.53,197.241c0-.044.082-.054.082,0a42.822,42.822,0,0,0,.218,4.331c.06.67.6,4.355,1.756,4.083.193-.044.291-.237.324-.528a4.764,4.764,0,0,0-.155-1.132c-.128-.773-.231-1.549-.3-2.327a21.114,21.114,0,0,1,.046-4.369.038.038,0,0,1,.073,0,40.22,40.22,0,0,0,.354,6.029c.144.958.629,2.4-.376,2.553s-1.685-2.273-1.81-2.934a22.067,22.067,0,0,1-.215-5.705Z" transform="translate(-357.499 -167.231)" fill="#37474f"/>
      <path id="Path_267" data-name="Path 267" d="M382.516,228.385a6.162,6.162,0,0,1,.259.765,1.728,1.728,0,0,1,.109.629.044.044,0,0,1-.079.016,2.207,2.207,0,0,1-.272-.612c-.09-.237-.182-.471-.272-.71a.135.135,0,1,1,.256-.087Z" transform="translate(-362.461 -189.858)" fill="#37474f"/>
      <path id="Path_268" data-name="Path 268" d="M420.45,197.178c.229,1.258.446,2.518.642,3.781a24.943,24.943,0,0,1,.452,3.849,15.321,15.321,0,0,0-.4,2.8c.991,15.984,1.448,34.817,2.6,50.743-.705-5.066-.939-10.186-1.3-15.287-.727-11.786-1.209-23.624-1.633-35.429a14.8,14.8,0,0,1,.465-2.888c-.016-2.208-.583-5.354-.833-7.575Z" transform="translate(-390.26 -167.206)" fill="#37474f"/>
      <path id="Path_269" data-name="Path 269" d="M345.916,131.428c-5.839,5.145-11.258,10.787-11.7,13.694-.626,4.026,1.84,5.172,2.951,5.194,3.024.065,8.659-12.132,10.616-16.789C349.684,129,347.2,130.3,345.916,131.428Z" transform="translate(-327.423 -118.571)" fill="#407bff"/>
      <path id="Path_270" data-name="Path 270" d="M350.042,150.8a.479.479,0,0,1-.479-.479.6.6,0,0,0-.593-.593H348.6v.114h.373a.479.479,0,0,1,.476.479.6.6,0,0,0,.6.6h.351V150.8Zm-4.47,9.345a.479.479,0,0,1-.479-.479.6.6,0,0,0-.6-.593h-.37v.117h.37a.476.476,0,0,1,.479.476.6.6,0,0,0,.6.6h.351v-.117Zm-4.47-2.218a.479.479,0,0,1,0-.678.593.593,0,0,0,0-.841l-.272-.272-.082.084.272.272a.482.482,0,0,1,0,.678.591.591,0,0,0,0,.841l.248.248.082-.082Zm1.445,4.551-.272.272a.479.479,0,0,1-.678,0,.6.6,0,0,0-.841,0l-.248.248.082.082.248-.248a.482.482,0,0,1,.678,0,.593.593,0,0,0,.841,0l.272-.272Zm3.656-8.531-.272.272a.479.479,0,0,1-.678,0,.6.6,0,0,0-.841,0l-.248.248.082.084.248-.25a.482.482,0,0,1,.678,0,.593.593,0,0,0,.841,0l.272-.272Z" transform="translate(-332.08 -132.679)" fill="#fff"/>
      <path id="Path_271" data-name="Path 271" d="M354.167,133.761c-1.963,4.657-7.6,16.855-10.616,16.789a2.407,2.407,0,0,1-.661-.117l11.734-19.753C354.995,130.941,354.992,131.81,354.167,133.761Z" transform="translate(-333.812 -118.814)" opacity="0.1"/>
      <path id="Path_272" data-name="Path 272" d="M383.881,147.533c-.038.046-16.765-.231-16.925-.392-.06-.063,1.573-14.819,3.843-18.482a3.185,3.185,0,0,1,5.313-.033C381.6,135.573,383.927,147.476,383.881,147.533Z" transform="translate(-351.326 -116.293)" fill="#407bff"/>
      <path id="Path_273" data-name="Path 273" d="M377.565,146.621a.479.479,0,0,1-.479-.479.6.6,0,0,0-.6-.6h-.37v.117h.37a.479.479,0,0,1,.479.479.6.6,0,0,0,.6.593h.351v-.114ZM372.481,139a.468.468,0,0,1-.338-.142.564.564,0,0,1-.03.131.574.574,0,0,0,.367.128h.351V139Zm.749,10.888a.474.474,0,0,1,0-.675.6.6,0,0,0,.174-.422.591.591,0,0,0-.174-.419l-.272-.272-.082.082.272.272a.474.474,0,0,1,0,.675.6.6,0,0,0,0,.844l.25.248.082-.082Zm3.462-8.49a.479.479,0,0,1,0-.675.6.6,0,0,0,0-.841l-.272-.272-.082.084.272.272a.479.479,0,0,1,0,.678.6.6,0,0,0,0,.841l.248.248.084-.082Zm8.983,7.668a.479.479,0,0,1,0-.678.6.6,0,0,0,0-.841l-.272-.272-.082.082.272.272a.479.479,0,0,1,0,.678.6.6,0,0,0,0,.841l.25.248.082-.082Zm-8.365,2.722-.177.177h.163l.1-.1Zm-1.609.144h.523a.607.607,0,0,0-.536.008Zm7.453-12.2-.193.193.082.082.161-.161Zm-2.2,8.887v.351a.479.479,0,0,1-.479.479.6.6,0,0,0-.6.593v.373h.117v-.381a.476.476,0,0,1,.479-.476.6.6,0,0,0,.593-.6v-.343Zm-8.536-5.395v.351a.479.479,0,0,1-.479.479.6.6,0,0,0-.593.6v.37h.114v-.37a.479.479,0,0,1,.479-.479.6.6,0,0,0,.6-.6v-.351Zm4.186-9.69v.351a.479.479,0,0,1-.479.479.6.6,0,0,0-.593.593v.373h.114v-.373a.479.479,0,0,1,.479-.493.6.6,0,0,0,.6-.6v-.351Zm5.264,9.331v.351a.479.479,0,0,1-.479.479.6.6,0,0,0-.6.6v.37h.117v-.37a.479.479,0,0,1,.479-.479.6.6,0,0,0,.593-.6v-.351Zm-1.282-4.646a.479.479,0,0,1-.479-.479.6.6,0,0,0-.6-.6h-.365v.117h.37a.479.479,0,0,1,.479.479.6.6,0,0,0,.6.6h.351v-.117Z" transform="translate(-354.518 -120.881)" fill="#fff"/>
      <path id="Path_274" data-name="Path 274" d="M397.718,130.768c5.444,4.268,10.771,11.645,10.812,15.769.038,4.083-1.38,3.677-1.783,3.65-2.45-.161-8.253-11.492-10.017-16.111S396.373,129.712,397.718,130.768Z" transform="translate(-372.395 -118.413)" fill="#407bff"/>
      <path id="Path_275" data-name="Path 275" d="M408.041,154.426a.479.479,0,0,1-.479-.479.6.6,0,0,0-.593-.6H406.6v.117h.373a.479.479,0,0,1,.476.479.6.6,0,0,0,.6.593h.351v-.114Zm-1.508,4.333a.479.479,0,0,1,0-.678.6.6,0,0,0,0-.841l-.272-.272-.082.082.272.272a.479.479,0,0,1,0,.678.6.6,0,0,0,0,.841l.25.248.082-.082Zm-.686-9.639-.272.272a.482.482,0,0,1-.678,0,.6.6,0,0,0-.841,0l-.248.248.082.082.248-.248a.482.482,0,0,1,.678,0,.6.6,0,0,0,.841,0l.272-.272Zm5.262,7.349a.593.593,0,0,0-.544.593v.37h.117v-.37a.476.476,0,0,1,.465-.476.767.767,0,0,1-.052-.125Zm-8.386-3.909v.218l.109.21a.722.722,0,0,0,0-.076v-.351Zm7.864,7.728v.351a.479.479,0,0,1-.479.479.6.6,0,0,0-.6.593v.37h.117v-.37a.479.479,0,0,1,.479-.479.6.6,0,0,0,.593-.593v-.351Zm-9.146-12.374a.479.479,0,0,1-.479-.479.6.6,0,0,0-.6-.6H400v.117h.37a.479.479,0,0,1,.479.479.6.6,0,0,0,.6.6h.351v-.117Z" transform="translate(-375.376 -130.576)" fill="#fff"/>
      <path id="Path_276" data-name="Path 276" d="M406.219,158.88c-.286-.514-.577-1.021-.855-1.538l-.847-1.541c-.561-1.032-1.127-2.055-1.671-3.095s-1.089-2.066-1.633-3.109q-.406-.778-.789-1.568c-.272-.523-.506-1.056-.754-1.59a32.008,32.008,0,0,0,1.361,3.266c.5,1.064,1.04,2.107,1.584,3.147s1.13,2.058,1.731,3.065S405.544,157.916,406.219,158.88Z" transform="translate(-375.136 -130.285)" fill="#263238"/>
      <path id="Path_277" data-name="Path 277" d="M399.849,148.68a4.79,4.79,0,0,0-.337-.544c-.06-.082-.117-.169-.182-.25s-.125-.166-.2-.245a1.554,1.554,0,0,0,.272.577A1.74,1.74,0,0,0,399.849,148.68Z" transform="translate(-374.743 -131.158)" fill="#263238"/>
      <path id="Path_278" data-name="Path 278" d="M340.72,138.427c.272-1.905.855-4.576,1.546-5.128a28.757,28.757,0,0,1,4.11-2.766c.757-.253,4.127-1.492,4.739-1.13.49.291-.109,1.584-1.712,2.178a23.427,23.427,0,0,0-2.542,1.2c-.411.171-1.413,1.486-1.149,2.077a1.691,1.691,0,0,0,1.786.49c.629-.275.795-1.513,1.516-2.09s1.984-.493,2.052-.15-.348.5-1.007,1.633c-.425.738-.471,2.523-1.426,3.794a22.417,22.417,0,0,0-1.323,2.341Z" transform="translate(-332.232 -117.838)" fill="#ad6359"/>
      <path id="Path_279" data-name="Path 279" d="M373.652,139.609a1.244,1.244,0,0,0,.629-.272.525.525,0,0,0,.144-.253.454.454,0,0,0,0-.161.237.237,0,0,0-.06-.152s0-.024.014,0,.041.049.057.076a.46.46,0,0,1,.035.073.372.372,0,0,1,.025.155.5.5,0,0,1-.128.316.857.857,0,0,1-.721.253S373.641,139.612,373.652,139.609Z" transform="translate(-356.195 -124.695)" fill="#263238"/>
      <path id="Path_280" data-name="Path 280" d="M346.4,135.106a9.294,9.294,0,0,1,3.743-3.231c1.045-.387,4.627,1.4,4.5,2.082s-.724.68-1.633.563c-.329-.044-2.071-.691-2.374-.327a10.719,10.719,0,0,0-1,2.319Z" transform="translate(-336.366 -119.645)" fill="#ad6359"/>
      <path id="Path_281" data-name="Path 281" d="M370,134.779a4.178,4.178,0,0,0-2.374-1.459c-.014,0-.022.016,0,.022a8.171,8.171,0,0,1,2.371,1.448C369.992,134.8,370,134.787,370,134.779Z" transform="translate(-351.803 -120.736)" fill="#263238"/>
      <path id="Path_282" data-name="Path 282" d="M346.4,135.133a9.294,9.294,0,0,1,3.743-3.231c1.045-.387,3.86,1.878,3.748,2.561s-.994.732-1.963.381c-.313-.112-1.361-.866-1.66-.5-.436.523-1.492,1.821-1.492,1.821Z" transform="translate(-336.366 -119.672)" fill="#ad6359"/>
      <path id="Path_283" data-name="Path 283" d="M357.072,135.089l.234-.351c.1-.147.207-.291.318-.433a1.36,1.36,0,0,1,.327-.335.694.694,0,0,1,.43-.082,2.45,2.45,0,0,1,.925.422,2.909,2.909,0,0,0,1.483.441,1.027,1.027,0,0,0,.4-.1.629.629,0,0,0,.242-.191c.223-.37-.046-.8-.324-1.105a6.557,6.557,0,0,0-1.905-1.326c-.166-.084-.338-.163-.506-.242a1.467,1.467,0,0,0-.612-.182,2.965,2.965,0,0,0-1.116.452s-.024,0,0-.022a2.477,2.477,0,0,1,1.331-.544,1.786,1.786,0,0,1,.588.207c.2.087.395.18.585.272a7.62,7.62,0,0,1,1.089.653,3.337,3.337,0,0,1,.879.847.988.988,0,0,1,.052,1.015.865.865,0,0,1-.645.335,1.632,1.632,0,0,1-.446,0,7.117,7.117,0,0,1-.974-.3c-.308-.125-.583-.338-.9-.436a.593.593,0,0,0-.463.025,1.634,1.634,0,0,0-.346.31,4.915,4.915,0,0,0-.583.675C357.077,135.165,357.031,135.165,357.072,135.089Z" transform="translate(-344.052 -119.401)" fill="#263238"/>
      <path id="Path_284" data-name="Path 284" d="M344.71,132.645c.226-.452.623-2.322.991-2.893s2.039-2.54,2.809-2.45c.969.12-.06,1.856-.574,2.57a3.546,3.546,0,0,0-.441,1.935Z" transform="translate(-335.136 -116.354)" fill="#ad6359"/>
      <path id="Path_285" data-name="Path 285" d="M356.089,132.385c-.182.226-.343.476-.5.721a5.919,5.919,0,0,0-.441.708,2.505,2.505,0,0,0-.2.795c-.014.136-.019.272-.022.406s0,.3,0,.444a.012.012,0,1,0,.025,0,6.2,6.2,0,0,1,.114-.8,3.572,3.572,0,0,1,.25-.8c.231-.5.569-.953.817-1.456A.028.028,0,0,0,356.089,132.385Z" transform="translate(-342.571 -120.051)" fill="#263238"/>
      <path id="Path_286" data-name="Path 286" d="M354.976,144.63a2.776,2.776,0,0,0,.234,1.361,4.6,4.6,0,0,0,.7,1.206,5.516,5.516,0,0,1,.694,1.138,5.589,5.589,0,0,1,.357,1.3,3.6,3.6,0,0,0-.158-1.377,4.209,4.209,0,0,0-.667-1.23,6.506,6.506,0,0,1-.713-1.135,4.083,4.083,0,0,1-.446-1.266Z" transform="translate(-342.601 -128.967)" fill="#263238"/>
      <path id="Path_287" data-name="Path 287" d="M337.261,162.739c1.889-.256,3.125-3.413,5.281-8.969.378-.974-4.557-6.968-5.226-6.073a40.724,40.724,0,0,0-3.362,9.108C333.481,160.175,335.057,163.035,337.261,162.739Z" transform="translate(-327.247 -131.133)" fill="#ad6359"/>
      <path id="Path_288" data-name="Path 288" d="M341.055,165.825l-6.086-5.915s-1.731,5.09-1.568,7.224.9,4.565,3.473,4.7C338.8,171.933,341.055,165.825,341.055,165.825Z" transform="translate(-326.898 -140.088)" fill="#407bff"/>
      <path id="Path_289" data-name="Path 289" d="M345.094,176.83a.6.6,0,0,0-.6-.593h-.37v.117h.37a.476.476,0,0,1,.479.476.6.6,0,0,0,.482.585c.019-.038.035-.076.052-.114a.474.474,0,0,1-.417-.471Zm-3.99-1.739a.479.479,0,0,1,0-.678.593.593,0,0,0,0-.841l-.272-.272-.082.084.272.272a.482.482,0,0,1,0,.678.591.591,0,0,0,0,.841l.248.248.082-.082Zm1.445,4.543-.272.272a.479.479,0,0,1-.678,0,.6.6,0,0,0-.841,0l-.248.248.082.082.248-.248a.482.482,0,0,1,.678,0,.593.593,0,0,0,.841,0l.272-.272Z" transform="translate(-332.08 -149.833)" fill="#fff"/>
      <path id="Path_290" data-name="Path 290" d="M354.32,185.727c.22-.31.416-.637.607-.964s.367-.667.544-1a10.48,10.48,0,0,0,.468-1.04,6.258,6.258,0,0,0,.354-1.089c-.161.346-.329.68-.5,1.018l-.509,1.013c-.166.34-.335.678-.493,1.023S354.462,185.373,354.32,185.727Z" transform="translate(-342.131 -155.896)" fill="#263238"/>
      <path id="Path_291" data-name="Path 291" d="M343.369,173.172c-.294-.324-.618-.626-.931-.931s-.631-.61-.953-.909c-.642-.6-1.287-1.195-1.941-1.78l-.544-.479c-.2-.169-.411-.313-.6-.482a.014.014,0,0,0-.019.022c.155.15.289.324.441.476s.318.313.479.468l.958.9c.642.6,1.288,1.195,1.946,1.772.376.327.74.667,1.132.972a.024.024,0,0,0,.035-.033Z" transform="translate(-330.523 -146.403)" fill="#263238"/>
      <path id="Path_292" data-name="Path 292" d="M381.1,123.463c.985.1,2.624-1.731,3.114-2.994.033-.087-.207-.925-.449-1.957-.144-.629-.289-1.331-.376-1.982l-3.947,1.538a10.406,10.406,0,0,1,.729,2.45,1.542,1.542,0,0,1,0,.272.231.231,0,0,0,0,.044C380.161,121.334,380.137,123.365,381.1,123.463Z" transform="translate(-360.413 -108.516)" fill="#ad6359"/>
      <path id="Path_293" data-name="Path 293" d="M380.178,121.026a.231.231,0,0,0,0,.044,2.624,2.624,0,0,0,.422-.033c2.352-.367,2.521-3.329,2.521-4.156l-.985.384-2.695,1.048a10.311,10.311,0,0,1,.727,2.45,1.288,1.288,0,0,1,.011.264Z" transform="translate(-360.413 -108.771)" fill="#263238"/>
      <path id="Path_294" data-name="Path 294" d="M377,93.8c.569,1.413.171,5.678-.779,6.7-1.38,1.489-3.811,1.835-5.131.136-1.271-1.633-.656-7.2.425-8.15A3.638,3.638,0,0,1,377,93.8Z" transform="translate(-353.818 -90.475)" fill="#ad6359"/>
      <path id="Path_295" data-name="Path 295" d="M381.173,112.49s.022.014.019.027c-.027.272,0,.621.242.732v.016C381.116,113.2,381.1,112.757,381.173,112.49Z" transform="translate(-361.648 -105.576)" fill="#263238"/>
      <path id="Path_296" data-name="Path 296" d="M381.447,111.45c.465,0,.441.925,0,.931S381.058,111.453,381.447,111.45Z" transform="translate(-361.647 -104.819)" fill="#263238"/>
      <path id="Path_297" data-name="Path 297" d="M374.262,112.14a.024.024,0,0,0-.025.024c0,.289-.044.621-.308.71h0C374.251,112.853,374.308,112.415,374.262,112.14Z" transform="translate(-356.403 -105.321)" fill="#263238"/>
      <path id="Path_298" data-name="Path 298" d="M373.2,111c-.463-.046-.523.882-.1.925S373.593,111.039,373.2,111Z" transform="translate(-355.594 -104.487)" fill="#263238"/>
      <path id="Path_299" data-name="Path 299" d="M381.949,107.318a3.361,3.361,0,0,1-.37-.1.629.629,0,0,1-.357-.171.2.2,0,0,1,0-.242.49.49,0,0,1,.487-.087.71.71,0,0,1,.435.272.21.21,0,0,1-.2.327Z" transform="translate(-361.68 -101.354)" fill="#263238"/>
      <path id="Path_300" data-name="Path 300" d="M372.251,106.474a3.669,3.669,0,0,0,.373-.084.631.631,0,0,0,.362-.161.2.2,0,0,0,0-.242.485.485,0,0,0-.482-.1.719.719,0,0,0-.446.272.21.21,0,0,0,.193.318Z" transform="translate(-355.018 -100.749)" fill="#263238"/>
      <path id="Path_301" data-name="Path 301" d="M381.207,121.433c-.065.068-.133.163-.237.174a.779.779,0,0,1-.313-.065s-.019,0,0,.016a.387.387,0,0,0,.37.147.316.316,0,0,0,.22-.272A.037.037,0,0,0,381.207,121.433Z" transform="translate(-361.293 -112.08)" fill="#263238"/>
      <path id="Path_302" data-name="Path 302" d="M377.041,110.06a.983.983,0,0,1-.645.455,1.38,1.38,0,0,1-.351.024.272.272,0,0,1-.068,0,.285.285,0,0,1-.065,0,.068.068,0,0,1-.057-.063h0v-.03h0v-.572c-.079.041-.49.237-.485.122a14.707,14.707,0,0,1,.308-3,.027.027,0,0,1,.054,0c0,.928-.155,1.848-.166,2.776a1.859,1.859,0,0,1,.46-.152c.03,0-.038.653-.024.754h0a1.361,1.361,0,0,0,1.01-.34C377.036,110.019,377.057,110.038,377.041,110.06Z" transform="translate(-357.451 -101.564)" fill="#263238"/>
      <path id="Path_303" data-name="Path 303" d="M376.72,99.59a1.631,1.631,0,0,0,2.771.011h.022a1.633,1.633,0,0,1-1.426.885,1.666,1.666,0,0,1-1.4-.887C376.673,99.587,376.706,99.566,376.72,99.59Z" transform="translate(-358.406 -96.179)" fill="#263238"/>
      <path id="Path_304" data-name="Path 304" d="M381.027,87.9a1.737,1.737,0,0,1,1.682.945,2.359,2.359,0,0,1,.245,1.165h-.024a2.177,2.177,0,0,0-.866-1.7,1.456,1.456,0,0,0-1.69-.022,1.489,1.489,0,0,0-.572.8c0,.035-.063.022-.054-.016a1.511,1.511,0,0,1,1.279-1.17Z" transform="translate(-360.637 -87.673)" fill="#263238"/>
      <path id="Path_305" data-name="Path 305" d="M364.77,88.148a1.946,1.946,0,0,1,.988-.9,2.7,2.7,0,0,1,1.775.063c.016,0,0,.03,0,.024a2.668,2.668,0,0,0-1.53-.073,1.905,1.905,0,0,0-1.023.776,1.862,1.862,0,0,0,.389,2.412,1.905,1.905,0,0,0,1.451.392c.019,0,.03.027,0,.03a1.905,1.905,0,0,1-2.052-2.722Z" transform="translate(-349.589 -87.11)" fill="#263238"/>
      <path id="Path_306" data-name="Path 306" d="M373.9,91.341a4.217,4.217,0,0,0-.166-1.739,1.92,1.92,0,0,0-1-.632,1.881,1.881,0,0,0-1.3-1.361,2.019,2.019,0,0,0-1.671.544,2.586,2.586,0,0,0-2.684-.955,2.024,2.024,0,0,0-.376,3.522c.882.615,2.314-.024,2.314-.024a1.935,1.935,0,0,0,2.423.022s.773.817,1.347.4C372.788,91.088,373.411,91.5,373.9,91.341Z" transform="translate(-350.521 -87.089)" fill="#263238"/>
      <path id="Path_307" data-name="Path 307" d="M392.377,100.539a12.686,12.686,0,0,1-.868-1.949,15.29,15.29,0,0,1-.03-3.46,2.994,2.994,0,0,1,.817,1.143A9.986,9.986,0,0,1,392.377,100.539Z" transform="translate(-369.115 -92.941)" fill="#263238" opacity="0.2"/>
      <path id="Path_308" data-name="Path 308" d="M392.073,109.056s.857-1.426,1.5-1.127.06,2.316-.648,2.635a.738.738,0,0,1-1.013-.329Z" transform="translate(-369.489 -102.227)" fill="#ad6359"/>
      <path id="Path_309" data-name="Path 309" d="M394.442,110.15v.019a1.87,1.87,0,0,0-.882,1.23.408.408,0,0,1,.6-.152c.014,0,0,.03-.014.027a.457.457,0,0,0-.487.191,2.178,2.178,0,0,0-.212.422c-.019.046-.1.027-.09-.027h0A1.653,1.653,0,0,1,394.442,110.15Z" transform="translate(-370.54 -103.873)" fill="#263238"/>
      <path id="Path_310" data-name="Path 310" d="M357.386,149.251l-.792-8.5-.52-.416-11.664-.071.269,8.087.52.416Z" transform="translate(-334.918 -125.787)" fill="#37474f"/>
      <path id="Path_311" data-name="Path 311" d="M355.476,147.721l-.792-8.5L342.5,138.73l.789,8.5Z" transform="translate(-333.528 -124.673)" fill="#455a64"/>
      <path id="Path_312" data-name="Path 312" d="M361.727,152.522a.817.817,0,0,1,1.013-.357.645.645,0,0,1,.441.866.817.817,0,0,1-1.01.354.642.642,0,0,1-.444-.863Z" transform="translate(-347.488 -134.409)" fill="#fff"/>
      <path id="Path_313" data-name="Path 313" d="M410.741,170.7c-1.821.25-4.083-1.165-9.973-5.46-.817-.593,1.835-7.469,2.736-6.878,1.138.743,5.384,3.873,5.667,4.143C411.547,164.771,411.974,170.534,410.741,170.7Z" transform="translate(-375.823 -138.937)" fill="#ad6359"/>
      <path id="Path_314" data-name="Path 314" d="M382.1,152.173a19.919,19.919,0,0,0-2.937-3.315,10.245,10.245,0,0,0-4.527-1.829c-1.764-.272-6.206.332-6.261,1.633-.049,1.184,4.464.351,4.464.351s-4.742.09-4.535,1.53,5.387.171,5.387.171-4.87.2-4.423,1.652c.338,1.089,5.1.212,5.1.212s-4.184.2-3.887,1.345c.329,1.263,4.772.724,4.772.724a6.661,6.661,0,0,0,4.331,3.985C379.876,158.744,382.1,152.173,382.1,152.173Z" transform="translate(-352.302 -130.666)" fill="#ad6359"/>
      <path id="Path_315" data-name="Path 315" d="M376.384,153.98c-.544,0-1.121-.024-1.677.016s-1.111.1-1.66.191a9.593,9.593,0,0,0-2.107.561,20.7,20.7,0,0,1,3.784-.6c.555-.041,1.108-.109,1.663-.15C376.4,154.005,376.4,153.98,376.384,153.98Z" transform="translate(-354.227 -135.767)" fill="#263238"/>
      <path id="Path_316" data-name="Path 316" d="M380.274,161.38c-.713.019-1.418.014-2.131.063s-1.361.161-2.077.259c-.054,0-.033.033.022.027.7-.071,1.361-.079,2.071-.142s1.41-.152,2.118-.188Z" transform="translate(-357.934 -141.158)" fill="#263238"/>
      <path id="Path_317" data-name="Path 317" d="M384.555,167.6a15.92,15.92,0,0,0-3.25.346c-.054,0-.022.041.033.033,1.089-.133,1.924-.248,3.217-.34C384.574,167.638,384.577,167.6,384.555,167.6Z" transform="translate(-361.75 -145.685)" fill="#263238"/>
      <path id="Path_318" data-name="Path 318" d="M412.8,162.67l-2.319,8.438s6.223,3.661,7.6,2.692.474-5.847-1.089-7.706A53.084,53.084,0,0,0,412.8,162.67Z" transform="translate(-383.004 -142.097)" fill="#407bff"/>
      <path id="Path_319" data-name="Path 319" d="M427.11,177.7v.351a.479.479,0,0,1-.479.479.6.6,0,0,0-.6.593v.37h.117v-.37a.479.479,0,0,1,.479-.479.6.6,0,0,0,.593-.593V177.7Zm-.03-3.334a.546.546,0,0,0,0,.1v.37h.117v-.112C427.153,174.606,427.118,174.486,427.08,174.364Zm-4.026,1.8a.479.479,0,0,1,0-.678.6.6,0,0,0,0-.841l-.272-.272-.082.082.272.272a.479.479,0,0,1,0,.678.6.6,0,0,0,0,.841l.25.248.082-.082Zm1.522-4.333a.479.479,0,0,1-.479-.479.6.6,0,0,0-.593-.6h-.373v.117h.373a.479.479,0,0,1,.476.479.6.6,0,0,0,.6.593h.351v-.114Z" transform="translate(-391.898 -147.985)" fill="#fff"/>
      <path id="Path_320" data-name="Path 320" d="M418.67,162.943l.09-.272h-.022c.588.479,1.179.955,1.758,1.44s1.165.966,1.718,1.478a8.386,8.386,0,0,1,.789.8,6.293,6.293,0,0,1,.629.925,7.105,7.105,0,0,1,.749,2.12,6,6,0,0,0-.607-2.2,5.35,5.35,0,0,0-.621-.972,8.826,8.826,0,0,0-.795-.817c-.563-.512-1.154-.991-1.753-1.459s-1.217-.906-1.851-1.328h-.016v.019Z" transform="translate(-388.965 -142.09)" fill="#263238"/>
      <path id="Path_321" data-name="Path 321" d="M419.662,170.319c-.142.414-.25.844-.367,1.266s-.229.847-.338,1.274c-.215.849-.427,1.7-.626,2.556-.054.234-.109.468-.161.7s-.076.509-.131.759c0,.019.025.025.03,0,.057-.207.142-.408.2-.615s.12-.43.177-.645c.114-.425.223-.849.332-1.277.215-.849.43-1.7.618-2.559.106-.485.229-.969.3-1.459a.022.022,0,1,0-.044-.005Z" transform="translate(-388.506 -147.65)" fill="#263238"/>
      <path id="Path_322" data-name="Path 322" d="M410.469,190.94c-.046.259-.1.512-.155.768l-.024-.06c.634.348,1.562.817,2.21,1.162.74.381,1.483.746,2.24,1.105a10.7,10.7,0,0,1-1.184-.414,18.726,18.726,0,0,1-3.356-1.788c.09-.256.174-.517.272-.773Z" transform="translate(-382.8 -162.672)" fill="#263238"/>
    </g>
    <g id="freepik--Plant--inject-5" transform="translate(52.16 111.927)">
      <path id="Path_323" data-name="Path 323" d="M79.01,302.829a19.7,19.7,0,0,0-.626,3.539c.033.06.027.272,0,.22,0,.193-.3.158-.3-.033v-.373a22.461,22.461,0,0,0-2.512-2.153,4.7,4.7,0,0,1-1.366-2.186c-.675-2.322-.041-4.785-.852-7.1a32.667,32.667,0,0,0-3.016-5.547,13.133,13.133,0,0,1-2.031-6.171c-.065-1.718.139-4.007,1.448-5.294,1.385-1.361,3.106-.34,4.167.876,3.079,3.539,4.5,8,5.079,12.565a49.291,49.291,0,0,1,.572,7.622A20.438,20.438,0,0,1,79.01,302.829Z" transform="translate(-63.9 -277.079)" fill="#407bff"/>
      <path id="Path_324" data-name="Path 324" d="M87.061,323.842a43.356,43.356,0,0,0-.084-7.159.041.041,0,0,0,0-.025c.041-1.935.193-3.862.117-5.8a34.232,34.232,0,0,0-.852-6.22.019.019,0,1,0-.038,0,40.435,40.435,0,0,1,.675,6.084q.057,1.633-.027,3.28c-.019.354-.052.713-.073,1.072h0a38.244,38.244,0,0,0-5.757-15.243c-.038-.063-.15,0-.112.068A39.8,39.8,0,0,1,85.6,311.2c-1.481-2.744-3.718-5-5.376-7.635,0-.014-.033,0-.024.016,1.489,2.934,3.952,5.248,5.52,8.139.272,1.179.5,2.368.661,3.563a39.7,39.7,0,0,1,.357,4.951,56.938,56.938,0,0,1-2.575-5.079c-.019-.049-.087-.016-.071.033a19.768,19.768,0,0,0,2.651,5.425q0,1.756-.1,3.514c-.182,3.125-.719,6.209-.964,9.326a.071.071,0,1,0,.142.014A71.176,71.176,0,0,0,87.061,323.842Z" transform="translate(-72.564 -293.619)" fill="#263238"/>
      <path id="Path_325" data-name="Path 325" d="M93.131,299.54a.019.019,0,0,0-.035.016c.572,1.579.893,3.177,1.307,4.8a.06.06,0,0,0,.117-.022A17.179,17.179,0,0,0,93.131,299.54Z" transform="translate(-81.951 -293.418)" fill="#263238"/>
      <path id="Path_326" data-name="Path 326" d="M116.355,319.127a23.951,23.951,0,0,1-1.312,2.7c-1.029,1.867-2.1,3.577-2.295,5.752a13.318,13.318,0,0,1-.414,2.88,8.593,8.593,0,0,1-1.149,2.254c-1.113,1.633-2.5,3.021-3.539,4.706a19.832,19.832,0,0,0-2.349,5.67c-.027.109-.2.079-.174-.03a.087.087,0,0,0,0-.025.027.027,0,0,1,0-.022,40.617,40.617,0,0,1,1.633-13.822,47.78,47.78,0,0,1,2.257-5.749,13.6,13.6,0,0,1,3.049-4.385c.868-.781,2.749-2.262,3.982-1.478C116.633,317.951,116.589,318.547,116.355,319.127Z" transform="translate(-90.681 -306.391)" fill="#407bff"/>
      <path id="Path_327" data-name="Path 327" d="M108.512,340.332a37.507,37.507,0,0,1-2.722,3.892c-.449.588-.906,1.173-1.361,1.764a10.639,10.639,0,0,0-.648.855c.125-.49.245-.98.37-1.47a57.789,57.789,0,0,1,2.074-7,47.127,47.127,0,0,1,3.236-6.342c.03-.054-.057-.093-.087-.041-.985,1.62-1.984,3.236-2.812,4.943a26.3,26.3,0,0,0-1.179,2.934,45.188,45.188,0,0,1,1.59-6.261c0-.016-.022-.03-.027-.014a21.408,21.408,0,0,0-1.65,6.533h0q-.3.906-.561,1.832c-.735,2.608-1.38,5.24-1.976,7.894a28.064,28.064,0,0,1,.449-5.172c0-.041-.052-.049-.063,0a16.416,16.416,0,0,0-.449,5.463q-.338,1.505-.661,3.019c-.457,2.148-1.021,4.336-1.288,6.516a.044.044,0,0,0,.087.014c.318-1.176.512-2.4.773-3.585s.544-2.387.817-3.577c.4-1.734.817-3.462,1.26-5.191a9.2,9.2,0,0,1,1.266-1.726c.457-.583.917-1.168,1.361-1.758a26.77,26.77,0,0,0,2.243-3.471C108.569,340.324,108.528,340.307,108.512,340.332Z" transform="translate(-87.522 -317.029)" fill="#263238"/>
      <path id="Path_328" data-name="Path 328" d="M122.919,355.346a24.227,24.227,0,0,0-2.648,4.211c0,.019.019.038.033.019.89-1.4,1.767-2.806,2.657-4.205C122.976,355.346,122.938,355.324,122.919,355.346Z" transform="translate(-101.73 -334.035)" fill="#263238"/>
      <path id="Path_329" data-name="Path 329" d="M53.51,326.078a5.274,5.274,0,0,1,1.034,3.539c-.163.789-.743,1.432-.847,2.237-.234,1.78,1.538,2.956,2.823,3.8,3.2,2.1,7.589,3.971,8.166,8.259.022.152.272.114.272-.033a.117.117,0,0,0,0-.03s.016,0,.016-.024a16.476,16.476,0,0,0-.065-6.549,20.93,20.93,0,0,0-2.58-6.138c-1.93-3.285-3.969-6.65-6.881-9.17-.817-.7-2.45-1.949-3.1-.378C51.727,323.119,52.77,324.81,53.51,326.078Z" transform="translate(-52.16 -308.921)" fill="#407bff"/>
      <path id="Path_330" data-name="Path 330" d="M67.779,353.525c2.123,2.3,5.5,3.585,7.322,6.157a25.842,25.842,0,0,0-5.626-10.569.083.083,0,0,1,.117-.117,20.872,20.872,0,0,1,4.6,6.658,29.766,29.766,0,0,0-1.982-5.063.055.055,0,0,1,.1-.054,19.307,19.307,0,0,1,2.134,5.692c2.406,5.825,2.629,12.657,2.126,18.8,0,.087-.142.09-.139,0a54.672,54.672,0,0,0-1.089-14.486c-.024-.1-.052-.2-.076-.3-1.987-2.768-5.346-4.053-7.5-6.682C67.722,353.535,67.757,353.5,67.779,353.525Z" transform="translate(-63.5 -329.402)" fill="#263238"/>
      <path id="Path_331" data-name="Path 331" d="M65.864,358.419c1.116,1.021,2.21,2.066,3.326,3.089,0,0,0,.03-.016.019a16.169,16.169,0,0,1-3.375-3.043.046.046,0,0,1,.065-.065Z" transform="translate(-62.078 -336.27)" fill="#263238"/>
      <path id="Path_332" data-name="Path 332" d="M65.27,342.164a34.968,34.968,0,0,0,3.332,4.576c.016.019,0,.044-.027.027a16.128,16.128,0,0,1-3.364-4.578.035.035,0,0,1,.06-.025Z" transform="translate(-61.658 -324.44)" fill="#263238"/>
      <path id="Path_333" data-name="Path 333" d="M83.85,425.505h9.756L92.291,412.38H85.353Z" transform="translate(-75.224 -375.551)" fill="#455a64"/>
      <path id="Path_334" data-name="Path 334" d="M88.47,414.514h7.4l-.215-2.134H88.715Z" transform="translate(-78.586 -375.551)" fill="#263238"/>
      <rect id="Rectangle_539" data-name="Rectangle 539" width="9.146" height="2.096" transform="translate(18.077 37.471) rotate(180)" fill="#455a64"/>
    </g>
    <g id="freepik--speech-bubble--inject-5" transform="translate(146.463 53.934)">
      <path id="Path_335" data-name="Path 335" d="M412.194,70.818a5.937,5.937,0,0,1-9.922,3.759l-2.972.436,1.486-2.57a5.939,5.939,0,1,1,11.408-1.633Z" transform="translate(-399.112 -64.197)" fill="#fff"/>
      <path id="Path_336" data-name="Path 336" d="M411.692,70.645a5.989,5.989,0,0,1-1.2,3.013,5.462,5.462,0,0,1-1.165,1.149,5.816,5.816,0,0,1-1.432.8,5.893,5.893,0,0,1-1.6.381,5.564,5.564,0,0,1-.817.016,5.228,5.228,0,0,1-.817-.084,6.01,6.01,0,0,1-2.94-1.451l.071.022-2.967.455-.218.033.112-.188,1.478-2.575v.1a6,6,0,0,1,.343-5.3,6.078,6.078,0,0,1,1.862-1.979,5.988,5.988,0,0,1,2.534-.953,6,6,0,0,1,6.753,6.565Zm0,0a5.882,5.882,0,0,0-9.184-5.458,6.081,6.081,0,0,0-1.777,1.938,5.839,5.839,0,0,0-.754,2.512,5.92,5.92,0,0,0,.416,2.589l.022.054-.027.046-1.5,2.564-.106-.155,2.975-.416h.041l.03.027a5.855,5.855,0,0,0,2.844,1.464,5.3,5.3,0,0,0,.817.1,5.738,5.738,0,0,0,2.4-.351,5.581,5.581,0,0,0,1.434-.773,6.7,6.7,0,0,0,.626-.523,6.376,6.376,0,0,0,.544-.612,5.953,5.953,0,0,0,1.2-3.005Z" transform="translate(-398.61 -64.023)" fill="#263238"/>
      <path id="Path_337" data-name="Path 337" d="M415.637,80.517l-2.537-2.57.852-.841,1.481,1.5,3.079-4.826,1.01.645Z" transform="translate(-409.156 -71.124)" fill="#407bff"/>
    </g>
  </g>
</svg>
