<svg xmlns="http://www.w3.org/2000/svg" width="112.047" height="127.877" viewBox="0 0 112.047 127.877">
  <g id="not_match" data-name="not match" transform="translate(0)">
    <path id="Path_12158" data-name="Path 12158" d="M48.239,127.019c-1.439,0-1.439-1.85-1.439-3.084V17.85c0-1.234,0-1.85,1.439-1.85h88.609c1.234,0,2.467.617,2.467,1.85V123.935c0,1.234-1.234,3.084-2.467,3.084Z" transform="translate(-42.688 -11.888)" fill="#e8efee"/>
    <path id="Path_12159" data-name="Path 12159" d="M123.316,8.224v102.8H39.024V8.224h84.292M124.96,0H36.351C32.65,0,30.8,2.467,30.8,5.962V112.047c0,3.5,1.85,7.2,5.551,7.2H124.96c3.5,0,6.579-3.7,6.579-7.2V5.962c0-3.5-3.084-5.962-6.579-5.962Z" transform="translate(-30.8 0)" fill="#9aa5a4"/>
    <path id="Path_12160" data-name="Path 12160" d="M136.848,15.9H48.239c-1.439,0-1.439.617-1.439,1.85V123.84c0,.822,0,1.439.411,1.85L138.493,16.316C138.082,15.7,137.465,15.9,136.848,15.9Z" transform="translate(-42.688 -11.793)" fill="#fff"/>
    <path id="Path_12161" data-name="Path 12161" d="M129.483,1.439A7.007,7.007,0,0,0,124.96,0H36.351C32.65,0,30.8,2.467,30.8,5.962V112.047a9.765,9.765,0,0,0,1.439,5.14l6.784-6.784V8.224h84.292v.822Z" transform="translate(-30.8 0)" fill="#b3bcbb"/>
    <g id="Group_160778" data-name="Group 160778" transform="translate(23.437 24.671)">
      <path id="Path_12162" data-name="Path 12162" d="M125.084,102.168H173.6a3.084,3.084,0,0,0,0-6.168H125.084a3.084,3.084,0,1,0,0,6.168Z" transform="translate(-122 -96)" fill="#e8efee"/>
      <path id="Path_12163" data-name="Path 12163" d="M125.084,166.168h27.96a3.162,3.162,0,0,0,3.084-3.084A2.987,2.987,0,0,0,153.25,160H125.084a3.084,3.084,0,1,0,0,6.168Z" transform="translate(-122 -143.553)" fill="#e8efee"/>
      <path id="Path_12164" data-name="Path 12164" d="M173.6,224H125.084c-1.645,0-3.084,2.467-3.084,4.112s1.439,4.112,3.084,4.112H173.6c1.645,0,3.084-2.467,3.084-4.112S175.453,224,173.6,224Z" transform="translate(-122 -191.106)" fill="#e8efee"/>
      <path id="Path_12165" data-name="Path 12165" d="M153.25,296H125.084a3.084,3.084,0,1,0,0,6.168h27.96a3.162,3.162,0,0,0,3.084-3.084A2.861,2.861,0,0,0,153.25,296Z" transform="translate(-122 -244.602)" fill="#e8efee"/>
    </g>
    <g id="Group_160779" data-name="Group 160779" transform="translate(22.409 22.615)">
      <path id="Path_12166" data-name="Path 12166" d="M121.084,94.168H169.6a3.162,3.162,0,0,0,3.084-3.084A3.028,3.028,0,0,0,169.6,88H121.084a3.084,3.084,0,1,0,0,6.168Z" transform="translate(-118 -88)" fill="#b1bab9"/>
      <path id="Path_12167" data-name="Path 12167" d="M169.6,224H121.084a3.084,3.084,0,1,0,0,6.168H169.6a3.162,3.162,0,0,0,3.084-3.084A3.028,3.028,0,0,0,169.6,224Z" transform="translate(-118 -189.05)" fill="#b1bab9"/>
    </g>
    <g id="Group_160780" data-name="Group 160780" transform="translate(22.409 39.062)">
      <path id="Path_12168" data-name="Path 12168" d="M149.25,288H121.084a3.084,3.084,0,1,0,0,6.168h27.96a3.162,3.162,0,0,0,3.084-3.084A2.861,2.861,0,0,0,149.25,288Z" transform="translate(-118 -253.05)" fill="#9aa5a4"/>
      <path id="Path_12169" data-name="Path 12169" d="M149.25,152H121.084a3.084,3.084,0,1,0,0,6.168h27.96a3.162,3.162,0,0,0,3.084-3.084A2.861,2.861,0,0,0,149.25,152Z" transform="translate(-118 -152)" fill="#9aa5a4"/>
      <circle id="Ellipse_150" data-name="Ellipse 150" cx="27.755" cy="27.755" r="27.755" transform="translate(34.128 33.306)" fill="#9aa5a4" opacity="0.3"/>
    </g>
    <circle id="Ellipse_151" data-name="Ellipse 151" cx="27.755" cy="27.755" r="27.755" transform="translate(53.042 72.368)" fill="#ea0a0a"/>
    <path id="Path_12170" data-name="Path 12170" d="M345.2,281.6a27.755,27.755,0,0,1,0,55.509" transform="translate(-264.403 -209.232)" fill="#bf0404"/>
    <path id="Path_12171" data-name="Path 12171" d="M269.2,289.972a27.766,27.766,0,1,1,39.268,39.268" transform="translate(-207.934 -209.381)" fill="#ce0505"/>
    <path id="Path_12172" data-name="Path 12172" d="M320.015,372.348l8.018-8.018a1.745,1.745,0,0,0-2.467-2.467l-8.018,8.018-8.018-8.018a1.745,1.745,0,0,0-2.467,2.467l8.018,8.018-8.018,8.018a1.876,1.876,0,0,0,0,2.467,1.542,1.542,0,0,0,2.467,0l8.018-8.018,8.018,8.018a1.542,1.542,0,0,0,2.467,0,1.876,1.876,0,0,0,0-2.467Z" transform="translate(-235.723 -268.525)" fill="#ba0404"/>
    <path id="Path_12173" data-name="Path 12173" d="M316.015,361.948l8.018-8.018a1.744,1.744,0,1,0-2.467-2.467l-8.018,8.018-8.018-8.018a1.744,1.744,0,0,0-2.467,2.467l8.018,8.018-8.018,8.018a1.876,1.876,0,0,0,0,2.467,1.542,1.542,0,0,0,2.467,0l8.018-8.018,8.018,8.018a1.542,1.542,0,0,0,2.467,0,1.876,1.876,0,0,0,0-2.467Z" transform="translate(-232.751 -260.797)" fill="#fff"/>
  </g>
</svg>
