<svg xmlns="http://www.w3.org/2000/svg" width="38.296" height="38.236" viewBox="0 0 38.296 38.236">
  <g id="Layer_2" data-name="Layer 2" transform="translate(0)">
    <g id="Layer_1" data-name="Layer 1" transform="translate(0)">
      <path id="Path_11514" data-name="Path 11514" d="M4.9,4.9h5.267V0H0V10.163H4.9Z" fill="#407bff"/>
      <path id="Path_11515" data-name="Path 11515" d="M112.087,0H106.82V4.9h5.267v5.267h4.9V0Z" transform="translate(-78.687)" fill="#407bff"/>
      <path id="Path_11516" data-name="Path 11516" d="M112.087,111.857H106.82v4.9h10.163V106.59h-4.9Z" transform="translate(-78.687 -78.518)" fill="#407bff"/>
      <path id="Path_11517" data-name="Path 11517" d="M4.9,106.59H0v10.163H10.163v-4.9H4.9Z" transform="translate(0 -78.518)" fill="#407bff"/>
      <path id="Path_11518" data-name="Path 11518" d="M8.467,52.507H29.581V42.5H37.8V41.33H29.684V31.29H8.491v.1H8.467V41.33H0v1.177H8.467Zm20.324-.79H9.257V42.5H28.791Z" transform="translate(0 -23.049)" fill="#407bff"/>
    </g>
  </g>
</svg>
