<svg xmlns="http://www.w3.org/2000/svg" width="73.421" height="60.408" viewBox="0 0 73.421 60.408">
  <g id="icon03" transform="translate(-22.847 -63.311)">
    <g id="freepik--background-complete--inject-6" transform="translate(25.085 71.144)">
      <rect id="Rectangle_1580" data-name="Rectangle 1580" width="60.459" height="40.306" rx="11.09" transform="translate(10.723)" fill="#f5f5f5"/>
      <rect id="Rectangle_1581" data-name="Rectangle 1581" width="58.325" height="38.227" rx="11.09" transform="translate(11.708 0.984)" fill="#e0e0e0"/>
      <rect id="Rectangle_1582" data-name="Rectangle 1582" width="56.073" height="21.118" transform="translate(12.586 12.751)" fill="#fff"/>
      <rect id="Rectangle_1583" data-name="Rectangle 1583" width="60.459" height="40.306" rx="11.09" transform="translate(0 12.269)" fill="#f5f5f5"/>
      <rect id="Rectangle_1584" data-name="Rectangle 1584" width="58.325" height="38.227" rx="11.09" transform="translate(0.985 13.254)" fill="#e0e0e0"/>
      <rect id="Rectangle_1585" data-name="Rectangle 1585" width="56.073" height="21.118" transform="translate(1.863 25.02)" fill="#fff"/>
    </g>
    <g id="freepik--Plant--inject-6" transform="translate(71.977 63.311)">
      <path id="Path_11519" data-name="Path 11519" d="M349.9,78.546s.051.014.147.046.239.077.431.125a5.028,5.028,0,0,0,1.713.122,6.808,6.808,0,0,0,1.221-.236,7.689,7.689,0,0,0,1.383-.529,8.522,8.522,0,0,0,2.783-2.261,2.6,2.6,0,0,0,.493-.883,1.351,1.351,0,0,0-.078-1.022,1.122,1.122,0,0,0-.9-.542,2.044,2.044,0,0,0-1.11.215,4.111,4.111,0,0,1-.561.218,1.091,1.091,0,0,1-.617,0,.658.658,0,0,1-.461-.423.771.771,0,0,1,.106-.628,1.168,1.168,0,0,1,.481-.425,4.712,4.712,0,0,1,.6-.239,8.235,8.235,0,0,0,1.194-.534,8.111,8.111,0,0,0,1.121-.737,2.689,2.689,0,0,0,.49-.463.961.961,0,0,0,.237-.607.641.641,0,0,0-.351-.524,1.525,1.525,0,0,0-.663-.16,3.927,3.927,0,0,1-.716-.075.8.8,0,0,1-.572-.458.436.436,0,0,1,.037-.385.942.942,0,0,1,.276-.26q.3-.207.585-.437a9.564,9.564,0,0,0,1.072-1.016,4.791,4.791,0,0,0,.859-1.213,1.477,1.477,0,0,0,.13-.721,1.087,1.087,0,0,0-.3-.66,1.453,1.453,0,0,0-1.362-.4,2.387,2.387,0,0,0-1.238.766,20.588,20.588,0,0,0-1.516,2.512,3.992,3.992,0,0,1-.452.57,1.265,1.265,0,0,1-.282.237.38.38,0,0,1-.378.026.471.471,0,0,1-.208-.32,1.32,1.32,0,0,1-.014-.362.962.962,0,0,0-.022-.335.615.615,0,0,0-.17-.277.838.838,0,0,0-.606-.218.95.95,0,0,0-.585.272,1.486,1.486,0,0,0-.351.548,2.378,2.378,0,0,0-.141.641c-.038.437-.021.878-.027,1.309s0,.86,0,1.282a3.729,3.729,0,0,1-.1,1.245.732.732,0,0,1-.418.455.888.888,0,0,1-.607-.022,2.4,2.4,0,0,1-.953-.678,2.539,2.539,0,0,1-.32-.471,4.9,4.9,0,0,0-.271-.481.768.768,0,0,0-.4-.32.711.711,0,0,0-.5.05,1.022,1.022,0,0,0-.385.32,1.138,1.138,0,0,0-.189.455,7.162,7.162,0,0,0-.058.976c-.013.32-.014.628-.01.931a11.777,11.777,0,0,0,.152,1.7,8.375,8.375,0,0,0,.357,1.442c.067.218.16.415.239.609a3.768,3.768,0,0,0,.269.527,5.492,5.492,0,0,0,1.067,1.346,2.066,2.066,0,0,0,.2.17l.147.119.117.1s-.042-.029-.122-.091l-.151-.115a1.993,1.993,0,0,1-.2-.16,5.431,5.431,0,0,1-1.083-1.343c-.1-.16-.181-.341-.276-.529a3.877,3.877,0,0,1-.242-.61,8.274,8.274,0,0,1-.365-1.442,11.6,11.6,0,0,1-.16-1.7v-.934a7.147,7.147,0,0,1,.056-.984,1.228,1.228,0,0,1,.2-.481,1.081,1.081,0,0,1,.409-.34.774.774,0,0,1,.54-.054.835.835,0,0,1,.437.341,5.207,5.207,0,0,1,.276.481,2.465,2.465,0,0,0,.32.458,2.36,2.36,0,0,0,.924.657.835.835,0,0,0,.561.021.66.66,0,0,0,.375-.413,4.033,4.033,0,0,0,.1-1.221c.01-.42,0-.848,0-1.282s-.013-.87.026-1.317a2.462,2.462,0,0,1,.146-.663,1.558,1.558,0,0,1,.378-.575,1.032,1.032,0,0,1,.641-.293.92.92,0,0,1,.654.239.681.681,0,0,1,.192.32,1.061,1.061,0,0,1,.026.36,1.265,1.265,0,0,0,.013.341.4.4,0,0,0,.168.263.3.3,0,0,0,.3-.026,1.229,1.229,0,0,0,.263-.231,3.974,3.974,0,0,0,.442-.559,19.9,19.9,0,0,1,1.52-2.523,2.474,2.474,0,0,1,1.282-.791,1.535,1.535,0,0,1,1.442.428,1.168,1.168,0,0,1,.32.708,1.564,1.564,0,0,1-.136.761,4.806,4.806,0,0,1-.875,1.237,9.866,9.866,0,0,1-1.081,1.024c-.191.16-.389.3-.59.441a.894.894,0,0,0-.253.236.352.352,0,0,0-.029.32.724.724,0,0,0,.521.4,3.9,3.9,0,0,0,.7.074,1.6,1.6,0,0,1,.7.176.8.8,0,0,1,.274.242.676.676,0,0,1,.115.348,1.022,1.022,0,0,1-.255.658,2.722,2.722,0,0,1-.5.481,8.373,8.373,0,0,1-1.131.742,8.209,8.209,0,0,1-1.2.537,4.634,4.634,0,0,0-.594.234,1.1,1.1,0,0,0-.458.4.7.7,0,0,0-.1.569.59.59,0,0,0,.413.376,1.03,1.03,0,0,0,.578,0,3.847,3.847,0,0,0,.551-.213,2.136,2.136,0,0,1,1.146-.218,1.366,1.366,0,0,1,.548.175,1.064,1.064,0,0,1,.4.4,1.41,1.41,0,0,1,.082,1.07,2.651,2.651,0,0,1-.506.9,8.547,8.547,0,0,1-2.809,2.265,7.709,7.709,0,0,1-1.392.525,6.713,6.713,0,0,1-1.23.229,4.984,4.984,0,0,1-1.719-.138,4.059,4.059,0,0,1-.429-.133C349.95,78.566,349.9,78.546,349.9,78.546Z" transform="translate(-344.463 -63.311)" fill="#263238"/>
      <path id="Path_11520" data-name="Path 11520" d="M371.507,65.86a.385.385,0,0,1-.042.042c-.029.026-.075.064-.128.112-.114.1-.28.242-.49.434A16.024,16.024,0,0,0,369.2,68.2c-.32.394-.658.84-1.009,1.325s-.721,1.009-1.091,1.573a19.056,19.056,0,0,0-1.073,1.82c-.168.32-.32.666-.473,1.014l-.465,1.059A39.327,39.327,0,0,0,363.52,79.1a19.053,19.053,0,0,0-.747,3.507,13.961,13.961,0,0,0-.062,2.419c.019.285.038.506.058.657.008.07.013.128.018.17a.506.506,0,0,1,0,.059.244.244,0,0,1-.013-.058,1.423,1.423,0,0,0-.026-.17c-.024-.149-.048-.37-.074-.657a13.434,13.434,0,0,1,.038-2.426,18.758,18.758,0,0,1,.734-3.525,38.194,38.194,0,0,1,1.56-4.117l.465-1.059c.16-.346.306-.691.481-1.017a19.338,19.338,0,0,1,1.081-1.826c.373-.564.747-1.085,1.1-1.57s.694-.931,1.019-1.323a15.174,15.174,0,0,1,1.676-1.737c.213-.189.383-.33.5-.425l.135-.106Z" transform="translate(-357.329 -65.452)" fill="#263238"/>
      <path id="Path_11521" data-name="Path 11521" d="M380.412,84.938a.923.923,0,0,1-.04-.184c-.021-.119-.047-.29-.075-.5-.056-.426-.114-1.019-.176-1.671s-.127-1.245-.191-1.669c-.03-.211-.058-.385-.077-.5a.916.916,0,0,1-.022-.186.858.858,0,0,1,.053.181c.029.115.064.287.1.5.077.423.152,1.014.213,1.669s.112,1.227.16,1.673c.019.2.037.372.05.508A.921.921,0,0,1,380.412,84.938Z" transform="translate(-371.767 -77.511)" fill="#263238"/>
      <path id="Path_11522" data-name="Path 11522" d="M388.976,103.517a1.09,1.09,0,0,1-.22.026c-.143.011-.346.026-.6.053-.5.05-1.2.143-1.961.279s-1.442.292-1.939.418c-.247.061-.445.115-.583.152a1.16,1.16,0,0,1-.215.051,1.122,1.122,0,0,1,.207-.082c.135-.045.332-.109.577-.176a19.706,19.706,0,0,1,1.939-.442,19.452,19.452,0,0,1,1.971-.256c.253-.019.46-.027.6-.029A1.4,1.4,0,0,1,388.976,103.517Z" transform="translate(-374.815 -97.069)" fill="#263238"/>
      <path id="Path_11523" data-name="Path 11523" d="M353.929,110.719a.367.367,0,0,1-.037-.067c-.024-.054-.055-.12-.091-.2-.08-.175-.189-.429-.32-.747-.261-.633-.591-1.519-.944-2.5s-.676-1.871-.921-2.509l-.295-.755c-.032-.082-.058-.151-.078-.207a.225.225,0,0,1-.022-.074.32.32,0,0,1,.037.069c.026.053.056.119.093.2.078.175.188.429.32.747.26.641.591,1.519.944,2.5s.674,1.87.921,2.507l.293.759.078.207A.223.223,0,0,1,353.929,110.719Z" transform="translate(-347.741 -97.196)" fill="#263238"/>
      <path id="Path_11524" data-name="Path 11524" d="M375.469,133.43l-.072.029-.215.069-.785.247c-.663.208-1.576.506-2.586.838s-1.923.622-2.594.815c-.333.1-.6.175-.793.223l-.216.054a.24.24,0,0,1-.078.014.292.292,0,0,1,.074-.029l.213-.07.785-.247c.665-.208,1.578-.506,2.586-.836s1.923-.622,2.594-.817c.333-.1.606-.173.8-.223l.218-.054A.255.255,0,0,1,375.469,133.43Z" transform="translate(-361.941 -122.196)" fill="#263238"/>
      <path id="Path_11525" data-name="Path 11525" d="M336.425,97.39a1.8,1.8,0,0,1,1.248.654,3.156,3.156,0,0,1,.628,1.291,5.594,5.594,0,0,1-.189,2.865,3.8,3.8,0,0,1-1.836-1.955c-.423-.87-.66-2.7.149-2.855" transform="translate(-334.865 -91.93)" fill="#407bff"/>
      <path id="Path_11526" data-name="Path 11526" d="M357.244,120.805a1.536,1.536,0,0,1-.059-1.54,2.039,2.039,0,0,1,1.237-.976.856.856,0,0,1,.721.04.655.655,0,0,1,.248.618,1.324,1.324,0,0,1-.287.628,2.633,2.633,0,0,1-1.86,1.229" transform="translate(-352.6 -109.43)" fill="#407bff"/>
      <path id="Path_11527" data-name="Path 11527" d="M357.628,129.508a1.049,1.049,0,0,1-.043-.187c-.024-.135-.056-.308-.095-.516a5.384,5.384,0,0,1-.093-1.727,3.283,3.283,0,0,1,.655-1.6,2.16,2.16,0,0,1,.373-.372,1.381,1.381,0,0,1,.117-.083.172.172,0,0,1,.047-.021,3.586,3.586,0,0,0-.5.508,3.4,3.4,0,0,0-.625,1.575,5.791,5.791,0,0,0,.072,1.711c.034.218.059.4.075.517A1.068,1.068,0,0,1,357.628,129.508Z" transform="translate(-352.902 -115.117)" fill="#263238"/>
      <path id="Path_11528" data-name="Path 11528" d="M341.14,106a.45.45,0,0,1,.038.074c.026.056.058.128.1.218.083.191.2.468.348.811.288.686.673,1.639,1.075,2.7s.743,2.033.98,2.738c.119.352.213.641.276.838l.069.229a.417.417,0,0,1,.021.082.613.613,0,0,1-.034-.077c-.021-.059-.048-.133-.082-.226-.072-.2-.173-.481-.295-.83-.25-.7-.6-1.668-1-2.724s-.779-2.017-1.056-2.708c-.136-.34-.247-.617-.328-.817l-.087-.224A.321.321,0,0,1,341.14,106Z" transform="translate(-339.276 -99.161)" fill="#263238"/>
      <path id="Path_11529" data-name="Path 11529" d="M333.086,131.363a3.6,3.6,0,0,0-2.772-1.762c-.29-.024-.641.022-.767.28a.756.756,0,0,0,.232.783,3.068,3.068,0,0,0,3.316.769" transform="translate(-329.503 -118.976)" fill="#407bff"/>
      <path id="Path_11530" data-name="Path 11530" d="M337.27,134.5a.909.909,0,0,1,.181,0,1.809,1.809,0,0,1,.21.027c.082.016.176.026.277.054a3.375,3.375,0,0,1,.328.093,3.586,3.586,0,0,1,.365.144,3.685,3.685,0,0,1,1.4,1.1,3.358,3.358,0,0,1,.223.32,3.2,3.2,0,0,1,.16.3,2.7,2.7,0,0,1,.112.258,1.539,1.539,0,0,1,.07.2.848.848,0,0,1,.045.176c-.014,0-.082-.245-.271-.614a3.208,3.208,0,0,0-.17-.29,3.525,3.525,0,0,0-.224-.32,4.043,4.043,0,0,0-.626-.623,4.168,4.168,0,0,0-.753-.461,3.386,3.386,0,0,0-.359-.146,2.9,2.9,0,0,0-.32-.1C337.526,134.527,337.268,134.511,337.27,134.5Z" transform="translate(-336.026 -123.088)" fill="#263238"/>
    </g>
    <g id="freepik--Card--inject-6" transform="translate(31.279 76.911)">
      <rect id="Rectangle_1586" data-name="Rectangle 1586" width="60.459" height="40.306" rx="11.09" fill="#f5f5f5"/>
      <rect id="Rectangle_1587" data-name="Rectangle 1587" width="58.325" height="38.227" rx="11.09" transform="translate(0.985 0.985)" fill="#407bff"/>
      <rect id="Rectangle_1588" data-name="Rectangle 1588" width="56.073" height="21.118" transform="translate(1.863 12.753)" fill="#fff"/>
      <text id="ID" transform="translate(37.616 8.387)" fill="#fff" font-size="5" font-family="Roboto-Bold, Roboto" font-weight="700"><tspan x="0" y="0">ID</tspan></text>
    </g>
    <g id="freepik--Character--inject-6" transform="translate(22.847 66.707)">
      <path id="Path_11536" data-name="Path 11536" d="M30.9,191.161l-2.724,5.011L28.4,184a4.263,4.263,0,0,1,.755-2.153,4.453,4.453,0,0,1,.655-.783,4.823,4.823,0,0,1,1.041-.729c.364-.144.375-.649.037-.737a3.3,3.3,0,0,0-2.232,1.187c-.881.9-.683-1.049-.622-1.762a11.532,11.532,0,0,0-.062-3.11c-.3-.274-.657,0-.7.718s-.32,2.844-.7,2.8-.013-3.664-.013-3.664.2-.766-.229-.827c-.779-.111-.873,3.763-.873,4.133,0,.256-.409.227-.394-.048s.439-3.611-.352-3.73c-.607-.091-.107,3.187-.578,3.845s-.125-2.531-.71-2.6c-.216-.024-.383-.011-.32,1.838a32.026,32.026,0,0,1,.4,4.4l-.019.5h0c-.46,3.59-2.531,22.426,4.6,21.915,0,0,5.41-.751,8.418-10.6Z" transform="translate(-22.847 -160.456)" fill="#ffbe9d"/>
      <path id="Path_11537" data-name="Path 11537" d="M35,215.976c0,.018.12.032.3.125a1.122,1.122,0,0,1,.527.58l.056.143.062-.139a1.791,1.791,0,0,1,.37-.534,2.108,2.108,0,0,1,1.1-.591c.32-.066.529-.029.532-.055a1,1,0,0,0-.548-.042,2.012,2.012,0,0,0-1.182.591,1.854,1.854,0,0,0-.388.578h.119a1.121,1.121,0,0,0-.614-.6A.538.538,0,0,0,35,215.976Z" transform="translate(-33.053 -194.465)" fill="#eb996e"/>
      <path id="Path_11538" data-name="Path 11538" d="M253.377,290.77l3.03,5.707,2.767,5.322h-6.256l-3.877-7.99" transform="translate(-212.801 -257.724)" fill="#ffbe9d"/>
      <path id="Path_11539" data-name="Path 11539" d="M69.089,233.071c.6-2.03.205-2.35-.436-4.366l-1.378-4.326-3.015,4.454h0l-6.41-5.152h0l2.126-4.8c3.972-9,10.414-8.361,10.414-8.361l8.209-1.567s5.252-.481,8.651,2.605c1.109,1.006,6.144,10.071,6.144,10.071l-6.187,4.335-1.517-2.587-.42,3.517a12.186,12.186,0,0,0,.42,6.173" transform="translate(-52.242 -188.996)" fill="#455a64"/>
      <path id="Path_11540" data-name="Path 11540" d="M91.729,237.991c0,.022-1.351.32-3.025.665s-3.044.606-3.044.583,1.349-.32,3.025-.665S91.724,237.965,91.729,237.991Z" transform="translate(-75.597 -213.399)" fill="#fafafa"/>
      <path id="Path_11541" data-name="Path 11541" d="M204.987,221.812c0,.024-1.325.288-2.97.591s-2.982.532-2.986.508,1.327-.287,2.972-.59S204.983,221.79,204.987,221.812Z" transform="translate(-170.803 -199.813)" fill="#fafafa"/>
      <path id="Path_11542" data-name="Path 11542" d="M203.527,240.107c0,.022-2.062.481-4.616,1.037s-4.627.977-4.632.961,2.06-.481,4.614-1.037S203.516,240.09,203.527,240.107Z" transform="translate(-166.814 -215.177)" fill="#fafafa"/>
      <path id="Path_11543" data-name="Path 11543" d="M91.485,268.3l-.087.018-.253.045-.979.16-3.6.59-11.885,1.907c-4.646.735-8.849,1.391-11.9,1.849-1.522.231-2.756.41-3.61.529-.426.058-.758.1-.984.125a1.087,1.087,0,0,1-.343.019,1.974,1.974,0,0,0,.341-.035l.98-.141,3.606-.554,11.891-1.874,11.883-1.883,3.6-.564.98-.149.256-.037Z" transform="translate(-52.242 -238.854)" fill="#fafafa"/>
      <path id="Path_11544" data-name="Path 11544" d="M140.606,312.076c0,.022-3.816.54-8.528,1.154s-8.535,1.093-8.538,1.07,3.815-.538,8.528-1.154S140.6,312.054,140.606,312.076Z" transform="translate(-107.408 -275.616)" fill="#fafafa"/>
      <path id="Path_11545" data-name="Path 11545" d="M145.554,348.97c0,.024-3.416.021-7.626,0s-7.628-.064-7.628-.088,3.414-.021,7.628,0S145.554,348.947,145.554,348.97Z" transform="translate(-113.085 -306.511)" fill="#fafafa"/>
      <path id="Path_11546" data-name="Path 11546" d="M81.177,261.133a.557.557,0,0,1-.111.024l-.32.053-1.17.186c-.989.16-2.352.386-3.845.667s-2.855.561-3.834.771l-1.165.248-.32.066a.513.513,0,0,1-.112.018.565.565,0,0,1,.107-.034l.325-.082c.272-.067.666-.16,1.154-.274.976-.226,2.328-.514,3.831-.8s2.868-.5,3.858-.641c.5-.072.9-.127,1.176-.16l.32-.037A.533.533,0,0,1,81.177,261.133Z" transform="translate(-62.697 -232.834)" fill="#fafafa"/>
      <path id="Path_11547" data-name="Path 11547" d="M167.114,99.77c-.2,2.374,2.985,4.06,2.7,6.424-.079.657-.42,1.371-.072,1.935.417.678,1.431.535,2.171.828a2.271,2.271,0,0,1,1.24,2.427,4.178,4.178,0,0,1-1.5,2.453,7.37,7.37,0,0,1-4.165,1.79,3.791,3.791,0,0,1-2.1-.32,2.019,2.019,0,0,1-1.146-1.693" transform="translate(-141.587 -97.324)" fill="#263238"/>
      <path id="Path_11548" data-name="Path 11548" d="M125.75,115.09c-.423-2.027-.831-4.166-.831-4.166s2.517-.987,2.336-4.5c-.171-3.355-2.294-10.734-2.294-10.734h0a9.99,9.99,0,0,0-10.35,4.806h0l3.706,16.4a3.607,3.607,0,0,0,4.443,2.575h0A3.824,3.824,0,0,0,125.75,115.09Z" transform="translate(-99.908 -93.767)" fill="#ffbe9d"/>
      <path id="Path_11549" data-name="Path 11549" d="M176.354,132.627a.447.447,0,0,1-.328.529.426.426,0,0,1-.534-.3.447.447,0,0,1,.32-.53.428.428,0,0,1,.542.3Z" transform="translate(-151.027 -124.649)" fill="#263238"/>
      <path id="Path_11550" data-name="Path 11550" d="M174.924,129.975c-.042.069-.425-.106-.894,0s-.764.409-.827.362c-.03-.021,0-.135.13-.276a1.219,1.219,0,0,1,.641-.36,1.173,1.173,0,0,1,.726.075C174.869,129.852,174.94,129.945,174.924,129.975Z" transform="translate(-149.105 -122.438)" fill="#263238"/>
      <path id="Path_11551" data-name="Path 11551" d="M146.466,139.515a.447.447,0,0,1-.32.53.428.428,0,0,1-.534-.3.445.445,0,0,1,.32-.529.426.426,0,0,1,.534.3Z" transform="translate(-125.934 -130.436)" fill="#263238"/>
      <path id="Path_11552" data-name="Path 11552" d="M144.924,136.817c-.042.067-.425-.107-.894,0s-.763.409-.827.362c-.03-.019,0-.135.13-.276a1.237,1.237,0,0,1,.641-.36,1.187,1.187,0,0,1,.727.075C144.877,136.694,144.949,136.785,144.924,136.817Z" transform="translate(-123.911 -128.184)" fill="#263238"/>
      <path id="Path_11553" data-name="Path 11553" d="M164.072,137.064a3.1,3.1,0,0,1,.734-.3c.117-.038.226-.085.229-.171a.631.631,0,0,0-.16-.338l-.548-.838a15.811,15.811,0,0,1-1.3-2.221,16.006,16.006,0,0,1,1.477,2.11l.535.846a.72.72,0,0,1,.16.458.306.306,0,0,1-.16.216.831.831,0,0,1-.2.072A3.092,3.092,0,0,1,164.072,137.064Z" transform="translate(-140.564 -125.395)" fill="#263238"/>
      <path id="Path_11554" data-name="Path 11554" d="M153.806,190.282A8.855,8.855,0,0,1,149,190.03s1.6,2.1,4.939,1.064Z" transform="translate(-128.789 -173.124)" fill="#eb996e"/>
      <path id="Path_11555" data-name="Path 11555" d="M162.752,163.625a.863.863,0,0,0-.825-.152.78.78,0,0,0-.473.4.5.5,0,0,0,.08.567.58.58,0,0,0,.641.026,1.825,1.825,0,0,0,.526-.481.539.539,0,0,0,.1-.16.16.16,0,0,0-.038-.176" transform="translate(-139.202 -150.784)" fill="#407bff"/>
      <path id="Path_11556" data-name="Path 11556" d="M161.188,161.187c.077-.021.186.489.7.759a2.557,2.557,0,0,0,1.062.16c.014.03-.1.125-.328.179a1.293,1.293,0,0,1-.881-.112,1.121,1.121,0,0,1-.551-.641C161.127,161.329,161.153,161.192,161.188,161.187Z" transform="translate(-138.993 -148.901)" fill="#263238"/>
      <path id="Path_11557" data-name="Path 11557" d="M118.229,148.2a2.067,2.067,0,0,0-1.081.3,1.442,1.442,0,0,0-.641.9,1.509,1.509,0,0,0,.221,1.089,2.552,2.552,0,0,0,.814.783,1.724,1.724,0,0,0,.753.3.827.827,0,0,0,.734-.277" transform="translate(-101.481 -137.995)" fill="#ffbe9d"/>
      <path id="Path_11558" data-name="Path 11558" d="M122.4,153.471c.045,0-.067.258-.418.239a.724.724,0,0,1-.481-.272,1.645,1.645,0,0,1-.309-.566.969.969,0,0,1,.018-.673.641.641,0,0,1,.418-.383c.341-.08.5.135.46.149a.684.684,0,0,0-.393.04.628.628,0,0,0-.231.783c.125.357.336.678.554.721S122.374,153.446,122.4,153.471Z" transform="translate(-105.389 -141.017)" fill="#eb996e"/>
      <path id="Path_11559" data-name="Path 11559" d="M92.848,85.674a2.528,2.528,0,0,1-.519,2.985A7.4,7.4,0,0,1,89.285,89.8c-1.051.306-2.177,1.08-2.129,2.174.029.663.5,1.3.33,1.942-.2.751-1.157,1.072-1.427,1.8-.434,1.17,1.155,2.222,1.085,3.467-.042.739-.666,1.341-.735,2.083-.1,1.048.929,2.161.357,3.044-.439.679-1.461.582-2.211.287a3.3,3.3,0,0,0-2.321-.42,6.57,6.57,0,0,0-1.173.852,2.243,2.243,0,0,1-3.462-2.28,6.281,6.281,0,0,1,.822-1.762,2.5,2.5,0,0,0,.373-1.863,4.347,4.347,0,0,0-.819-1.243,1.477,1.477,0,0,1-.338-1.387c.336-.809,1.626-.739,2.094-1.479.641-1.017-.846-2.312-.465-3.453.433-1.291,2.724-1.061,3.159-2.352a6.238,6.238,0,0,0,.043-1.48,2.711,2.711,0,0,1,2.414-2.044c1.117-.194,2.283-.05,3.379-.338.6-.16,1.16-.444,1.75-.641a2.776,2.776,0,0,1,1.826-.078,1.372,1.372,0,0,1,.932,1.442" transform="translate(-68.792 -84.505)" fill="#263238"/>
      <path id="Path_11560" data-name="Path 11560" d="M164.836,90.107a4.246,4.246,0,0,0,3.1,2.083,10.3,10.3,0,0,0-.3-2.549,4.109,4.109,0,0,0-1.341-2.148,2.545,2.545,0,0,0-2.422-.429" transform="translate(-141.285 -86.532)" fill="#263238"/>
      <path id="Path_11561" data-name="Path 11561" d="M132.566,208.358c.29.038,1.911,9.549-4.313,10.6-5.891,1-7.713-8.77-7.713-8.77S124.508,207.281,132.566,208.358Z" transform="translate(-104.888 -188.314)" fill="#ffbe9d"/>
      <path id="Path_11562" data-name="Path 11562" d="M173.324,126.441c.037.069.357-.034.756-.079s.732-.022.751-.1-.32-.229-.783-.175S173.287,126.386,173.324,126.441Z" transform="translate(-149.213 -119.418)" fill="#263238"/>
      <path id="Path_11563" data-name="Path 11563" d="M143.146,129.968c.014-.013.013-.04,0-.083v.072a3.27,3.27,0,0,1,.724-.266c.442-.1.817.01.848-.062.013-.034-.067-.109-.231-.16a1.256,1.256,0,0,0-.671-.038,1.1,1.1,0,0,0-.737.46l-.029.058.024.013A.072.072,0,0,0,143.146,129.968Z" transform="translate(-123.792 -122.209)" fill="#263238"/>
      <path id="Path_11564" data-name="Path 11564" d="M115.533,130.048a7.208,7.208,0,0,1-1.086-.069,6.872,6.872,0,0,1-1.077-.152,14.115,14.115,0,0,1,2.163.221Z" transform="translate(-98.867 -122.566)" fill="#407bff"/>
      <path id="Path_11565" data-name="Path 11565" d="M115.013,134.508a3.794,3.794,0,0,1-1.633-.088c0-.022.367.026.815.05S115.011,134.482,115.013,134.508Z" transform="translate(-98.875 -126.418)" fill="#407bff"/>
      <path id="Path_11566" data-name="Path 11566" d="M129.232,103.91a.414.414,0,0,1-.032.1.915.915,0,0,1-.16.253,1.552,1.552,0,0,1-.993.439,2.976,2.976,0,0,1-.761-.013c-.271-.034-.558-.083-.859-.106a2.123,2.123,0,0,0-.928.1,1.868,1.868,0,0,0-.775.623c-.219.272-.4.564-.62.822a2.6,2.6,0,0,1-.354.349,1.828,1.828,0,0,1-.413.24,4.286,4.286,0,0,1-.846.219,4.508,4.508,0,0,0-.729.175,1.52,1.52,0,0,0-.831.641,1.045,1.045,0,0,0-.107.378.4.4,0,0,1,0-.1.86.86,0,0,1,.082-.288,1.524,1.524,0,0,1,.84-.691,4.537,4.537,0,0,1,.737-.187,4.139,4.139,0,0,0,.828-.223,1.881,1.881,0,0,0,.735-.57c.211-.252.394-.545.617-.822a1.964,1.964,0,0,1,.812-.641,2.2,2.2,0,0,1,.961-.1,8.362,8.362,0,0,0,1.6.138,1.543,1.543,0,0,0,.982-.4A1.282,1.282,0,0,0,129.232,103.91Z" transform="translate(-105.122 -100.801)" fill="#455a64"/>
      <path id="Path_11567" data-name="Path 11567" d="M88.846,149.016a1.123,1.123,0,0,0,.143-.04.562.562,0,0,0,.285-.3.867.867,0,0,0,.013-.652c-.077-.25-.226-.516-.34-.833a4.255,4.255,0,0,1-.229-2.328A3.113,3.113,0,0,1,89.3,143.6a2.687,2.687,0,0,1,.538-.513,3.186,3.186,0,0,1,.676-.351,2.115,2.115,0,0,0,.641-.365.8.8,0,0,0,.247-.63c-.027-.466-.282-.894-.274-1.355a1.4,1.4,0,0,1,.17-.641,2.355,2.355,0,0,1,.365-.5,8.31,8.31,0,0,1,.824-.726,2.588,2.588,0,0,0,.916-1.245,1.259,1.259,0,0,0,0-.57.119.119,0,0,1,.013.037c0,.024.018.061.027.109a1.122,1.122,0,0,1-.014.433,1.748,1.748,0,0,1-.29.62,3.709,3.709,0,0,1-.618.662,8.605,8.605,0,0,0-.811.727,2.329,2.329,0,0,0-.352.481,1.336,1.336,0,0,0-.16.6,2.229,2.229,0,0,0,.123.654,3.06,3.06,0,0,1,.16.7.878.878,0,0,1-.271.694,2.169,2.169,0,0,1-.665.381,3.184,3.184,0,0,0-.658.357,2.61,2.61,0,0,0-.522.5,3.044,3.044,0,0,0-.575,1.229A4.255,4.255,0,0,0,89,147.181c.109.32.255.582.33.841a1.2,1.2,0,0,1,.051.372.783.783,0,0,1-.079.308A.575.575,0,0,1,89,149,.321.321,0,0,1,88.846,149.016Z" transform="translate(-78.107 -128.346)" fill="#455a64"/>
    </g>
    <g id="freepik--Name--inject-6" transform="translate(62.299 95.577)">
      <path id="Path_11568" data-name="Path 11568" d="M270.33,275.273a1.268,1.268,0,0,0-.234,0c0-.042-.061-.072-.071-.05-.04.09-.109.046-.16.034a.588.588,0,0,1-.344-.16c.16,0,.264.168.436.09-.205-.115-.391-.235-.594-.332a.4.4,0,0,1-.25-.481,2.054,2.054,0,0,1,.617-1.182c.284-.276.567-.553.875-.8a32.067,32.067,0,0,1,2.964-2.15c.41-.263.83-.508,1.242-.758a.5.5,0,0,0,.2-.221c.128-.221.194-.481.32-.7a3.2,3.2,0,0,0,.239-.856c.043-.152.085-.3.122-.455a1.6,1.6,0,0,1,.077-.234c.091-.187.189-.377.309-.6,0,.082.014.122.013.16.067-.011.095-.133.189-.061a.642.642,0,0,0,.05-.117l-.082.013v-.069c.013-.085.046-.16.149-.17a.546.546,0,0,1,.178.03c.022.01.029.05.04.075-.034.042-.069.075-.122.131a1.291,1.291,0,0,0,.16-.021.232.232,0,0,1-.043.187,1.461,1.461,0,0,0-.229.349c-.255.686-.5,1.383-.747,2.073v.054a.386.386,0,0,0,.1,0c.268-.087.527-.181.787-.274l.7-.244a1.028,1.028,0,0,0-.087-.067,1.136,1.136,0,0,1,.84,0c-.018.093-.029.191-.046.284l-.16.05c-.062-.01-.138-.08-.24,0,.038.021.067.029.1.045a.686.686,0,0,0,.08.069c-.17.008-.335.016-.5.03a2.018,2.018,0,0,0-.668.2c-.309.128-.62.285-.924.434a.64.64,0,0,0-.115.1c-.054,0-.085.029-.074.088a1.8,1.8,0,0,0-.234.606c-.191.618-.357,1.248-.538,1.878a1.839,1.839,0,0,1-.066.219c-.045.1-.077.109-.219.085-.021-.085-.05-.17-.082-.276l-.144.122a.426.426,0,0,1,0-.29l.468-1.722c.024-.066.04-.13.069-.239-.143.093-.255.16-.36.227-.952.641-1.9,1.272-2.8,1.979a10.337,10.337,0,0,0-1.331,1.154,2.433,2.433,0,0,0-.527.745c-.018.059-.034.123-.053.175a.332.332,0,0,0,.215.16,2.069,2.069,0,0,0,.928.1,8.517,8.517,0,0,0,1.817-.375c.119-.035.242-.083.367-.112a.877.877,0,0,1,.184-.018.048.048,0,0,0,.035.008c-.03.026-.053.056-.106.107a3.364,3.364,0,0,0,.388-.107,6.575,6.575,0,0,1,.785-.287.16.16,0,0,0,.144-.16c.282-.125.559-.234.827-.37.062-.032.135-.058.2-.1a2.267,2.267,0,0,1,.218-.133c.075-.042.16-.077.242-.119s.16-.075.242-.111.16-.082.242-.117a2.608,2.608,0,0,1,.242-.119l.234-.122a2.617,2.617,0,0,0,.242-.119c.614-.32,1.229-.625,1.825-.969.961-.551,1.892-1.139,2.8-1.777a14.476,14.476,0,0,0,1.786-1.48,3.887,3.887,0,0,0,.8-1.041,1.477,1.477,0,0,0,.173-.561.58.58,0,0,0-.243-.566,2.83,2.83,0,0,0-.936-.431,2.832,2.832,0,0,1-.572-.16c-.038-.021-.111,0-.178.01v-.09h-.2c-.261,0-.524,0-.788-.016-.458-.018-.916-.042-1.37-.067-.111,0-.216-.018-.328-.026a3.291,3.291,0,0,0-.588.026c-.466.053-.937.085-1.413.119-.742.059-1.479.179-2.216.306-.918.16-1.822.356-2.724.6a16.148,16.148,0,0,0-1.972.671,3.416,3.416,0,0,0-.412.208,1.578,1.578,0,0,0-.218.176c-.013.133.119.213.024.34a1.429,1.429,0,0,1-.111-.119c-.034.082-.072.144-.095.216a.387.387,0,0,0-.062.032,1.241,1.241,0,0,1-.269-.36.346.346,0,0,1,.037-.311,1.464,1.464,0,0,1,.481-.455,5.352,5.352,0,0,1,1.4-.614c.16-.04.311-.122.468-.17.493-.139.993-.28,1.495-.409a24.06,24.06,0,0,1,2.666-.529,23.477,23.477,0,0,1,2.916-.282c.378-.01.753.008,1.133.011.138,0,.268.072.407.04a.406.406,0,0,0,.179-.037.232.232,0,0,1,.149-.013,13.31,13.31,0,0,1,1.657.17,4.3,4.3,0,0,1,.5.127,4.973,4.973,0,0,1,.554.181,4.4,4.4,0,0,1,.465.216,1.07,1.07,0,0,1,.582.851,1.957,1.957,0,0,1,.063.521,2.043,2.043,0,0,1-.4,1.021,7.372,7.372,0,0,1-1.1,1.2,22.314,22.314,0,0,1-2.708,2c-.423.266-.849.518-1.274.777a.175.175,0,0,1-.079.021l.107-.1c-.042,0-.07-.008-.083,0-.115.09-.231.178-.348.26s-.186.16-.287.223a39.289,39.289,0,0,1-3.932,1.945c-.412.175-.823.343-1.246.49a6.028,6.028,0,0,1-.6.16c-.021-.043-.038-.069-.05-.095-.171.091-.333.189-.506.268a4.831,4.831,0,0,1-1.748.376A2.378,2.378,0,0,1,270.33,275.273Zm2.5-.735a.2.2,0,0,0-.245.133Zm3.735-1.452c.559-.269,1.112-.543,1.671-.819a1.15,1.15,0,0,0,.192-.088c.2-.146.41-.3.612-.45a.066.066,0,0,1,.008-.029l-.133.022c.019-.045.042-.075.056-.112h-.062a29.277,29.277,0,0,1-2.776,1.636A3.452,3.452,0,0,0,276.563,273.086Zm2.724-8.171c-.41.022-.814.037-1.221.074-.178.016-.349.059-.556.095a10.892,10.892,0,0,0,1.838-.138c-.027-.03-.045-.043-.058-.042Z" transform="translate(-269.097 -264.708)" fill="#263238"/>
      <path id="Path_11569" data-name="Path 11569" d="M369.577,279.094a2.518,2.518,0,0,0-.109.293,2.868,2.868,0,0,0,.365-.32q.567-.606,1.142-1.211l.284-.32c.035-.034.08-.054.122-.09l.139.21c.083-.035.135-.141.247-.091a.506.506,0,0,1,.087.5,2.72,2.72,0,0,1-.095.333l-.367,1.229c-.013.043-.034.088-.051.139-.074-.064-.038-.138-.029-.2a2.363,2.363,0,0,1,.066-.26,1.488,1.488,0,0,0,.141-.425.6.6,0,0,0-.141.425c-.08.054-.091.147-.119.234s-.059.216-.1.348l-.128-.1a.729.729,0,0,1-.078.062c-.032-.022-.064-.045-.1-.066.011-.127.069-.239.011-.367-.011-.032.014-.078.027-.122l.21-.671a.807.807,0,0,1,.034-.16l-.5.508a.193.193,0,0,0-.059.016c-.07-.008-.083,0-.122.1a.425.425,0,0,1,.1-.03c.056.011.085-.022.106-.067.054-.037.112-.067.2-.117a6.515,6.515,0,0,1-.787.8c-.144.128-.3.237-.45.353a.718.718,0,0,1-.617.1.216.216,0,0,1-.175-.211,1.248,1.248,0,0,1,.091-.67,6.935,6.935,0,0,1,.357-.7,6.408,6.408,0,0,1,1.011-1.291,1.712,1.712,0,0,1,.49-.32,1.19,1.19,0,0,0,.207-.16,1.248,1.248,0,0,1,.229-.149c.135-.064.245.013.349.1a.781.781,0,0,1-.1-.016,1.1,1.1,0,0,0,0,.117h.179a.388.388,0,0,1,.173.447c-.136.091-.151.088-.26-.024-.024.018-.056.037-.087.062-.022-.016-.051-.026-.075-.042a.741.741,0,0,1-.054-.074,1.892,1.892,0,0,0-.228.16c-.228.2-.46.417-.678.626-.127.111-.236.24-.352.357A3.493,3.493,0,0,0,369.577,279.094Zm-.144.641a.821.821,0,0,1-.117.048c.115.026.146.006.117-.045Zm.109-.128a.629.629,0,0,1,.1.018,1,1,0,0,1,.042-.119Zm.841-.481a.032.032,0,0,1,.018.024l.032-.054Z" transform="translate(-352.839 -274.696)" fill="#263238"/>
      <path id="Path_11570" data-name="Path 11570" d="M393.781,276.784c-.042.481-.079.944-.114,1.418l-.026.328a.341.341,0,0,0,.024.183.332.332,0,0,1-.048.361.2.2,0,0,1-.266.011.205.205,0,0,0-.09-.034c-.138-.038-.181-.093-.178-.231l.051-.747c.013-.208.032-.412.058-.623a.648.648,0,0,1,.077-.359.109.109,0,0,0,.019-.085,1.453,1.453,0,0,0,.019-.252,1.253,1.253,0,0,0-.051-.213.48.48,0,0,0-.285.106,4.246,4.246,0,0,0-1.246,1.325.375.375,0,0,1-.115.136c-.093.058-.16.019-.16-.088a4.057,4.057,0,0,1,.019-.417,3.364,3.364,0,0,1,.2-.848l.122-.373c-.014,0-.04.014-.074.019a2.783,2.783,0,0,1,.311-.723.8.8,0,0,1,.117.083c-.051.064-.1.12-.141.183a.532.532,0,0,1,.088.386c.074-.16.16-.3.234-.481a.33.33,0,0,1,.029.085c0,.027-.022.066-.014.072.109.119.022.216-.035.32a.726.726,0,0,0-.069.247l.332-.243c-.014.079-.024.107-.034.171.095-.051.183-.1.277-.16a.394.394,0,0,0-.09-.038.506.506,0,0,1,.831-.138A.776.776,0,0,1,393.781,276.784Zm-1.953-.532a.391.391,0,0,1-.042.075v.046c.05-.027.093-.062.04-.122Z" transform="translate(-371.847 -273.922)" fill="#263238"/>
      <path id="Path_11571" data-name="Path 11571" d="M406.275,272.786a2.721,2.721,0,0,0-.107.295,2.731,2.731,0,0,0,.364-.32c.38-.4.758-.8,1.142-1.21l.284-.32c.035-.034.08-.056.123-.09l.139.21c.083-.035.133-.141.245-.091a.5.5,0,0,1,.087.5,2.705,2.705,0,0,1-.093.333l-.368,1.227c-.013.045-.032.088-.051.141-.074-.064-.038-.139-.027-.2.019-.087.039-.173.064-.26a1.443,1.443,0,0,0,.141-.425.6.6,0,0,0-.141.425c-.08.054-.091.146-.117.234s-.059.216-.1.348l-.128-.1a.729.729,0,0,1-.078.062.994.994,0,0,0-.1-.066c.013-.127.069-.239.013-.367-.013-.034.014-.079.027-.122l.208-.671c.008-.035.014-.078.035-.16l-.506.508a.2.2,0,0,0-.059.016c-.07-.008-.082,0-.12.1a.412.412,0,0,1,.1-.03.091.091,0,0,0,.106-.067c.056-.037.112-.067.2-.117a6.5,6.5,0,0,1-.787.8c-.143.13-.3.239-.449.354a.718.718,0,0,1-.617.1.215.215,0,0,1-.175-.211,1.248,1.248,0,0,1,.091-.67,7.115,7.115,0,0,1,.356-.7,6.39,6.39,0,0,1,1.011-1.29,1.679,1.679,0,0,1,.49-.32,1.281,1.281,0,0,0,.208-.16,1.169,1.169,0,0,1,.229-.149c.133-.066.244.013.348.1a.882.882,0,0,1-.1-.018v.119h.179a.385.385,0,0,1,.173.447c-.136.091-.151.087-.26-.026-.024.019-.054.038-.085.064-.024-.018-.053-.026-.077-.042s-.026-.038-.053-.074a2.115,2.115,0,0,0-.229.16c-.226.205-.458.418-.678.628-.125.111-.234.24-.352.357A3.607,3.607,0,0,0,406.275,272.786Zm-.144.641a.875.875,0,0,1-.115.048c.114.026.144.006.115-.043Zm.109-.128a.809.809,0,0,1,.1.016c.01-.029.018-.058.042-.117Zm.841-.481a.034.034,0,0,1,.019.024l.032-.054Z" transform="translate(-383.659 -269.402)" fill="#263238"/>
    </g>
  </g>
</svg>
