<svg id="XMLID_9_" xmlns="http://www.w3.org/2000/svg" width="20.832" height="19.57" viewBox="0 0 20.832 19.57">
  <path id="XMLID_10_" d="M81.615,16.035l2.8-2.8v11.6a.947.947,0,1,0,1.894,0v-11.6l2.8,2.8A.947.947,0,1,0,90.453,14.7l-4.419-4.419q-.033-.033-.07-.063l-.032-.024-.042-.031-.04-.024-.039-.023-.042-.02-.042-.02-.041-.015-.046-.016L85.6,10.03l-.049-.012-.048-.007L85.458,10c-.029,0-.058,0-.088,0h-.011q-.044,0-.088,0l-.043.006-.049.007-.047.012-.043.011-.045.016L85,10.072l-.041.019-.043.021-.038.022-.042.025-.04.029-.035.026c-.023.019-.045.039-.066.06l0,0L80.276,14.7a.947.947,0,0,0,1.339,1.339Z" transform="translate(-74.949 -10)" fill="#407bff"/>
  <path id="XMLID_11_" d="M19.885,160a.947.947,0,0,0-.947.947v7.26H1.894v-7.26a.947.947,0,0,0-1.894,0v8.207a.947.947,0,0,0,.947.947H19.885a.947.947,0,0,0,.947-.947v-8.207A.947.947,0,0,0,19.885,160Z" transform="translate(0 -150.531)" fill="#407bff"/>
</svg>
